<?xml version="1.0" encoding="utf-8"?><svg xmlns="http://www.w3.org/2000/svg" xmlns:xlink="http://www.w3.org/1999/xlink"><symbol viewBox="0 0 30 30" id="adress" xmlns="http://www.w3.org/2000/svg"><g clip-path="url(#aclip0_1969_1516)"><path d="M21.342 11.9302C19.1466 11.9302 17.3652 10.1488 17.3652 7.95336C17.3652 5.75792 19.1466 3.97656 21.342 3.97656C23.5375 3.97656 25.3188 5.75792 25.3188 7.95336C25.3188 10.1488 23.5375 11.9302 21.342 11.9302ZM21.342 5.30208C19.884 5.30208 18.6908 6.49532 18.6908 7.95336C18.6908 9.41141 19.884 10.6046 21.342 10.6046C22.8003 10.6046 23.9933 9.41141 23.9933 7.95336C23.9933 6.49532 22.8003 5.30208 21.342 5.30208Z"/><path d="M21.3423 18.4425L15.9239 13.778C14.3001 12.2535 13.3887 10.1408 13.3887 7.9536C13.3887 3.57072 16.9596 0 21.3423 0C25.7252 0 29.2959 3.57072 29.2959 7.9536C29.2959 10.1408 28.3844 12.2535 26.7856 13.753L21.3423 18.4425ZM21.3423 1.32552C17.6885 1.32552 14.7142 4.29987 14.7142 7.9536C14.7142 9.80122 15.4598 11.5243 16.8104 12.7838L21.3423 16.6861L25.8989 12.7671C27.2247 11.5161 27.9704 9.80122 27.9704 7.9536C27.9704 4.29987 24.996 1.32552 21.3423 1.32552Z"/><path d="M4.20885 30.0002L3.27266 29.064L4.64794 27.6887C5.15353 27.1832 5.43509 26.504 5.43509 25.7831C5.43509 25.1285 5.1948 24.4989 4.77221 24.01L2.56026 21.4832C1.41679 20.1825 0.79541 18.5254 0.79541 16.8021C0.79541 14.3581 2.02991 12.1129 4.09283 10.8038L8.86504 7.77148L9.57768 8.88996L4.80547 11.9223C3.12363 12.9828 2.12117 14.8054 2.12117 16.8021C2.12117 18.2023 2.62653 19.5611 3.55446 20.6133L5.76641 23.1401C6.40454 23.8692 6.76061 24.8137 6.76061 25.7831C6.76061 26.8601 6.34652 27.8625 5.58413 28.6249L4.20885 30.0002Z"/><path d="M25.3191 29.8267H23.9936V29.3214C23.9936 25.9409 21.8477 22.9171 18.6498 21.8068L11.5661 19.3461C9.87599 18.758 8.74902 17.1672 8.74902 15.386C8.74902 14.2676 9.18811 13.2071 9.97527 12.42L11.3093 11.0859L12.2455 12.0221L10.9115 13.3561C10.3731 13.8947 10.0748 14.6236 10.0748 15.386C10.0748 16.6038 10.8534 17.6975 12.0052 18.0951L19.0889 20.5641C22.8171 21.8566 25.3191 25.3776 25.3191 29.3296V29.8267Z"/></g><defs><clipPath id="aclip0_1969_1516"><rect width="30" height="30"/></clipPath></defs></symbol><symbol viewBox="0 0 28 26" id="arrow-select" xmlns="http://www.w3.org/2000/svg"><path fill-rule="evenodd" clip-rule="evenodd" d="M6.17569 8.64006C6.6313 8.23326 7.37 8.23326 7.82561 8.64006L14.0007 14.1535L20.1757 8.64006C20.6313 8.23326 21.37 8.23326 21.8256 8.64006C22.2812 9.04685 22.2812 9.7064 21.8256 10.1132L15.0318 16.1791C14.4623 16.6875 13.539 16.6876 12.9695 16.1791L6.17569 10.1132C5.72008 9.7064 5.72008 9.04685 6.17569 8.64006Z" fill-opacity="0.9"/></symbol><symbol viewBox="0 0 51 40" id="burger" xmlns="http://www.w3.org/2000/svg"><rect y="35" width="51" height="5"/><rect width="51" height="5"/><rect y="17" width="51" height="5"/></symbol><symbol viewBox="0 0 24 24" id="close" xmlns="http://www.w3.org/2000/svg"><path fill-rule="evenodd" clip-rule="evenodd" d="M4.26035 4.26035C4.60748 3.91322 5.1703 3.91322 5.51743 4.26035L12 10.7429L18.4826 4.26035C18.8297 3.91322 19.3925 3.91322 19.7397 4.26035C20.0868 4.60748 20.0868 5.1703 19.7397 5.51743L13.2571 12L19.7397 18.4826C20.0868 18.8297 20.0868 19.3925 19.7397 19.7397C19.3925 20.0868 18.8297 20.0868 18.4826 19.7397L12 13.2571L5.51743 19.7397C5.1703 20.0868 4.60748 20.0868 4.26035 19.7397C3.91322 19.3925 3.91322 18.8297 4.26035 18.4826L10.7429 12L4.26035 5.51743C3.91322 5.1703 3.91322 4.60748 4.26035 4.26035Z"/></symbol><symbol viewBox="0 0 30 30" id="instagram" xmlns="http://www.w3.org/2000/svg"><g clip-path="url(#eclip0_1969_1469)"><path d="M21.8792 0H8.12071C3.64288 0 0 3.64288 0 8.12071V21.8795C0 26.3571 3.64288 29.9999 8.12071 29.9999H21.8795C26.3571 29.9999 29.9999 26.3571 29.9999 21.8795V8.12071C29.9999 3.64288 26.3571 0 21.8792 0ZM28.2412 21.8795C28.2412 25.3873 25.3873 28.2412 21.8792 28.2412H8.12071C4.61265 28.2412 1.75873 25.3873 1.75873 21.8795V8.12071C1.75873 4.61265 4.61265 1.75873 8.12071 1.75873H21.8795C25.3873 1.75873 28.2412 4.61265 28.2412 8.12071V21.8795Z"/><path d="M14.9998 6.79688C10.4766 6.79688 6.79688 10.4766 6.79688 14.9998C6.79688 19.5229 10.4766 23.2026 14.9998 23.2026C19.5229 23.2026 23.2026 19.5229 23.2026 14.9998C23.2026 10.4766 19.5229 6.79688 14.9998 6.79688ZM14.9998 21.4439C11.4466 21.4439 8.5556 18.5531 8.5556 14.9998C8.5556 11.4466 11.4466 8.5556 14.9998 8.5556C18.5531 8.5556 21.4439 11.4466 21.4439 14.9998C21.4439 18.5531 18.5531 21.4439 14.9998 21.4439Z"/><path d="M23.399 3.88477C22.0623 3.88477 20.9751 4.97218 20.9751 6.30862C20.9751 7.64529 22.0623 8.7327 23.399 8.7327C24.7356 8.7327 25.823 7.64529 25.823 6.30862C25.823 4.97195 24.7356 3.88477 23.399 3.88477ZM23.399 6.97375C23.0323 6.97375 22.7338 6.67529 22.7338 6.30862C22.7338 5.94172 23.0323 5.64349 23.399 5.64349C23.7658 5.64349 24.0643 5.94172 24.0643 6.30862C24.0643 6.67529 23.7658 6.97375 23.399 6.97375Z"/></g><defs><clipPath id="eclip0_1969_1469"><rect width="30" height="30"/></clipPath></defs></symbol><symbol viewBox="0 0 30 30" id="mail" xmlns="http://www.w3.org/2000/svg"><path d="M23.75 12.5317V6.25002C23.75 4.87125 22.6288 3.75 21.25 3.75H2.49996C1.12119 3.75 0 4.87119 0 6.25002V18.75C0 20.1288 1.12119 21.25 2.50002 21.25H16.5165C17.3354 24.1312 19.9847 26.25 23.125 26.25C24.3335 26.25 25.5219 25.932 26.5631 25.3296C26.8616 25.1569 26.9641 24.7748 26.7908 24.4757C26.618 24.1767 26.2354 24.0735 25.9369 24.2481C25.086 24.74 24.1137 25 23.125 25C20.0231 25 17.5 22.4768 17.5 19.375C17.5 16.2732 20.0232 13.75 23.125 13.75C26.2267 13.75 28.75 16.2732 28.75 19.375V20C28.75 20.6891 28.189 21.25 27.5 21.25C26.8109 21.25 26.25 20.6891 26.25 20V17.5C26.25 17.1546 25.9704 16.875 25.625 16.875C25.4569 16.875 25.3058 16.943 25.1936 17.0508C24.6412 16.5585 23.9213 16.25 23.125 16.25C21.402 16.25 20 17.652 20 19.375C20 21.098 21.402 22.5 23.125 22.5C24.0564 22.5 24.8846 22.0822 25.4576 21.4335C25.9104 22.0767 26.6553 22.5 27.5 22.5C28.8788 22.5 30 21.3788 30 20V19.375C30 15.7951 27.2487 12.8489 23.75 12.5317ZM2.50002 4.99998H21.25C21.276 4.99998 21.2978 5.01328 21.3235 5.01486L12.3889 12.3486C12.071 12.5488 11.6101 12.5073 11.4032 12.3804L2.4273 5.01475C2.45268 5.01322 2.47424 4.99998 2.50002 4.99998ZM22.5 12.5317C19.0013 12.8489 16.25 15.7951 16.25 19.375C16.25 19.586 16.2629 19.7938 16.2816 20H2.50002C1.81096 20 1.25004 19.4391 1.25004 18.7501V6.25002C1.25004 6.07301 1.28912 5.90584 1.3558 5.75314L10.6654 13.3875C11.0291 13.6249 11.4472 13.7501 11.8751 13.7501C12.2865 13.7501 12.6887 13.6341 13.0427 13.4144C13.0781 13.3955 13.1116 13.3729 13.1434 13.3467L22.3942 5.75303C22.4609 5.90584 22.5001 6.07301 22.5001 6.25008V12.5317H22.5ZM23.125 21.25C22.0911 21.25 21.25 20.409 21.25 19.375C21.25 18.3411 22.0911 17.5 23.125 17.5C24.159 17.5 25 18.3411 25 19.375C25 20.409 24.159 21.25 23.125 21.25Z"/></symbol><symbol viewBox="0 0 623 296" id="main-title" xmlns="http://www.w3.org/2000/svg"><mask id="gpath-1-outside-1_79_971" maskUnits="userSpaceOnUse" x="167" y="129" width="419" height="126"><rect x="167" y="129" width="419" height="126"/><path d="M230.04 252.8C221.72 252.8 213.827 251.2 206.36 248C199 244.8 192.547 240.48 187 235.04C181.56 229.493 177.24 223.04 174.04 215.68C170.84 208.32 169.24 200.427 169.24 192C169.24 183.68 170.84 175.84 174.04 168.48C177.24 161.12 181.56 154.72 187 149.28C192.547 143.733 199 139.36 206.36 136.16C213.827 132.96 221.72 131.36 230.04 131.36C236.653 131.36 243 132.373 249.08 134.4C255.16 136.427 260.707 139.307 265.72 143.04C270.84 146.667 275.267 151.04 279 156.16C282.84 161.28 285.773 166.987 287.8 173.28L249.24 178.4C247 175.307 244.173 172.853 240.76 171.04C237.347 169.227 233.773 168.32 230.04 168.32C226.84 168.32 223.8 168.96 220.92 170.24C218.147 171.413 215.693 173.067 213.56 175.2C211.427 177.333 209.72 179.84 208.44 182.72C207.267 185.6 206.68 188.693 206.68 192C206.68 195.2 207.267 198.293 208.44 201.28C209.72 204.16 211.427 206.667 213.56 208.8C215.693 210.933 218.147 212.64 220.92 213.92C223.8 215.2 226.84 215.84 230.04 215.84C233.773 215.84 237.347 214.933 240.76 213.12C244.173 211.307 247 208.853 249.24 205.76L287.8 210.88C285.773 217.067 282.84 222.773 279 228C275.267 233.12 270.84 237.547 265.72 241.28C260.707 244.907 255.16 247.733 249.08 249.76C243 251.787 236.653 252.8 230.04 252.8ZM336.561 136V210.72H355.281V136H392.561V210.72H411.281V136H448.561V248H299.281V136H336.561ZM545.585 136L582.865 248H543.665L540.625 238.72H498.705L495.665 248H456.465L493.745 136H545.585ZM508.145 210.72H531.345L519.665 175.84L508.145 210.72Z"/></mask><path d="M206.36 248L205.563 249.834L205.572 249.838L206.36 248ZM187 235.04L185.572 236.44L185.586 236.454L185.6 236.468L187 235.04ZM174.04 215.68L172.206 216.477L174.04 215.68ZM174.04 168.48L175.874 169.277L174.04 168.48ZM187 149.28L185.586 147.866L187 149.28ZM206.36 136.16L205.572 134.322L205.563 134.326L206.36 136.16ZM249.08 134.4L249.712 132.503L249.08 134.4ZM265.72 143.04L264.525 144.644L264.545 144.658L264.564 144.672L265.72 143.04ZM279 156.16L277.384 157.338L277.392 157.349L277.4 157.36L279 156.16ZM287.8 173.28L288.063 175.263L290.438 174.947L289.704 172.667L287.8 173.28ZM249.24 178.4L247.62 179.573L248.32 180.54L249.503 180.383L249.24 178.4ZM240.76 171.04L241.698 169.274L240.76 171.04ZM220.92 170.24L221.699 172.082L221.716 172.075L221.732 172.068L220.92 170.24ZM213.56 175.2L214.974 176.614L213.56 175.2ZM208.44 182.72L206.612 181.908L206.6 181.936L206.588 181.965L208.44 182.72ZM208.44 201.28L206.578 202.011L206.595 202.052L206.612 202.092L208.44 201.28ZM213.56 208.8L212.146 210.214L213.56 208.8ZM220.92 213.92L220.082 215.736L220.095 215.742L220.108 215.748L220.92 213.92ZM240.76 213.12L241.698 214.886L240.76 213.12ZM249.24 205.76L249.503 203.777L248.32 203.62L247.62 204.587L249.24 205.76ZM287.8 210.88L289.701 211.503L290.45 209.214L288.063 208.897L287.8 210.88ZM279 228L277.388 226.816L277.384 226.822L279 228ZM265.72 241.28L266.892 242.9L266.898 242.896L265.72 241.28ZM249.08 249.76L249.712 251.657L249.08 249.76ZM230.04 250.8C221.984 250.8 214.359 249.252 207.148 246.162L205.572 249.838C213.294 253.148 221.456 254.8 230.04 254.8V250.8ZM207.157 246.166C200.014 243.06 193.767 238.875 188.4 233.612L185.6 236.468C191.326 242.085 197.986 246.54 205.563 249.834L207.157 246.166ZM188.428 233.64C183.165 228.273 178.98 222.026 175.874 214.883L172.206 216.477C175.5 224.054 179.955 230.714 185.572 236.44L188.428 233.64ZM175.874 214.883C172.789 207.787 171.24 200.166 171.24 192H167.24C167.24 200.687 168.891 208.853 172.206 216.477L175.874 214.883ZM171.24 192C171.24 183.944 172.788 176.377 175.874 169.277L172.206 167.683C168.892 175.303 167.24 183.416 167.24 192H171.24ZM175.874 169.277C178.978 162.137 183.159 155.949 188.414 150.694L185.586 147.866C179.961 153.491 175.502 160.103 172.206 167.683L175.874 169.277ZM188.414 150.694C193.779 145.329 200.022 141.096 207.157 137.994L205.563 134.326C197.978 137.624 191.314 142.138 185.586 147.866L188.414 150.694ZM207.148 137.998C214.359 134.908 221.984 133.36 230.04 133.36V129.36C221.456 129.36 213.294 131.012 205.572 134.322L207.148 137.998ZM230.04 133.36C236.445 133.36 242.578 134.341 248.448 136.297L249.712 132.503C243.422 130.406 236.861 129.36 230.04 129.36V133.36ZM248.448 136.297C254.331 138.258 259.687 141.041 264.525 144.644L266.915 141.436C261.726 137.572 255.989 134.595 249.712 132.503L248.448 136.297ZM264.564 144.672C269.505 148.172 273.777 152.392 277.384 157.338L280.616 154.982C276.756 149.688 272.175 145.161 266.876 141.408L264.564 144.672ZM277.4 157.36C281.103 162.297 283.935 167.804 285.896 173.893L289.704 172.667C287.611 166.17 284.577 160.263 280.6 154.96L277.4 157.36ZM287.537 171.297L248.977 176.417L249.503 180.383L288.063 175.263L287.537 171.297ZM250.86 177.227C248.439 173.883 245.378 171.228 241.698 169.274L239.822 172.806C242.969 174.478 245.561 176.73 247.62 179.573L250.86 177.227ZM241.698 169.274C238.007 167.313 234.112 166.32 230.04 166.32V170.32C233.434 170.32 236.687 171.141 239.822 172.806L241.698 169.274ZM230.04 166.32C226.565 166.32 223.247 167.017 220.108 168.412L221.732 172.068C224.353 170.903 227.115 170.32 230.04 170.32V166.32ZM220.141 168.398C217.13 169.672 214.461 171.471 212.146 173.786L214.974 176.614C216.926 174.663 219.164 173.155 221.699 172.082L220.141 168.398ZM212.146 173.786C209.831 176.1 207.988 178.814 206.612 181.908L210.268 183.532C211.452 180.866 213.022 178.566 214.974 176.614L212.146 173.786ZM206.588 181.965C205.311 185.1 204.68 188.451 204.68 192H208.68C208.68 188.935 209.223 186.1 210.292 183.475L206.588 181.965ZM204.68 192C204.68 195.451 205.314 198.792 206.578 202.011L210.302 200.549C209.219 197.794 208.68 194.949 208.68 192H204.68ZM206.612 202.092C207.988 205.186 209.831 207.9 212.146 210.214L214.974 207.386C213.022 205.434 211.452 203.134 210.268 200.468L206.612 202.092ZM212.146 210.214C214.448 212.516 217.097 214.358 220.082 215.736L221.758 212.104C219.196 210.922 216.939 209.35 214.974 207.386L212.146 210.214ZM220.108 215.748C223.247 217.143 226.565 217.84 230.04 217.84V213.84C227.115 213.84 224.353 213.257 221.732 212.092L220.108 215.748ZM230.04 217.84C234.112 217.84 238.007 216.847 241.698 214.886L239.822 211.354C236.687 213.019 233.434 213.84 230.04 213.84V217.84ZM241.698 214.886C245.378 212.932 248.439 210.277 250.86 206.933L247.62 204.587C245.561 207.43 242.969 209.682 239.822 211.354L241.698 214.886ZM248.977 207.743L287.537 212.863L288.063 208.897L249.503 203.777L248.977 207.743ZM285.899 210.257C283.938 216.244 281.102 221.761 277.388 226.816L280.612 229.184C284.578 223.786 287.608 217.89 289.701 211.503L285.899 210.257ZM277.384 226.822C273.773 231.774 269.494 236.053 264.542 239.664L266.898 242.896C272.186 239.04 276.76 234.466 280.616 229.178L277.384 226.822ZM264.548 239.66C259.705 243.163 254.342 245.898 248.448 247.863L249.712 251.657C255.978 249.569 261.708 246.651 266.892 242.9L264.548 239.66ZM248.448 247.863C242.578 249.819 236.445 250.8 230.04 250.8V254.8C236.861 254.8 243.422 253.754 249.712 251.657L248.448 247.863ZM336.561 136H338.561V134H336.561V136ZM336.561 210.72H334.561V212.72H336.561V210.72ZM355.281 210.72V212.72H357.281V210.72H355.281ZM355.281 136V134H353.281V136H355.281ZM392.561 136H394.561V134H392.561V136ZM392.561 210.72H390.561V212.72H392.561V210.72ZM411.281 210.72V212.72H413.281V210.72H411.281ZM411.281 136V134H409.281V136H411.281ZM448.561 136H450.561V134H448.561V136ZM448.561 248V250H450.561V248H448.561ZM299.281 248H297.281V250H299.281V248ZM299.281 136V134H297.281V136H299.281ZM334.561 136V210.72H338.561V136H334.561ZM336.561 212.72H355.281V208.72H336.561V212.72ZM357.281 210.72V136H353.281V210.72H357.281ZM355.281 138H392.561V134H355.281V138ZM390.561 136V210.72H394.561V136H390.561ZM392.561 212.72H411.281V208.72H392.561V212.72ZM413.281 210.72V136H409.281V210.72H413.281ZM411.281 138H448.561V134H411.281V138ZM446.561 136V248H450.561V136H446.561ZM448.561 246H299.281V250H448.561V246ZM301.281 248V136H297.281V248H301.281ZM299.281 138H336.561V134H299.281V138ZM545.585 136L547.483 135.368L547.027 134H545.585V136ZM582.865 248V250H585.639L584.763 247.368L582.865 248ZM543.665 248L541.764 248.623L542.216 250H543.665V248ZM540.625 238.72L542.526 238.097L542.074 236.72H540.625V238.72ZM498.705 238.72V236.72H497.256L496.804 238.097L498.705 238.72ZM495.665 248V250H497.114L497.566 248.623L495.665 248ZM456.465 248L454.567 247.368L453.691 250H456.465V248ZM493.745 136V134H492.303L491.847 135.368L493.745 136ZM508.145 210.72L506.246 210.093L505.378 212.72H508.145V210.72ZM531.345 210.72V212.72H534.124L533.241 210.085L531.345 210.72ZM519.665 175.84L521.561 175.205L519.652 169.502L517.766 175.213L519.665 175.84ZM543.687 136.632L580.967 248.632L584.763 247.368L547.483 135.368L543.687 136.632ZM582.865 246H543.665V250H582.865V246ZM545.566 247.377L542.526 238.097L538.724 239.343L541.764 248.623L545.566 247.377ZM540.625 236.72H498.705V240.72H540.625V236.72ZM496.804 238.097L493.764 247.377L497.566 248.623L500.606 239.343L496.804 238.097ZM495.665 246H456.465V250H495.665V246ZM458.363 248.632L495.643 136.632L491.847 135.368L454.567 247.368L458.363 248.632ZM493.745 138H545.585V134H493.745V138ZM508.145 212.72H531.345V208.72H508.145V212.72ZM533.241 210.085L521.561 175.205L517.769 176.475L529.449 211.355L533.241 210.085ZM517.766 175.213L506.246 210.093L510.044 211.347L521.564 176.467L517.766 175.213Z" mask="url(#gpath-1-outside-1_79_971)"/><mask id="gpath-3-outside-2_79_971" maskUnits="userSpaceOnUse" x="0" y="2" width="545" height="116"><rect y="2" width="545" height="116"/><path d="M36.36 6L50.34 48H35.64L34.5 44.52H18.78L17.64 48H2.94L16.92 6H36.36ZM22.32 34.02H31.02L26.64 20.94L22.32 34.02ZM55.7166 48V6H84.5766C86.6166 6 88.4566 6.34 90.0966 7.02C91.7366 7.7 93.1166 8.6 94.2366 9.72C95.3966 10.84 96.2766 12.14 96.8766 13.62C97.4766 15.1 97.7766 16.66 97.7766 18.3C97.7766 20.1 97.4366 21.76 96.7566 23.28C96.0766 24.76 95.2166 25.98 94.1766 26.94C95.2166 27.9 96.0366 29.14 96.6366 30.66C97.2766 32.18 97.5966 33.82 97.5966 35.58C97.5966 37.22 97.2966 38.8 96.6966 40.32C96.1366 41.8 95.2966 43.12 94.1766 44.28C93.0566 45.4 91.6766 46.3 90.0366 46.98C88.4366 47.66 86.6166 48 84.5766 48H55.7166ZM69.8166 21.72H81.0366C81.7566 21.72 82.3766 21.48 82.8966 21C83.4166 20.48 83.6766 19.84 83.6766 19.08C83.6766 18.36 83.4166 17.76 82.8966 17.28C82.3766 16.76 81.7566 16.5 81.0366 16.5H69.8166V21.72ZM69.8166 37.5H81.0366C81.7566 37.5 82.3766 37.24 82.8966 36.72C83.4166 36.2 83.6766 35.56 83.6766 34.8C83.6766 34.08 83.4166 33.48 82.8966 33C82.3766 32.48 81.7566 32.22 81.0366 32.22H69.8166V37.5ZM145.747 6V19.98H131.767V48H117.727V19.98H103.747V6H145.747ZM172.747 49.8C169.627 49.8 166.667 49.2 163.867 48C161.107 46.8 158.687 45.18 156.607 43.14C154.567 41.06 152.947 38.64 151.747 35.88C150.547 33.12 149.947 30.18 149.947 27.06C149.947 23.94 150.547 21 151.747 18.24C152.947 15.44 154.567 13.02 156.607 10.98C158.687 8.9 161.107 7.26 163.867 6.06C166.667 4.86 169.627 4.26 172.747 4.26C175.867 4.26 178.807 4.86 181.567 6.06C184.327 7.26 186.727 8.9 188.767 10.98C190.847 13.02 192.487 15.44 193.687 18.24C194.887 21 195.487 23.94 195.487 27.06C195.487 30.18 194.887 33.12 193.687 35.88C192.487 38.64 190.847 41.06 188.767 43.14C186.727 45.18 184.327 46.8 181.567 48C178.807 49.2 175.867 49.8 172.747 49.8ZM172.747 35.94C173.947 35.94 175.067 35.72 176.107 35.28C177.187 34.8 178.127 34.16 178.927 33.36C179.727 32.56 180.347 31.62 180.787 30.54C181.267 29.46 181.507 28.3 181.507 27.06C181.507 25.82 181.267 24.66 180.787 23.58C180.347 22.5 179.727 21.56 178.927 20.76C178.127 19.92 177.187 19.28 176.107 18.84C175.067 18.36 173.947 18.12 172.747 18.12C171.547 18.12 170.407 18.36 169.327 18.84C168.247 19.28 167.307 19.92 166.507 20.76C165.707 21.56 165.067 22.5 164.587 23.58C164.147 24.66 163.927 25.82 163.927 27.06C163.927 28.3 164.147 29.46 164.587 30.54C165.067 31.62 165.707 32.56 166.507 33.36C167.307 34.16 168.247 34.8 169.327 35.28C170.407 35.72 171.547 35.94 172.747 35.94Z"/><path d="M216.659 6L232.979 22.56L249.299 6H263.279V48H249.299V25.32L232.979 40.98L216.659 25.32V48H202.679V6H216.659ZM292.128 49.8C289.008 49.8 286.048 49.2 283.248 48C280.488 46.8 278.068 45.18 275.988 43.14C273.948 41.06 272.328 38.64 271.128 35.88C269.928 33.12 269.328 30.18 269.328 27.06C269.328 23.94 269.928 21 271.128 18.24C272.328 15.44 273.948 13.02 275.988 10.98C278.068 8.9 280.488 7.26 283.248 6.06C286.048 4.86 289.008 4.26 292.128 4.26C295.248 4.26 298.188 4.86 300.948 6.06C303.708 7.26 306.108 8.9 308.148 10.98C310.228 13.02 311.868 15.44 313.068 18.24C314.268 21 314.868 23.94 314.868 27.06C314.868 30.18 314.268 33.12 313.068 35.88C311.868 38.64 310.228 41.06 308.148 43.14C306.108 45.18 303.708 46.8 300.948 48C298.188 49.2 295.248 49.8 292.128 49.8ZM292.128 35.94C293.328 35.94 294.448 35.72 295.488 35.28C296.568 34.8 297.508 34.16 298.308 33.36C299.108 32.56 299.728 31.62 300.168 30.54C300.648 29.46 300.888 28.3 300.888 27.06C300.888 25.82 300.648 24.66 300.168 23.58C299.728 22.5 299.108 21.56 298.308 20.76C297.508 19.92 296.568 19.28 295.488 18.84C294.448 18.36 293.328 18.12 292.128 18.12C290.928 18.12 289.788 18.36 288.708 18.84C287.628 19.28 286.688 19.92 285.888 20.76C285.088 21.56 284.448 22.5 283.968 23.58C283.528 24.66 283.308 25.82 283.308 27.06C283.308 28.3 283.528 29.46 283.968 30.54C284.448 31.62 285.088 32.56 285.888 33.36C286.688 34.16 287.628 34.8 288.708 35.28C289.788 35.72 290.928 35.94 292.128 35.94ZM320.948 6H359.468V16.5H334.928V21.72H349.808C351.608 21.72 353.308 22.08 354.908 22.8C356.508 23.48 357.908 24.42 359.108 25.62C360.308 26.78 361.248 28.16 361.928 29.76C362.608 31.36 362.948 33.06 362.948 34.86C362.948 36.66 362.608 38.36 361.928 39.96C361.248 41.56 360.308 42.96 359.108 44.16C357.908 45.36 356.508 46.3 354.908 46.98C353.308 47.66 351.608 48 349.808 48H320.948V6ZM334.928 32.22V37.5H346.328C347.048 37.5 347.668 37.24 348.188 36.72C348.708 36.2 348.968 35.58 348.968 34.86C348.968 34.14 348.708 33.52 348.188 33C347.668 32.48 347.048 32.22 346.328 32.22H334.928ZM397.585 48V28.08L383.545 48H369.565V6H383.545V25.92L397.585 6H411.565V48H397.585ZM449.905 6L463.885 48H449.125L440.125 20.94L431.125 48H416.365L430.345 6H449.905ZM497.279 48V28.08L483.239 48H469.259V6H483.239V25.92L497.279 6H511.259V48H497.279ZM16.92 72V85.98H30.96V72H44.94V114H30.96V100.02H16.92V114H2.94V72H16.92ZM83.16 72L97.14 114H82.44L81.3 110.52H65.58L64.44 114H49.74L63.72 72H83.16ZM69.12 100.02H77.82L73.44 86.94L69.12 100.02ZM144.577 72V114H130.597V85.98H116.557V114H102.577V72H144.577ZM152.305 114V72H176.785C179.185 72 181.445 72.46 183.565 73.38C185.725 74.3 187.585 75.56 189.145 77.16C190.745 78.72 192.005 80.58 192.925 82.74C193.845 84.86 194.305 87.12 194.305 89.52C194.305 91.92 193.845 94.18 192.925 96.3C192.005 98.42 190.745 100.28 189.145 101.88C187.585 103.44 185.725 104.68 183.565 105.6C181.445 106.52 179.185 106.98 176.785 106.98H166.285V114H152.305ZM166.285 93H176.785C177.785 93 178.625 92.66 179.305 91.98C179.985 91.3 180.325 90.48 180.325 89.52C180.325 88.52 179.985 87.68 179.305 87C178.625 86.32 177.785 85.98 176.785 85.98H166.285V93ZM217.257 72H241.737V114H227.757V106.98H223.557L218.637 114H203.217L209.397 105.18C207.957 104.46 206.637 103.56 205.437 102.48C204.277 101.4 203.277 100.18 202.437 98.82C201.597 97.46 200.937 96 200.457 94.44C199.977 92.88 199.737 91.24 199.737 89.52C199.737 87.12 200.197 84.86 201.117 82.74C202.037 80.58 203.277 78.72 204.837 77.16C206.437 75.56 208.297 74.3 210.417 73.38C212.577 72.46 214.857 72 217.257 72ZM217.257 85.98C216.257 85.98 215.417 86.32 214.737 87C214.057 87.68 213.717 88.52 213.717 89.52C213.717 90.48 214.057 91.3 214.737 91.98C215.417 92.66 216.257 93 217.257 93H227.757V85.98H217.257ZM263.459 72L279.779 88.56L296.099 72H310.079V114H296.099V91.32L279.779 106.98L263.459 91.32V114H249.479V72H263.459ZM330.198 72L337.218 93H341.238L348.198 72H362.898L348.918 114H334.218L336.558 106.98H327.138L315.498 72H330.198ZM368.334 72H382.314V88.02H386.334C386.894 85.5 387.854 83.16 389.214 81C390.614 78.8 392.274 76.92 394.194 75.36C396.154 73.76 398.354 72.52 400.794 71.64C403.234 70.72 405.814 70.26 408.534 70.26C411.654 70.26 414.594 70.86 417.354 72.06C420.114 73.26 422.514 74.9 424.554 76.98C426.634 79.02 428.274 81.44 429.474 84.24C430.674 87 431.274 89.94 431.274 93.06C431.274 96.18 430.674 99.12 429.474 101.88C428.274 104.64 426.634 107.06 424.554 109.14C422.514 111.18 420.114 112.8 417.354 114C414.594 115.2 411.654 115.8 408.534 115.8C405.814 115.8 403.234 115.34 400.794 114.42C398.354 113.54 396.154 112.3 394.194 110.7C392.234 109.1 390.554 107.22 389.154 105.06C387.794 102.9 386.834 100.54 386.274 97.98H382.314V114H368.334V72ZM408.534 101.94C409.734 101.94 410.854 101.72 411.894 101.28C412.974 100.8 413.914 100.16 414.714 99.36C415.514 98.56 416.134 97.62 416.574 96.54C417.054 95.46 417.294 94.3 417.294 93.06C417.294 91.82 417.054 90.66 416.574 89.58C416.134 88.5 415.514 87.56 414.714 86.76C413.914 85.92 412.974 85.28 411.894 84.84C410.854 84.36 409.734 84.12 408.534 84.12C407.334 84.12 406.194 84.36 405.114 84.84C404.034 85.28 403.094 85.92 402.294 86.76C401.494 87.56 400.854 88.5 400.374 89.58C399.934 90.66 399.714 91.82 399.714 93.06C399.714 94.3 399.934 95.46 400.374 96.54C400.854 97.62 401.494 98.56 402.294 99.36C403.094 100.16 404.034 100.8 405.114 101.28C406.194 101.72 407.334 101.94 408.534 101.94ZM483.861 114V94.08L469.821 114H455.841V72H469.821V91.92L483.861 72H497.841V114H483.861ZM505.029 72H529.329C531.369 72 533.189 72.34 534.789 73.02C536.429 73.7 537.809 74.6 538.929 75.72C540.049 76.84 540.909 78.14 541.509 79.62C542.109 81.1 542.409 82.64 542.409 84.24C542.409 86.28 541.989 88.02 541.149 89.46C540.349 90.86 539.409 92.02 538.329 92.94C539.409 93.86 540.349 95.04 541.149 96.48C541.989 97.92 542.409 99.66 542.409 101.7C542.409 103.3 542.109 104.86 541.509 106.38C540.909 107.86 540.049 109.16 538.929 110.28C537.809 111.4 536.429 112.3 534.789 112.98C533.189 113.66 531.369 114 529.329 114H505.029V103.5H525.789C526.509 103.5 527.129 103.24 527.649 102.72C528.169 102.2 528.429 101.56 528.429 100.8C528.429 100.08 528.169 99.48 527.649 99C527.129 98.48 526.509 98.22 525.789 98.22H508.509V87.72H525.789C526.509 87.72 527.129 87.48 527.649 87C528.169 86.48 528.429 85.84 528.429 85.08C528.429 84.36 528.169 83.76 527.649 83.28C527.129 82.76 526.509 82.5 525.789 82.5H505.029V72Z"/></mask><path d="M216.659 6L232.979 22.56L249.299 6H263.279V48H249.299V25.32L232.979 40.98L216.659 25.32V48H202.679V6H216.659ZM292.128 49.8C289.008 49.8 286.048 49.2 283.248 48C280.488 46.8 278.068 45.18 275.988 43.14C273.948 41.06 272.328 38.64 271.128 35.88C269.928 33.12 269.328 30.18 269.328 27.06C269.328 23.94 269.928 21 271.128 18.24C272.328 15.44 273.948 13.02 275.988 10.98C278.068 8.9 280.488 7.26 283.248 6.06C286.048 4.86 289.008 4.26 292.128 4.26C295.248 4.26 298.188 4.86 300.948 6.06C303.708 7.26 306.108 8.9 308.148 10.98C310.228 13.02 311.868 15.44 313.068 18.24C314.268 21 314.868 23.94 314.868 27.06C314.868 30.18 314.268 33.12 313.068 35.88C311.868 38.64 310.228 41.06 308.148 43.14C306.108 45.18 303.708 46.8 300.948 48C298.188 49.2 295.248 49.8 292.128 49.8ZM292.128 35.94C293.328 35.94 294.448 35.72 295.488 35.28C296.568 34.8 297.508 34.16 298.308 33.36C299.108 32.56 299.728 31.62 300.168 30.54C300.648 29.46 300.888 28.3 300.888 27.06C300.888 25.82 300.648 24.66 300.168 23.58C299.728 22.5 299.108 21.56 298.308 20.76C297.508 19.92 296.568 19.28 295.488 18.84C294.448 18.36 293.328 18.12 292.128 18.12C290.928 18.12 289.788 18.36 288.708 18.84C287.628 19.28 286.688 19.92 285.888 20.76C285.088 21.56 284.448 22.5 283.968 23.58C283.528 24.66 283.308 25.82 283.308 27.06C283.308 28.3 283.528 29.46 283.968 30.54C284.448 31.62 285.088 32.56 285.888 33.36C286.688 34.16 287.628 34.8 288.708 35.28C289.788 35.72 290.928 35.94 292.128 35.94ZM320.948 6H359.468V16.5H334.928V21.72H349.808C351.608 21.72 353.308 22.08 354.908 22.8C356.508 23.48 357.908 24.42 359.108 25.62C360.308 26.78 361.248 28.16 361.928 29.76C362.608 31.36 362.948 33.06 362.948 34.86C362.948 36.66 362.608 38.36 361.928 39.96C361.248 41.56 360.308 42.96 359.108 44.16C357.908 45.36 356.508 46.3 354.908 46.98C353.308 47.66 351.608 48 349.808 48H320.948V6ZM334.928 32.22V37.5H346.328C347.048 37.5 347.668 37.24 348.188 36.72C348.708 36.2 348.968 35.58 348.968 34.86C348.968 34.14 348.708 33.52 348.188 33C347.668 32.48 347.048 32.22 346.328 32.22H334.928ZM397.585 48V28.08L383.545 48H369.565V6H383.545V25.92L397.585 6H411.565V48H397.585ZM449.905 6L463.885 48H449.125L440.125 20.94L431.125 48H416.365L430.345 6H449.905ZM497.279 48V28.08L483.239 48H469.259V6H483.239V25.92L497.279 6H511.259V48H497.279ZM16.92 72V85.98H30.96V72H44.94V114H30.96V100.02H16.92V114H2.94V72H16.92ZM83.16 72L97.14 114H82.44L81.3 110.52H65.58L64.44 114H49.74L63.72 72H83.16ZM69.12 100.02H77.82L73.44 86.94L69.12 100.02ZM144.577 72V114H130.597V85.98H116.557V114H102.577V72H144.577ZM152.305 114V72H176.785C179.185 72 181.445 72.46 183.565 73.38C185.725 74.3 187.585 75.56 189.145 77.16C190.745 78.72 192.005 80.58 192.925 82.74C193.845 84.86 194.305 87.12 194.305 89.52C194.305 91.92 193.845 94.18 192.925 96.3C192.005 98.42 190.745 100.28 189.145 101.88C187.585 103.44 185.725 104.68 183.565 105.6C181.445 106.52 179.185 106.98 176.785 106.98H166.285V114H152.305ZM166.285 93H176.785C177.785 93 178.625 92.66 179.305 91.98C179.985 91.3 180.325 90.48 180.325 89.52C180.325 88.52 179.985 87.68 179.305 87C178.625 86.32 177.785 85.98 176.785 85.98H166.285V93ZM217.257 72H241.737V114H227.757V106.98H223.557L218.637 114H203.217L209.397 105.18C207.957 104.46 206.637 103.56 205.437 102.48C204.277 101.4 203.277 100.18 202.437 98.82C201.597 97.46 200.937 96 200.457 94.44C199.977 92.88 199.737 91.24 199.737 89.52C199.737 87.12 200.197 84.86 201.117 82.74C202.037 80.58 203.277 78.72 204.837 77.16C206.437 75.56 208.297 74.3 210.417 73.38C212.577 72.46 214.857 72 217.257 72ZM217.257 85.98C216.257 85.98 215.417 86.32 214.737 87C214.057 87.68 213.717 88.52 213.717 89.52C213.717 90.48 214.057 91.3 214.737 91.98C215.417 92.66 216.257 93 217.257 93H227.757V85.98H217.257ZM263.459 72L279.779 88.56L296.099 72H310.079V114H296.099V91.32L279.779 106.98L263.459 91.32V114H249.479V72H263.459ZM330.198 72L337.218 93H341.238L348.198 72H362.898L348.918 114H334.218L336.558 106.98H327.138L315.498 72H330.198ZM368.334 72H382.314V88.02H386.334C386.894 85.5 387.854 83.16 389.214 81C390.614 78.8 392.274 76.92 394.194 75.36C396.154 73.76 398.354 72.52 400.794 71.64C403.234 70.72 405.814 70.26 408.534 70.26C411.654 70.26 414.594 70.86 417.354 72.06C420.114 73.26 422.514 74.9 424.554 76.98C426.634 79.02 428.274 81.44 429.474 84.24C430.674 87 431.274 89.94 431.274 93.06C431.274 96.18 430.674 99.12 429.474 101.88C428.274 104.64 426.634 107.06 424.554 109.14C422.514 111.18 420.114 112.8 417.354 114C414.594 115.2 411.654 115.8 408.534 115.8C405.814 115.8 403.234 115.34 400.794 114.42C398.354 113.54 396.154 112.3 394.194 110.7C392.234 109.1 390.554 107.22 389.154 105.06C387.794 102.9 386.834 100.54 386.274 97.98H382.314V114H368.334V72ZM408.534 101.94C409.734 101.94 410.854 101.72 411.894 101.28C412.974 100.8 413.914 100.16 414.714 99.36C415.514 98.56 416.134 97.62 416.574 96.54C417.054 95.46 417.294 94.3 417.294 93.06C417.294 91.82 417.054 90.66 416.574 89.58C416.134 88.5 415.514 87.56 414.714 86.76C413.914 85.92 412.974 85.28 411.894 84.84C410.854 84.36 409.734 84.12 408.534 84.12C407.334 84.12 406.194 84.36 405.114 84.84C404.034 85.28 403.094 85.92 402.294 86.76C401.494 87.56 400.854 88.5 400.374 89.58C399.934 90.66 399.714 91.82 399.714 93.06C399.714 94.3 399.934 95.46 400.374 96.54C400.854 97.62 401.494 98.56 402.294 99.36C403.094 100.16 404.034 100.8 405.114 101.28C406.194 101.72 407.334 101.94 408.534 101.94ZM483.861 114V94.08L469.821 114H455.841V72H469.821V91.92L483.861 72H497.841V114H483.861ZM505.029 72H529.329C531.369 72 533.189 72.34 534.789 73.02C536.429 73.7 537.809 74.6 538.929 75.72C540.049 76.84 540.909 78.14 541.509 79.62C542.109 81.1 542.409 82.64 542.409 84.24C542.409 86.28 541.989 88.02 541.149 89.46C540.349 90.86 539.409 92.02 538.329 92.94C539.409 93.86 540.349 95.04 541.149 96.48C541.989 97.92 542.409 99.66 542.409 101.7C542.409 103.3 542.109 104.86 541.509 106.38C540.909 107.86 540.049 109.16 538.929 110.28C537.809 111.4 536.429 112.3 534.789 112.98C533.189 113.66 531.369 114 529.329 114H505.029V103.5H525.789C526.509 103.5 527.129 103.24 527.649 102.72C528.169 102.2 528.429 101.56 528.429 100.8C528.429 100.08 528.169 99.48 527.649 99C527.129 98.48 526.509 98.22 525.789 98.22H508.509V87.72H525.789C526.509 87.72 527.129 87.48 527.649 87C528.169 86.48 528.429 85.84 528.429 85.08C528.429 84.36 528.169 83.76 527.649 83.28C527.129 82.76 526.509 82.5 525.789 82.5H505.029V72Z"/><path d="M36.36 6L38.2576 5.36835L37.8022 4H36.36V6ZM50.34 48V50H53.1136L52.2376 47.3684L50.34 48ZM35.64 48L33.7394 48.6226L34.1906 50H35.64V48ZM34.5 44.52L36.4006 43.8974L35.9494 42.52H34.5V44.52ZM18.78 44.52V42.52H17.3306L16.8794 43.8974L18.78 44.52ZM17.64 48V50H19.0894L19.5406 48.6226L17.64 48ZM2.94 48L1.04236 47.3684L0.166402 50H2.94V48ZM16.92 6V4H15.4778L15.0224 5.36835L16.92 6ZM22.32 34.02L20.4209 33.3928L19.5532 36.02H22.32V34.02ZM31.02 34.02V36.02H33.7989L32.9165 33.3849L31.02 34.02ZM26.64 20.94L28.5365 20.3049L26.6269 14.6023L24.7409 20.3128L26.64 20.94ZM34.4624 6.63164L48.4424 48.6316L52.2376 47.3684L38.2576 5.36835L34.4624 6.63164ZM50.34 46H35.64V50H50.34V46ZM37.5406 47.3774L36.4006 43.8974L32.5994 45.1426L33.7394 48.6226L37.5406 47.3774ZM34.5 42.52H18.78V46.52H34.5V42.52ZM16.8794 43.8974L15.7394 47.3774L19.5406 48.6226L20.6806 45.1426L16.8794 43.8974ZM17.64 46H2.94V50H17.64V46ZM4.83764 48.6316L18.8176 6.63164L15.0224 5.36835L1.04236 47.3684L4.83764 48.6316ZM16.92 8H36.36V4H16.92V8ZM22.32 36.02H31.02V32.02H22.32V36.02ZM32.9165 33.3849L28.5365 20.3049L24.7435 21.5751L29.1235 34.6551L32.9165 33.3849ZM24.7409 20.3128L20.4209 33.3928L24.2191 34.6472L28.5391 21.5672L24.7409 20.3128ZM55.7166 48H53.7166V50H55.7166V48ZM55.7166 6V4H53.7166V6H55.7166ZM94.2366 9.72L92.8223 11.1342L92.8348 11.1466L92.8474 11.1588L94.2366 9.72ZM96.8766 13.62L95.0231 14.3714V14.3714L96.8766 13.62ZM96.7566 23.28L98.5739 24.115L98.5781 24.1059L98.5822 24.0967L96.7566 23.28ZM94.1766 26.94L92.82 25.4704L91.2279 26.94L92.82 28.4096L94.1766 26.94ZM96.6366 30.66L94.7763 31.3943L94.7845 31.4153L94.7933 31.4361L96.6366 30.66ZM96.6966 40.32L94.8363 39.5857L94.831 39.5989L94.826 39.6122L96.6966 40.32ZM94.1766 44.28L95.5908 45.6942L95.6032 45.6818L95.6154 45.6692L94.1766 44.28ZM90.0366 46.98L89.2705 45.1325L89.2624 45.1359L89.2543 45.1393L90.0366 46.98ZM69.8166 21.72H67.8166V23.72H69.8166V21.72ZM82.8966 21L84.2531 22.4696L84.2825 22.4425L84.3108 22.4142L82.8966 21ZM82.8966 17.28L81.4824 18.6942L81.5106 18.7225L81.54 18.7496L82.8966 17.28ZM69.8166 16.5V14.5H67.8166V16.5H69.8166ZM69.8166 37.5H67.8166V39.5H69.8166V37.5ZM82.8966 36.72L84.3108 38.1342L82.8966 36.72ZM82.8966 33L81.4824 34.4142L81.5106 34.4425L81.54 34.4696L82.8966 33ZM69.8166 32.22V30.22H67.8166V32.22H69.8166ZM57.7166 48V6H53.7166V48H57.7166ZM55.7166 8H84.5766V4H55.7166V8ZM84.5766 8C86.3925 8 87.9669 8.30205 89.3305 8.86748L90.8626 5.17251C88.9463 4.37794 86.8406 4 84.5766 4V8ZM89.3305 8.86748C90.7574 9.45911 91.909 10.2209 92.8223 11.1342L95.6508 8.30579C94.3241 6.97909 92.7157 5.94089 90.8626 5.17251L89.3305 8.86748ZM92.8474 11.1588C93.8083 12.0866 94.5292 13.153 95.0231 14.3714L98.73 12.8686C98.024 11.127 96.9848 9.59343 95.6258 8.2812L92.8474 11.1588ZM95.0231 14.3714C95.5237 15.6062 95.7766 16.9105 95.7766 18.3H99.7766C99.7766 16.4095 99.4294 14.5938 98.73 12.8686L95.0231 14.3714ZM95.7766 18.3C95.7766 19.8416 95.4869 21.2205 94.9309 22.4633L98.5822 24.0967C99.3862 22.2995 99.7766 20.3584 99.7766 18.3H95.7766ZM94.9392 22.445C94.353 23.721 93.639 24.7144 92.82 25.4704L95.5331 28.4096C96.7941 27.2456 97.8002 25.799 98.5739 24.115L94.9392 22.445ZM92.82 28.4096C93.6071 29.1362 94.2697 30.111 94.7763 31.3943L98.4969 29.9257C97.8035 28.169 96.826 26.6638 95.5331 25.4704L92.82 28.4096ZM94.7933 31.4361C95.323 32.6943 95.5966 34.0684 95.5966 35.58H99.5966C99.5966 33.5716 99.2301 31.6657 98.4798 29.8839L94.7933 31.4361ZM95.5966 35.58C95.5966 36.9695 95.3436 38.3004 94.8363 39.5857L98.5569 41.0543C99.2495 39.2996 99.5966 37.4705 99.5966 35.58H95.5966ZM94.826 39.6122C94.364 40.8332 93.6727 41.9225 92.7378 42.8908L95.6154 45.6692C96.9204 44.3175 97.9091 42.7668 98.5671 41.0278L94.826 39.6122ZM92.7624 42.8658C91.8491 43.7791 90.6974 44.5409 89.2705 45.1325L90.8026 48.8275C92.6557 48.0591 94.2641 47.0209 95.5908 45.6942L92.7624 42.8658ZM89.2543 45.1393C87.9408 45.6976 86.3937 46 84.5766 46V50C86.8394 50 88.9324 49.6224 90.8188 48.8207L89.2543 45.1393ZM84.5766 46H55.7166V50H84.5766V46ZM69.8166 23.72H81.0366V19.72H69.8166V23.72ZM81.0366 23.72C82.2496 23.72 83.3566 23.2972 84.2531 22.4696L81.54 19.5304C81.3965 19.6628 81.2635 19.72 81.0366 19.72V23.72ZM84.3108 22.4142C85.2197 21.5053 85.6766 20.3506 85.6766 19.08H81.6766C81.6766 19.3294 81.6135 19.4547 81.4824 19.5858L84.3108 22.4142ZM85.6766 19.08C85.6766 17.8129 85.1913 16.6764 84.2531 15.8104L81.54 18.7496C81.6418 18.8436 81.6766 18.9071 81.6766 19.08H85.6766ZM84.3108 15.8658C83.4247 14.9797 82.2996 14.5 81.0366 14.5V18.5C81.2136 18.5 81.3284 18.5403 81.4824 18.6942L84.3108 15.8658ZM81.0366 14.5H69.8166V18.5H81.0366V14.5ZM67.8166 16.5V21.72H71.8166V16.5H67.8166ZM69.8166 39.5H81.0366V35.5H69.8166V39.5ZM81.0366 39.5C82.2996 39.5 83.4247 39.0203 84.3108 38.1342L81.4824 35.3058C81.3284 35.4597 81.2136 35.5 81.0366 35.5V39.5ZM84.3108 38.1342C85.2197 37.2253 85.6766 36.0706 85.6766 34.8H81.6766C81.6766 35.0494 81.6135 35.1747 81.4824 35.3058L84.3108 38.1342ZM85.6766 34.8C85.6766 33.5329 85.1913 32.3964 84.2531 31.5304L81.54 34.4696C81.6418 34.5636 81.6766 34.6271 81.6766 34.8H85.6766ZM84.3108 31.5858C83.4247 30.6997 82.2996 30.22 81.0366 30.22V34.22C81.2136 34.22 81.3284 34.2603 81.4824 34.4142L84.3108 31.5858ZM81.0366 30.22H69.8166V34.22H81.0366V30.22ZM67.8166 32.22V37.5H71.8166V32.22H67.8166ZM145.747 6H147.747V4H145.747V6ZM145.747 19.98V21.98H147.747V19.98H145.747ZM131.767 19.98V17.98H129.767V19.98H131.767ZM131.767 48V50H133.767V48H131.767ZM117.727 48H115.727V50H117.727V48ZM117.727 19.98H119.727V17.98H117.727V19.98ZM103.747 19.98H101.747V21.98H103.747V19.98ZM103.747 6V4H101.747V6H103.747ZM143.747 6V19.98H147.747V6H143.747ZM145.747 17.98H131.767V21.98H145.747V17.98ZM129.767 19.98V48H133.767V19.98H129.767ZM131.767 46H117.727V50H131.767V46ZM119.727 48V19.98H115.727V48H119.727ZM117.727 17.98H103.747V21.98H117.727V17.98ZM105.747 19.98V6H101.747V19.98H105.747ZM103.747 8H145.747V4H103.747V8ZM163.867 48L163.07 49.8342L163.079 49.8383L163.867 48ZM156.607 43.14L155.179 44.5404L155.193 44.5543L155.207 44.5679L156.607 43.14ZM151.747 35.88L149.913 36.6775L151.747 35.88ZM151.747 18.24L153.581 19.0375L153.585 19.0278L151.747 18.24ZM156.607 10.98L155.193 9.56578L156.607 10.98ZM163.867 6.06L163.079 4.22168L163.07 4.22586L163.867 6.06ZM181.567 6.06L182.364 4.22586L182.364 4.22586L181.567 6.06ZM188.767 10.98L187.339 12.3804L187.353 12.3943L187.367 12.4079L188.767 10.98ZM193.687 18.24L191.849 19.0278L191.853 19.0375L193.687 18.24ZM193.687 35.88L191.853 35.0825L193.687 35.88ZM188.767 43.14L190.181 44.5542L188.767 43.14ZM181.567 48L182.364 49.8341L181.567 48ZM176.107 35.28L176.886 37.1219L176.903 37.1149L176.919 37.1076L176.107 35.28ZM178.927 33.36L177.513 31.9458V31.9458L178.927 33.36ZM180.787 30.54L178.959 29.7277L178.947 29.7564L178.935 29.7854L180.787 30.54ZM180.787 23.58L178.935 24.3346L178.947 24.3636L178.959 24.3923L180.787 23.58ZM178.927 20.76L177.479 22.1393L177.496 22.157L177.513 22.1742L178.927 20.76ZM176.107 18.84L175.269 20.6559L175.31 20.675L175.352 20.6922L176.107 18.84ZM169.327 18.84L170.082 20.6922L170.111 20.6804L170.139 20.6676L169.327 18.84ZM166.507 20.76L167.921 22.1742L167.938 22.157L167.955 22.1393L166.507 20.76ZM164.587 23.58L162.759 22.7677L162.747 22.7964L162.735 22.8254L164.587 23.58ZM164.587 30.54L162.735 31.2946L162.747 31.3236L162.759 31.3523L164.587 30.54ZM166.507 33.36L167.921 31.9458V31.9458L166.507 33.36ZM169.327 35.28L168.515 37.1076L168.543 37.1204L168.572 37.1322L169.327 35.28ZM172.747 47.8C169.891 47.8 167.2 47.2524 164.655 46.1617L163.079 49.8383C166.134 51.1476 169.363 51.8 172.747 51.8V47.8ZM164.664 46.1659C162.121 45.06 159.907 43.5753 158.007 41.7121L155.207 44.5679C157.467 46.7847 160.093 48.54 163.07 49.8341L164.664 46.1659ZM158.035 41.7396C156.172 39.8398 154.687 37.6259 153.581 35.0825L149.913 36.6775C151.207 39.654 152.962 42.2802 155.179 44.5404L158.035 41.7396ZM153.581 35.0825C152.495 32.5834 151.947 29.9159 151.947 27.06H147.947C147.947 30.4441 148.599 33.6566 149.913 36.6775L153.581 35.0825ZM151.947 27.06C151.947 24.2041 152.495 21.5366 153.581 19.0375L149.913 17.4425C148.599 20.4634 147.947 23.6759 147.947 27.06H151.947ZM153.585 19.0278C154.691 16.4485 156.171 14.2444 158.021 12.3942L155.193 9.56578C152.963 11.7956 151.203 14.4315 149.909 17.4522L153.585 19.0278ZM158.021 12.3942C159.92 10.4958 162.129 8.99645 164.664 7.89414L163.07 4.22586C160.085 5.52354 157.454 7.30422 155.193 9.56578L158.021 12.3942ZM164.655 7.89829C167.2 6.8076 169.891 6.26 172.747 6.26V2.26C169.363 2.26 166.134 2.9124 163.079 4.22171L164.655 7.89829ZM172.747 6.26C175.603 6.26 178.27 6.80757 180.77 7.89414L182.364 4.22586C179.344 2.91242 176.131 2.26 172.747 2.26V6.26ZM180.77 7.89414C183.301 8.99494 185.485 10.4903 187.339 12.3804L190.195 9.57958C187.969 7.30969 185.353 5.52505 182.364 4.22586L180.77 7.89414ZM187.367 12.4079C189.252 14.2568 190.747 16.4566 191.849 19.0278L195.525 17.4522C194.227 14.4234 192.442 11.7831 190.167 9.55212L187.367 12.4079ZM191.853 19.0375C192.939 21.5366 193.487 24.2041 193.487 27.06H197.487C197.487 23.6759 196.835 20.4634 195.521 17.4425L191.853 19.0375ZM193.487 27.06C193.487 29.9159 192.939 32.5834 191.853 35.0825L195.521 36.6775C196.835 33.6566 197.487 30.4441 197.487 27.06H193.487ZM191.853 35.0825C190.751 37.6179 189.251 39.8274 187.353 41.7258L190.181 44.5542C192.443 42.2926 194.223 39.6621 195.521 36.6775L191.853 35.0825ZM187.353 41.7258C185.498 43.5807 183.31 45.0615 180.77 46.1659L182.364 49.8341C185.344 48.5385 187.956 46.7793 190.181 44.5542L187.353 41.7258ZM180.77 46.1659C178.27 47.2524 175.603 47.8 172.747 47.8V51.8C176.131 51.8 179.344 51.1476 182.364 49.8341L180.77 46.1659ZM172.747 37.94C174.198 37.94 175.585 37.6727 176.886 37.1219L175.328 33.4381C174.55 33.7673 173.696 33.94 172.747 33.94V37.94ZM176.919 37.1076C178.213 36.5324 179.36 35.7555 180.341 34.7742L177.513 31.9458C176.894 32.5645 176.161 33.0676 175.295 33.4524L176.919 37.1076ZM180.341 34.7742C181.336 33.7799 182.102 32.6137 182.639 31.2946L178.935 29.7854C178.592 30.6263 178.118 31.3401 177.513 31.9458L180.341 34.7742ZM182.615 31.3523C183.214 30.004 183.507 28.5658 183.507 27.06H179.507C179.507 28.0342 179.32 28.916 178.959 29.7277L182.615 31.3523ZM183.507 27.06C183.507 25.5542 183.214 24.116 182.615 22.7677L178.959 24.3923C179.32 25.204 179.507 26.0858 179.507 27.06H183.507ZM182.639 22.8254C182.102 21.5063 181.336 20.3401 180.341 19.3458L177.513 22.1742C178.118 22.7799 178.592 23.4937 178.935 24.3346L182.639 22.8254ZM180.375 19.3807C179.379 18.3346 178.202 17.534 176.862 16.9878L175.352 20.6922C176.172 21.026 176.875 21.5054 177.479 22.1393L180.375 19.3807ZM176.945 17.0241C175.63 16.417 174.222 16.12 172.747 16.12V20.12C173.672 20.12 174.504 20.303 175.269 20.6559L176.945 17.0241ZM172.747 16.12C171.272 16.12 169.854 16.4169 168.515 17.0124L170.139 20.6676C170.96 20.3031 171.822 20.12 172.747 20.12V16.12ZM168.572 16.9878C167.232 17.534 166.055 18.3346 165.059 19.3807L167.955 22.1393C168.559 21.5054 169.262 21.026 170.082 20.6922L168.572 16.9878ZM165.093 19.3458C164.112 20.327 163.335 21.4736 162.759 22.7677L166.415 24.3923C166.799 23.5264 167.303 22.7929 167.921 22.1742L165.093 19.3458ZM162.735 22.8254C162.191 24.1599 161.927 25.5779 161.927 27.06H165.927C165.927 26.0621 166.103 25.1601 166.439 24.3346L162.735 22.8254ZM161.927 27.06C161.927 28.5421 162.191 29.9601 162.735 31.2946L166.439 29.7854C166.103 28.9599 165.927 28.0579 165.927 27.06H161.927ZM162.759 31.3523C163.335 32.6464 164.112 33.7929 165.093 34.7742L167.921 31.9458C167.303 31.327 166.799 30.5936 166.415 29.7277L162.759 31.3523ZM165.093 34.7742C166.074 35.7555 167.221 36.5324 168.515 37.1076L170.139 33.4524C169.273 33.0676 168.54 32.5645 167.921 31.9458L165.093 34.7742ZM168.572 37.1322C169.899 37.6726 171.296 37.94 172.747 37.94V33.94C171.798 33.94 170.915 33.7673 170.082 33.4278L168.572 37.1322ZM216.659 6L218.084 4.59614L217.496 4H216.659V6ZM232.979 22.56L231.555 23.9639L232.979 25.4093L234.404 23.9639L232.979 22.56ZM249.299 6V4H248.462L247.875 4.59614L249.299 6ZM263.279 6H265.279V4H263.279V6ZM263.279 48V50H265.279V48H263.279ZM249.299 48H247.299V50H249.299V48ZM249.299 25.32H251.299V20.6291L247.914 23.8769L249.299 25.32ZM232.979 40.98L231.594 42.4231L232.979 43.7518L234.364 42.4231L232.979 40.98ZM216.659 25.32L218.044 23.8769L214.659 20.6291V25.32H216.659ZM216.659 48V50H218.659V48H216.659ZM202.679 48H200.679V50H202.679V48ZM202.679 6V4H200.679V6H202.679ZM215.235 7.40385L231.555 23.9639L234.404 21.1561L218.084 4.59614L215.235 7.40385ZM234.404 23.9639L250.724 7.40385L247.875 4.59614L231.555 21.1561L234.404 23.9639ZM249.299 8H263.279V4H249.299V8ZM261.279 6V48H265.279V6H261.279ZM263.279 46H249.299V50H263.279V46ZM251.299 48V25.32H247.299V48H251.299ZM247.914 23.8769L231.594 39.5369L234.364 42.4231L250.684 26.7631L247.914 23.8769ZM234.364 39.5369L218.044 23.8769L215.274 26.7631L231.594 42.4231L234.364 39.5369ZM214.659 25.32V48H218.659V25.32H214.659ZM216.659 46H202.679V50H216.659V46ZM204.679 48V6H200.679V48H204.679ZM202.679 8H216.659V4H202.679V8ZM283.248 48L282.451 49.8342L282.46 49.8383L283.248 48ZM275.988 43.14L274.56 44.5404L274.574 44.5543L274.588 44.5679L275.988 43.14ZM271.128 35.88L269.294 36.6775L271.128 35.88ZM271.128 18.24L272.962 19.0375L272.967 19.0278L271.128 18.24ZM275.988 10.98L274.574 9.56578L275.988 10.98ZM283.248 6.06L282.46 4.22168L282.451 4.22586L283.248 6.06ZM300.948 6.06L301.746 4.22586V4.22586L300.948 6.06ZM308.148 10.98L306.72 12.3804L306.734 12.3943L306.748 12.4079L308.148 10.98ZM313.068 18.24L311.23 19.0278L311.234 19.0375L313.068 18.24ZM313.068 35.88L311.234 35.0825L313.068 35.88ZM308.148 43.14L309.562 44.5542L308.148 43.14ZM300.948 48L301.746 49.8341L300.948 48ZM295.488 35.28L296.268 37.1219L296.284 37.1149L296.301 37.1076L295.488 35.28ZM298.308 33.36L296.894 31.9458V31.9458L298.308 33.36ZM300.168 30.54L298.341 29.7277L298.328 29.7564L298.316 29.7854L300.168 30.54ZM300.168 23.58L298.316 24.3346L298.328 24.3636L298.341 24.3923L300.168 23.58ZM298.308 20.76L296.86 22.1393L296.877 22.157L296.894 22.1742L298.308 20.76ZM295.488 18.84L294.65 20.6559L294.692 20.675L294.734 20.6922L295.488 18.84ZM288.708 18.84L289.463 20.6922L289.492 20.6804L289.521 20.6676L288.708 18.84ZM285.888 20.76L287.302 22.1742L287.32 22.157L287.337 22.1393L285.888 20.76ZM283.968 23.58L282.141 22.7677L282.128 22.7964L282.116 22.8254L283.968 23.58ZM283.968 30.54L282.116 31.2946L282.128 31.3236L282.141 31.3523L283.968 30.54ZM285.888 33.36L287.302 31.9458V31.9458L285.888 33.36ZM288.708 35.28L287.896 37.1076L287.925 37.1204L287.954 37.1322L288.708 35.28ZM292.128 47.8C289.272 47.8 286.581 47.2524 284.036 46.1617L282.46 49.8383C285.516 51.1476 288.744 51.8 292.128 51.8V47.8ZM284.046 46.1659C281.502 45.06 279.288 43.5753 277.389 41.7121L274.588 44.5679C276.848 46.7847 279.474 48.54 282.451 49.8341L284.046 46.1659ZM277.416 41.7396C275.553 39.8398 274.068 37.6259 272.962 35.0825L269.294 36.6775C270.588 39.654 272.344 42.2802 274.56 44.5404L277.416 41.7396ZM272.962 35.0825C271.876 32.5834 271.328 29.9159 271.328 27.06H267.328C267.328 30.4441 267.981 33.6566 269.294 36.6775L272.962 35.0825ZM271.328 27.06C271.328 24.2041 271.876 21.5366 272.962 19.0375L269.294 17.4425C267.981 20.4634 267.328 23.6759 267.328 27.06H271.328ZM272.967 19.0278C274.072 16.4485 275.552 14.2444 277.402 12.3942L274.574 9.56578C272.344 11.7956 270.585 14.4315 269.29 17.4522L272.967 19.0278ZM277.402 12.3942C279.301 10.4958 281.51 8.99645 284.046 7.89414L282.451 4.22586C279.466 5.52354 276.836 7.30422 274.574 9.56578L277.402 12.3942ZM284.036 7.89829C286.581 6.8076 289.272 6.26 292.128 6.26V2.26C288.744 2.26 285.516 2.9124 282.46 4.22171L284.036 7.89829ZM292.128 6.26C294.984 6.26 297.652 6.80757 300.151 7.89414L301.746 4.22586C298.725 2.91242 295.512 2.26 292.128 2.26V6.26ZM300.151 7.89414C302.683 8.99494 304.867 10.4903 306.72 12.3804L309.576 9.57958C307.35 7.30969 304.734 5.52505 301.746 4.22586L300.151 7.89414ZM306.748 12.4079C308.633 14.2568 310.128 16.4566 311.23 19.0278L314.907 17.4522C313.609 14.4234 311.823 11.7831 309.549 9.55212L306.748 12.4079ZM311.234 19.0375C312.321 21.5366 312.868 24.2041 312.868 27.06H316.868C316.868 23.6759 316.216 20.4634 314.902 17.4425L311.234 19.0375ZM312.868 27.06C312.868 29.9159 312.321 32.5834 311.234 35.0825L314.902 36.6775C316.216 33.6566 316.868 30.4441 316.868 27.06H312.868ZM311.234 35.0825C310.132 37.6179 308.633 39.8274 306.734 41.7258L309.562 44.5542C311.824 42.2926 313.605 39.6621 314.902 36.6775L311.234 35.0825ZM306.734 41.7258C304.879 43.5807 302.691 45.0615 300.151 46.1659L301.746 49.8341C304.726 48.5385 307.337 46.7793 309.562 44.5542L306.734 41.7258ZM300.151 46.1659C297.652 47.2524 294.984 47.8 292.128 47.8V51.8C295.512 51.8 298.725 51.1476 301.746 49.8341L300.151 46.1659ZM292.128 37.94C293.579 37.94 294.966 37.6727 296.268 37.1219L294.709 33.4381C293.931 33.7673 293.078 33.94 292.128 33.94V37.94ZM296.301 37.1076C297.595 36.5324 298.741 35.7555 299.723 34.7742L296.894 31.9458C296.275 32.5645 295.542 33.0676 294.676 33.4524L296.301 37.1076ZM299.723 34.7742C300.717 33.7799 301.483 32.6137 302.02 31.2946L298.316 29.7854C297.974 30.6263 297.5 31.3401 296.894 31.9458L299.723 34.7742ZM301.996 31.3523C302.595 30.004 302.888 28.5658 302.888 27.06H298.888C298.888 28.0342 298.701 28.916 298.341 29.7277L301.996 31.3523ZM302.888 27.06C302.888 25.5542 302.595 24.116 301.996 22.7677L298.341 24.3923C298.701 25.204 298.888 26.0858 298.888 27.06H302.888ZM302.02 22.8254C301.483 21.5063 300.717 20.3401 299.723 19.3458L296.894 22.1742C297.5 22.7799 297.974 23.4937 298.316 24.3346L302.02 22.8254ZM299.757 19.3807C298.76 18.3346 297.583 17.534 296.243 16.9878L294.734 20.6922C295.553 21.026 296.256 21.5054 296.86 22.1393L299.757 19.3807ZM296.326 17.0241C295.011 16.417 293.604 16.12 292.128 16.12V20.12C293.053 20.12 293.885 20.303 294.65 20.6559L296.326 17.0241ZM292.128 16.12C290.653 16.12 289.236 16.4169 287.896 17.0124L289.521 20.6676C290.341 20.3031 291.204 20.12 292.128 20.12V16.12ZM287.954 16.9878C286.613 17.534 285.436 18.3346 284.44 19.3807L287.337 22.1393C287.94 21.5054 288.644 21.026 289.463 20.6922L287.954 16.9878ZM284.474 19.3458C283.493 20.327 282.716 21.4736 282.141 22.7677L285.796 24.3923C286.181 23.5264 286.684 22.7929 287.302 22.1742L284.474 19.3458ZM282.116 22.8254C281.572 24.1599 281.308 25.5779 281.308 27.06H285.308C285.308 26.0621 285.484 25.1601 285.82 24.3346L282.116 22.8254ZM281.308 27.06C281.308 28.5421 281.572 29.9601 282.116 31.2946L285.82 29.7854C285.484 28.9599 285.308 28.0579 285.308 27.06H281.308ZM282.141 31.3523C282.716 32.6464 283.493 33.7929 284.474 34.7742L287.302 31.9458C286.684 31.327 286.181 30.5936 285.796 29.7277L282.141 31.3523ZM284.474 34.7742C285.455 35.7555 286.602 36.5324 287.896 37.1076L289.521 33.4524C288.655 33.0676 287.921 32.5645 287.302 31.9458L284.474 34.7742ZM287.954 37.1322C289.28 37.6726 290.677 37.94 292.128 37.94V33.94C291.179 33.94 290.296 33.7673 289.463 33.4278L287.954 37.1322ZM320.948 6V4H318.948V6H320.948ZM359.468 6H361.468V4H359.468V6ZM359.468 16.5V18.5H361.468V16.5H359.468ZM334.928 16.5V14.5H332.928V16.5H334.928ZM334.928 21.72H332.928V23.72H334.928V21.72ZM354.908 22.8L354.088 24.6238L354.107 24.6325L354.126 24.6407L354.908 22.8ZM359.108 25.62L357.694 27.0342L357.706 27.0462L357.718 27.058L359.108 25.62ZM361.928 29.76L363.769 28.9777L361.928 29.76ZM361.928 39.96L363.769 40.7423L361.928 39.96ZM359.108 44.16L360.523 45.5742V45.5742L359.108 44.16ZM354.908 46.98L355.691 48.8207V48.8207L354.908 46.98ZM320.948 48H318.948V50H320.948V48ZM334.928 32.22V30.22H332.928V32.22H334.928ZM334.928 37.5H332.928V39.5H334.928V37.5ZM348.188 36.72L346.774 35.3058L348.188 36.72ZM348.188 33L346.774 34.4142V34.4142L348.188 33ZM320.948 8H359.468V4H320.948V8ZM357.468 6V16.5H361.468V6H357.468ZM359.468 14.5H334.928V18.5H359.468V14.5ZM332.928 16.5V21.72H336.928V16.5H332.928ZM334.928 23.72H349.808V19.72H334.928V23.72ZM349.808 23.72C351.333 23.72 352.753 24.023 354.088 24.6238L355.729 20.9762C353.864 20.137 351.884 19.72 349.808 19.72V23.72ZM354.126 24.6407C355.496 25.2228 356.68 26.02 357.694 27.0342L360.523 24.2058C359.137 22.82 357.521 21.7372 355.691 20.9593L354.126 24.6407ZM357.718 27.058C358.718 28.024 359.508 29.1783 360.088 30.5423L363.769 28.9777C362.989 27.1417 361.899 25.536 360.498 24.182L357.718 27.058ZM360.088 30.5423C360.659 31.8861 360.948 33.3191 360.948 34.86H364.948C364.948 32.8009 364.558 30.8339 363.769 28.9777L360.088 30.5423ZM360.948 34.86C360.948 36.4009 360.659 37.8339 360.088 39.1777L363.769 40.7423C364.558 38.8861 364.948 36.9191 364.948 34.86H360.948ZM360.088 39.1777C359.506 40.5476 358.708 41.7316 357.694 42.7458L360.523 45.5742C361.908 44.1884 362.991 42.5724 363.769 40.7423L360.088 39.1777ZM357.694 42.7458C356.68 43.76 355.496 44.5572 354.126 45.1393L355.691 48.8207C357.521 48.0429 359.137 46.96 360.523 45.5742L357.694 42.7458ZM354.126 45.1393C352.782 45.7105 351.349 46 349.808 46V50C351.868 50 353.835 49.6095 355.691 48.8207L354.126 45.1393ZM349.808 46H320.948V50H349.808V46ZM322.948 48V6H318.948V48H322.948ZM332.928 32.22V37.5H336.928V32.22H332.928ZM334.928 39.5H346.328V35.5H334.928V39.5ZM346.328 39.5C347.591 39.5 348.717 39.0203 349.603 38.1342L346.774 35.3058C346.62 35.4597 346.505 35.5 346.328 35.5V39.5ZM349.603 38.1342C350.489 37.2481 350.968 36.123 350.968 34.86H346.968C346.968 35.037 346.928 35.1519 346.774 35.3058L349.603 38.1342ZM350.968 34.86C350.968 33.597 350.489 32.4719 349.603 31.5858L346.774 34.4142C346.928 34.5681 346.968 34.683 346.968 34.86H350.968ZM349.603 31.5858C348.717 30.6997 347.591 30.22 346.328 30.22V34.22C346.505 34.22 346.62 34.2603 346.774 34.4142L349.603 31.5858ZM346.328 30.22H334.928V34.22H346.328V30.22ZM397.585 48H395.585V50H397.585V48ZM397.585 28.08H399.585V21.7708L395.95 26.9278L397.585 28.08ZM383.545 48V50H384.582L385.18 49.1522L383.545 48ZM369.565 48H367.565V50H369.565V48ZM369.565 6V4H367.565V6H369.565ZM383.545 6H385.545V4H383.545V6ZM383.545 25.92H381.545V32.2292L385.18 27.0722L383.545 25.92ZM397.585 6V4H396.548L395.95 4.84779L397.585 6ZM411.565 6H413.565V4H411.565V6ZM411.565 48V50H413.565V48H411.565ZM399.585 48V28.08H395.585V48H399.585ZM395.95 26.9278L381.91 46.8478L385.18 49.1522L399.22 29.2322L395.95 26.9278ZM383.545 46H369.565V50H383.545V46ZM371.565 48V6H367.565V48H371.565ZM369.565 8H383.545V4H369.565V8ZM381.545 6V25.92H385.545V6H381.545ZM385.18 27.0722L399.22 7.1522L395.95 4.84779L381.91 24.7678L385.18 27.0722ZM397.585 8H411.565V4H397.585V8ZM409.565 6V48H413.565V6H409.565ZM411.565 46H397.585V50H411.565V46ZM449.905 6L451.802 5.36835L451.347 4H449.905V6ZM463.885 48V50H466.658L465.782 47.3684L463.885 48ZM449.125 48L447.227 48.6312L447.682 50H449.125V48ZM440.125 20.94L442.023 20.3088L440.125 14.6028L438.227 20.3088L440.125 20.94ZM431.125 48V50H432.567L433.023 48.6312L431.125 48ZM416.365 48L414.467 47.3684L413.591 50H416.365V48ZM430.345 6V4H428.903L428.447 5.36835L430.345 6ZM448.007 6.63164L461.987 48.6316L465.782 47.3684L451.802 5.36835L448.007 6.63164ZM463.885 46H449.125V50H463.885V46ZM451.023 47.3688L442.023 20.3088L438.227 21.5712L447.227 48.6312L451.023 47.3688ZM438.227 20.3088L429.227 47.3688L433.023 48.6312L442.023 21.5712L438.227 20.3088ZM431.125 46H416.365V50H431.125V46ZM418.262 48.6316L432.242 6.63164L428.447 5.36835L414.467 47.3684L418.262 48.6316ZM430.345 8H449.905V4H430.345V8ZM497.279 48H495.279V50H497.279V48ZM497.279 28.08H499.279V21.7708L495.644 26.9278L497.279 28.08ZM483.239 48V50H484.276L484.873 49.1522L483.239 48ZM469.259 48H467.259V50H469.259V48ZM469.259 6V4H467.259V6H469.259ZM483.239 6H485.239V4H483.239V6ZM483.239 25.92H481.239V32.2292L484.873 27.0722L483.239 25.92ZM497.279 6V4H496.241L495.644 4.84779L497.279 6ZM511.259 6H513.259V4H511.259V6ZM511.259 48V50H513.259V48H511.259ZM499.279 48V28.08H495.279V48H499.279ZM495.644 26.9278L481.604 46.8478L484.873 49.1522L498.913 29.2322L495.644 26.9278ZM483.239 46H469.259V50H483.239V46ZM471.259 48V6H467.259V48H471.259ZM469.259 8H483.239V4H469.259V8ZM481.239 6V25.92H485.239V6H481.239ZM484.873 27.0722L498.913 7.1522L495.644 4.84779L481.604 24.7678L484.873 27.0722ZM497.279 8H511.259V4H497.279V8ZM509.259 6V48H513.259V6H509.259ZM511.259 46H497.279V50H511.259V46ZM16.92 72H18.92V70H16.92V72ZM16.92 85.98H14.92V87.98H16.92V85.98ZM30.96 85.98V87.98H32.96V85.98H30.96ZM30.96 72V70H28.96V72H30.96ZM44.94 72H46.94V70H44.94V72ZM44.94 114V116H46.94V114H44.94ZM30.96 114H28.96V116H30.96V114ZM30.96 100.02H32.96V98.02H30.96V100.02ZM16.92 100.02V98.02H14.92V100.02H16.92ZM16.92 114V116H18.92V114H16.92ZM2.94 114H0.94V116H2.94V114ZM2.94 72V70H0.94V72H2.94ZM14.92 72V85.98H18.92V72H14.92ZM16.92 87.98H30.96V83.98H16.92V87.98ZM32.96 85.98V72H28.96V85.98H32.96ZM30.96 74H44.94V70H30.96V74ZM42.94 72V114H46.94V72H42.94ZM44.94 112H30.96V116H44.94V112ZM32.96 114V100.02H28.96V114H32.96ZM30.96 98.02H16.92V102.02H30.96V98.02ZM14.92 100.02V114H18.92V100.02H14.92ZM16.92 112H2.94V116H16.92V112ZM4.94 114V72H0.94V114H4.94ZM2.94 74H16.92V70H2.94V74ZM83.16 72L85.0576 71.3684L84.6022 70H83.16V72ZM97.14 114V116H99.9136L99.0376 113.368L97.14 114ZM82.44 114L80.5394 114.623L80.9906 116H82.44V114ZM81.3 110.52L83.2006 109.897L82.7494 108.52H81.3V110.52ZM65.58 110.52V108.52H64.1306L63.6794 109.897L65.58 110.52ZM64.44 114V116H65.8894L66.3406 114.623L64.44 114ZM49.74 114L47.8424 113.368L46.9664 116H49.74V114ZM63.72 72V70H62.2778L61.8224 71.3684L63.72 72ZM69.12 100.02L67.2209 99.3928L66.3532 102.02H69.12V100.02ZM77.82 100.02V102.02H80.5989L79.7165 99.3849L77.82 100.02ZM73.44 86.94L75.3365 86.3049L73.4269 80.6023L71.5409 86.3128L73.44 86.94ZM81.2624 72.6316L95.2424 114.632L99.0376 113.368L85.0576 71.3684L81.2624 72.6316ZM97.14 112H82.44V116H97.14V112ZM84.3406 113.377L83.2006 109.897L79.3994 111.143L80.5394 114.623L84.3406 113.377ZM81.3 108.52H65.58V112.52H81.3V108.52ZM63.6794 109.897L62.5394 113.377L66.3406 114.623L67.4806 111.143L63.6794 109.897ZM64.44 112H49.74V116H64.44V112ZM51.6376 114.632L65.6176 72.6316L61.8224 71.3684L47.8424 113.368L51.6376 114.632ZM63.72 74H83.16V70H63.72V74ZM69.12 102.02H77.82V98.02H69.12V102.02ZM79.7165 99.3849L75.3365 86.3049L71.5435 87.5751L75.9235 100.655L79.7165 99.3849ZM71.5409 86.3128L67.2209 99.3928L71.0191 100.647L75.3391 87.5672L71.5409 86.3128ZM144.577 72H146.577V70H144.577V72ZM144.577 114V116H146.577V114H144.577ZM130.597 114H128.597V116H130.597V114ZM130.597 85.98H132.597V83.98H130.597V85.98ZM116.557 85.98V83.98H114.557V85.98H116.557ZM116.557 114V116H118.557V114H116.557ZM102.577 114H100.577V116H102.577V114ZM102.577 72V70H100.577V72H102.577ZM142.577 72V114H146.577V72H142.577ZM144.577 112H130.597V116H144.577V112ZM132.597 114V85.98H128.597V114H132.597ZM130.597 83.98H116.557V87.98H130.597V83.98ZM114.557 85.98V114H118.557V85.98H114.557ZM116.557 112H102.577V116H116.557V112ZM104.577 114V72H100.577V114H104.577ZM102.577 74H144.577V70H102.577V74ZM152.305 114H150.305V116H152.305V114ZM152.305 72V70H150.305V72H152.305ZM183.565 73.38L182.769 75.2147L182.781 75.22L183.565 73.38ZM189.145 77.16L187.713 78.5562L187.731 78.5743L187.749 78.592L189.145 77.16ZM192.925 82.74L191.085 83.5237L191.09 83.5362L192.925 82.74ZM189.145 101.88L190.559 103.294L189.145 101.88ZM183.565 105.6L182.781 103.76L182.769 103.765L183.565 105.6ZM166.285 106.98V104.98H164.285V106.98H166.285ZM166.285 114V116H168.285V114H166.285ZM166.285 93H164.285V95H166.285V93ZM179.305 91.98L177.891 90.5658V90.5658L179.305 91.98ZM179.305 87L177.891 88.4142L179.305 87ZM166.285 85.98V83.98H164.285V85.98H166.285ZM154.305 114V72H150.305V114H154.305ZM152.305 74H176.785V70H152.305V74ZM176.785 74C178.922 74 180.91 74.4079 182.769 75.2147L184.361 71.5453C181.98 70.5121 179.448 70 176.785 70V74ZM182.781 75.22C184.71 76.0417 186.347 77.1551 187.713 78.5562L190.577 75.7638C188.823 73.9649 186.739 72.5583 184.349 71.5399L182.781 75.22ZM187.749 78.592C189.15 79.9581 190.263 81.5945 191.085 83.5237L194.765 81.9563C193.747 79.5655 192.34 77.4819 190.541 75.728L187.749 78.592ZM191.09 83.5362C191.897 85.3952 192.305 87.3831 192.305 89.52H196.305C196.305 86.8569 195.793 84.3248 194.76 81.9438L191.09 83.5362ZM192.305 89.52C192.305 91.6569 191.897 93.6448 191.09 95.5038L194.76 97.0962C195.793 94.7152 196.305 92.1831 196.305 89.52H192.305ZM191.09 95.5038C190.268 97.3982 189.149 99.0474 187.731 100.466L190.559 103.294C192.341 101.513 193.742 99.4418 194.76 97.0962L191.09 95.5038ZM187.731 100.466C186.363 101.833 184.721 102.934 182.781 103.76L184.349 107.44C186.729 106.426 188.807 105.047 190.559 103.294L187.731 100.466ZM182.769 103.765C180.91 104.572 178.922 104.98 176.785 104.98V108.98C179.448 108.98 181.98 108.468 184.361 107.435L182.769 103.765ZM176.785 104.98H166.285V108.98H176.785V104.98ZM164.285 106.98V114H168.285V106.98H164.285ZM166.285 112H152.305V116H166.285V112ZM166.285 95H176.785V91H166.285V95ZM176.785 95C178.292 95 179.648 94.4656 180.719 93.3942L177.891 90.5658C177.602 90.8544 177.278 91 176.785 91V95ZM180.719 93.3942C181.773 92.3399 182.325 91.0115 182.325 89.52H178.325C178.325 89.9485 178.196 90.2601 177.891 90.5658L180.719 93.3942ZM182.325 89.52C182.325 88.0132 181.79 86.6572 180.719 85.5858L177.891 88.4142C178.179 88.7028 178.325 89.0268 178.325 89.52H182.325ZM180.719 85.5858C179.648 84.5144 178.292 83.98 176.785 83.98V87.98C177.278 87.98 177.602 88.1256 177.891 88.4142L180.719 85.5858ZM176.785 83.98H166.285V87.98H176.785V83.98ZM164.285 85.98V93H168.285V85.98H164.285ZM241.737 72H243.737V70H241.737V72ZM241.737 114V116H243.737V114H241.737ZM227.757 114H225.757V116H227.757V114ZM227.757 106.98H229.757V104.98H227.757V106.98ZM223.557 106.98V104.98H222.516L221.919 105.832L223.557 106.98ZM218.637 114V116H219.677L220.275 115.148L218.637 114ZM203.217 114L201.579 112.852L199.373 116H203.217V114ZM209.397 105.18L211.035 106.328L212.365 104.428L210.291 103.391L209.397 105.18ZM205.437 102.48L204.074 103.944L204.086 103.955L204.099 103.967L205.437 102.48ZM202.437 98.82L204.138 97.769L202.437 98.82ZM200.457 94.44L198.545 95.0282L200.457 94.44ZM201.117 82.74L202.951 83.5362L202.957 83.5237L201.117 82.74ZM204.837 77.16L206.251 78.5742L204.837 77.16ZM210.417 73.38L209.633 71.5399L209.621 71.5453L210.417 73.38ZM214.737 87L216.151 88.4142L214.737 87ZM214.737 91.98L216.151 90.5658V90.5658L214.737 91.98ZM227.757 93V95H229.757V93H227.757ZM227.757 85.98H229.757V83.98H227.757V85.98ZM217.257 74H241.737V70H217.257V74ZM239.737 72V114H243.737V72H239.737ZM241.737 112H227.757V116H241.737V112ZM229.757 114V106.98H225.757V114H229.757ZM227.757 104.98H223.557V108.98H227.757V104.98ZM221.919 105.832L216.999 112.852L220.275 115.148L225.195 108.128L221.919 105.832ZM218.637 112H203.217V116H218.637V112ZM204.855 115.148L211.035 106.328L207.759 104.032L201.579 112.852L204.855 115.148ZM210.291 103.391C209.012 102.752 207.841 101.954 206.775 100.993L204.099 103.967C205.432 105.166 206.901 106.168 208.502 106.969L210.291 103.391ZM206.8 101.016C205.772 100.059 204.885 98.9782 204.138 97.769L200.735 99.871C201.668 101.382 202.782 102.741 204.074 103.944L206.8 101.016ZM204.138 97.769C203.39 96.5568 202.799 95.2527 202.368 93.8518L198.545 95.0282C199.074 96.7473 199.804 98.3632 200.735 99.871L204.138 97.769ZM202.368 93.8518C201.95 92.4924 201.737 91.0514 201.737 89.52H197.737C197.737 91.4286 198.003 93.2676 198.545 95.0282L202.368 93.8518ZM201.737 89.52C201.737 87.3831 202.145 85.3952 202.951 83.5362L199.282 81.9438C198.249 84.3248 197.737 86.8569 197.737 89.52H201.737ZM202.957 83.5237C203.783 81.5839 204.883 79.9418 206.251 78.5742L203.423 75.7458C201.67 77.4982 200.29 79.5761 199.277 81.9563L202.957 83.5237ZM206.251 78.5742C207.669 77.1558 209.318 76.0368 211.213 75.2147L209.621 71.5453C207.275 72.5632 205.204 73.9642 203.423 75.7458L206.251 78.5742ZM211.2 75.22C213.107 74.408 215.12 74 217.257 74V70C214.594 70 212.046 70.512 209.633 71.5399L211.2 75.22ZM217.257 83.98C215.75 83.98 214.394 84.5144 213.323 85.5858L216.151 88.4142C216.439 88.1256 216.764 87.98 217.257 87.98V83.98ZM213.323 85.5858C212.251 86.6572 211.717 88.0132 211.717 89.52H215.717C215.717 89.0268 215.862 88.7028 216.151 88.4142L213.323 85.5858ZM211.717 89.52C211.717 91.0115 212.268 92.3399 213.323 93.3942L216.151 90.5658C215.845 90.2601 215.717 89.9485 215.717 89.52H211.717ZM213.323 93.3942C214.394 94.4656 215.75 95 217.257 95V91C216.764 91 216.439 90.8544 216.151 90.5658L213.323 93.3942ZM217.257 95H227.757V91H217.257V95ZM229.757 93V85.98H225.757V93H229.757ZM227.757 83.98H217.257V87.98H227.757V83.98ZM263.459 72L264.884 70.5961L264.296 70H263.459V72ZM279.779 88.56L278.355 89.9639L279.779 91.4093L281.204 89.9639L279.779 88.56ZM296.099 72V70H295.262L294.675 70.5961L296.099 72ZM310.079 72H312.079V70H310.079V72ZM310.079 114V116H312.079V114H310.079ZM296.099 114H294.099V116H296.099V114ZM296.099 91.32H298.099V86.6291L294.714 89.8769L296.099 91.32ZM279.779 106.98L278.394 108.423L279.779 109.752L281.164 108.423L279.779 106.98ZM263.459 91.32L264.844 89.8769L261.459 86.6291V91.32H263.459ZM263.459 114V116H265.459V114H263.459ZM249.479 114H247.479V116H249.479V114ZM249.479 72V70H247.479V72H249.479ZM262.035 73.4039L278.355 89.9639L281.204 87.1561L264.884 70.5961L262.035 73.4039ZM281.204 89.9639L297.524 73.4039L294.675 70.5961L278.355 87.1561L281.204 89.9639ZM296.099 74H310.079V70H296.099V74ZM308.079 72V114H312.079V72H308.079ZM310.079 112H296.099V116H310.079V112ZM298.099 114V91.32H294.099V114H298.099ZM294.714 89.8769L278.394 105.537L281.164 108.423L297.484 92.7631L294.714 89.8769ZM281.164 105.537L264.844 89.8769L262.074 92.7631L278.394 108.423L281.164 105.537ZM261.459 91.32V114H265.459V91.32H261.459ZM263.459 112H249.479V116H263.459V112ZM251.479 114V72H247.479V114H251.479ZM249.479 74H263.459V70H249.479V74ZM330.198 72L332.095 71.3659L331.638 70H330.198V72ZM337.218 93L335.321 93.6341L335.778 95H337.218V93ZM341.238 93V95H342.682L343.136 93.6292L341.238 93ZM348.198 72V70H346.754L346.299 71.3708L348.198 72ZM362.898 72L364.795 72.6316L365.671 70H362.898V72ZM348.918 114V116H350.36L350.815 114.632L348.918 114ZM334.218 114L332.32 113.368L331.443 116H334.218V114ZM336.558 106.98L338.455 107.612L339.333 104.98H336.558V106.98ZM327.138 106.98L325.24 107.611L325.695 108.98H327.138V106.98ZM315.498 72V70H312.724L313.6 72.6315L315.498 72ZM328.301 72.6341L335.321 93.6341L339.115 92.3659L332.095 71.3659L328.301 72.6341ZM337.218 95H341.238V91H337.218V95ZM343.136 93.6292L350.096 72.6292L346.299 71.3708L339.339 92.3708L343.136 93.6292ZM348.198 74H362.898V70H348.198V74ZM361 71.3684L347.02 113.368L350.815 114.632L364.795 72.6316L361 71.3684ZM348.918 112H334.218V116H348.918V112ZM336.115 114.632L338.455 107.612L334.66 106.348L332.32 113.368L336.115 114.632ZM336.558 104.98H327.138V108.98H336.558V104.98ZM329.035 106.349L317.395 71.3685L313.6 72.6315L325.24 107.611L329.035 106.349ZM315.498 74H330.198V70H315.498V74ZM368.334 72V70H366.334V72H368.334ZM382.314 72H384.314V70H382.314V72ZM382.314 88.02H380.314V90.02H382.314V88.02ZM386.334 88.02V90.02H387.939L388.287 88.4539L386.334 88.02ZM389.214 81L387.527 79.9262L387.522 79.9344L389.214 81ZM394.194 75.36L395.456 76.9122L395.459 76.9093L394.194 75.36ZM400.794 71.64L401.473 73.5214L401.486 73.5165L401.5 73.5114L400.794 71.64ZM417.354 72.06L418.152 70.2259L417.354 72.06ZM424.554 76.98L423.126 78.3804L423.14 78.3943L423.154 78.4079L424.554 76.98ZM429.474 84.24L427.636 85.0278L427.64 85.0375L429.474 84.24ZM429.474 101.88L427.64 101.083V101.083L429.474 101.88ZM424.554 109.14L425.969 110.554L424.554 109.14ZM400.794 114.42L401.5 112.549L401.486 112.544L401.473 112.539L400.794 114.42ZM394.194 110.7L395.459 109.151L394.194 110.7ZM389.154 105.06L387.462 106.126L387.469 106.137L387.476 106.148L389.154 105.06ZM386.274 97.98L388.228 97.5526L387.884 95.98H386.274V97.98ZM382.314 97.98V95.98H380.314V97.98H382.314ZM382.314 114V116H384.314V114H382.314ZM368.334 114H366.334V116H368.334V114ZM411.894 101.28L412.674 103.122L412.69 103.115L412.707 103.108L411.894 101.28ZM414.714 99.36L413.3 97.9458L414.714 99.36ZM416.574 96.54L414.747 95.7277L414.734 95.7564L414.722 95.7854L416.574 96.54ZM416.574 89.58L414.722 90.3346L414.734 90.3636L414.747 90.3923L416.574 89.58ZM414.714 86.76L413.266 88.1393L413.283 88.157L413.3 88.1742L414.714 86.76ZM411.894 84.84L411.056 86.6559L411.098 86.675L411.14 86.6922L411.894 84.84ZM405.114 84.84L405.869 86.6922L405.898 86.6804L405.927 86.6676L405.114 84.84ZM402.294 86.76L403.709 88.1742L403.726 88.157L403.743 88.1393L402.294 86.76ZM400.374 89.58L398.547 88.7677L398.534 88.7964L398.522 88.8254L400.374 89.58ZM400.374 96.54L398.522 97.2946L398.534 97.3236L398.547 97.3523L400.374 96.54ZM402.294 99.36L403.709 97.9458L402.294 99.36ZM405.114 101.28L404.302 103.108L404.331 103.12L404.36 103.132L405.114 101.28ZM368.334 74H382.314V70H368.334V74ZM380.314 72V88.02H384.314V72H380.314ZM382.314 90.02H386.334V86.02H382.314V90.02ZM388.287 88.4539C388.798 86.1552 389.67 84.0293 390.907 82.0656L387.522 79.9344C386.038 82.2907 384.991 84.8448 384.382 87.5861L388.287 88.4539ZM390.902 82.0738C392.193 80.0452 393.711 78.3295 395.456 76.9122L392.933 73.8078C390.838 75.5105 389.036 77.5548 387.527 79.9262L390.902 82.0738ZM395.459 76.9093C397.24 75.456 399.24 74.3266 401.473 73.5214L400.116 69.7586C397.469 70.7134 395.069 72.064 392.93 73.8107L395.459 76.9093ZM401.5 73.5114C403.705 72.6801 406.045 72.26 408.534 72.26V68.26C405.584 68.26 402.764 68.7599 400.089 69.7686L401.5 73.5114ZM408.534 72.26C411.39 72.26 414.058 72.8076 416.557 73.8941L418.152 70.2259C415.131 68.9124 411.918 68.26 408.534 68.26V72.26ZM416.557 73.8941C419.089 74.9949 421.273 76.4903 423.126 78.3804L425.982 75.5796C423.756 73.3097 421.14 71.5251 418.152 70.2259L416.557 73.8941ZM423.154 78.4079C425.039 80.2568 426.534 82.4566 427.636 85.0278L431.313 83.4522C430.015 80.4234 428.23 77.7831 425.955 75.5521L423.154 78.4079ZM427.64 85.0375C428.727 87.5366 429.274 90.2041 429.274 93.06H433.274C433.274 89.6759 432.622 86.4634 431.309 83.4425L427.64 85.0375ZM429.274 93.06C429.274 95.9159 428.727 98.5834 427.64 101.083L431.309 102.677C432.622 99.6566 433.274 96.4441 433.274 93.06H429.274ZM427.64 101.083C426.538 103.618 425.039 105.827 423.14 107.726L425.969 110.554C428.23 108.293 430.011 105.662 431.309 102.677L427.64 101.083ZM423.14 107.726C421.285 109.581 419.097 111.062 416.557 112.166L418.152 115.834C421.132 114.538 423.744 112.779 425.969 110.554L423.14 107.726ZM416.557 112.166C414.058 113.252 411.39 113.8 408.534 113.8V117.8C411.918 117.8 415.131 117.148 418.152 115.834L416.557 112.166ZM408.534 113.8C406.045 113.8 403.705 113.38 401.5 112.549L400.089 116.291C402.764 117.3 405.584 117.8 408.534 117.8V113.8ZM401.473 112.539C399.24 111.733 397.24 110.604 395.459 109.151L392.93 112.249C395.069 113.996 397.469 115.347 400.116 116.301L401.473 112.539ZM395.459 109.151C393.663 107.684 392.122 105.961 390.833 103.972L387.476 106.148C388.987 108.479 390.806 110.516 392.93 112.249L395.459 109.151ZM390.847 103.994C389.614 102.036 388.74 99.8925 388.228 97.5526L384.321 98.4074C384.929 101.188 385.975 103.764 387.462 106.126L390.847 103.994ZM386.274 95.98H382.314V99.98H386.274V95.98ZM380.314 97.98V114H384.314V97.98H380.314ZM382.314 112H368.334V116H382.314V112ZM370.334 114V72H366.334V114H370.334ZM408.534 103.94C409.985 103.94 411.372 103.673 412.674 103.122L411.115 99.4381C410.337 99.7673 409.484 99.94 408.534 99.94V103.94ZM412.707 103.108C414.001 102.532 415.147 101.755 416.129 100.774L413.3 97.9458C412.681 98.5645 411.948 99.0676 411.082 99.4524L412.707 103.108ZM416.129 100.774C417.123 99.7799 417.889 98.6137 418.427 97.2946L414.722 95.7854C414.38 96.6263 413.906 97.3401 413.3 97.9458L416.129 100.774ZM418.402 97.3523C419.001 96.004 419.294 94.5658 419.294 93.06H415.294C415.294 94.0342 415.108 94.916 414.747 95.7277L418.402 97.3523ZM419.294 93.06C419.294 91.5542 419.001 90.116 418.402 88.7677L414.747 90.3923C415.108 91.204 415.294 92.0858 415.294 93.06H419.294ZM418.427 88.8254C417.889 87.5063 417.123 86.3401 416.129 85.3458L413.3 88.1742C413.906 88.7799 414.38 89.4937 414.722 90.3346L418.427 88.8254ZM416.163 85.3807C415.166 84.3346 413.99 83.534 412.649 82.9878L411.14 86.6922C411.959 87.026 412.662 87.5054 413.266 88.1393L416.163 85.3807ZM412.733 83.0241C411.417 82.417 410.01 82.12 408.534 82.12V86.12C409.459 86.12 410.292 86.303 411.056 86.6559L412.733 83.0241ZM408.534 82.12C407.059 82.12 405.642 82.4169 404.302 83.0124L405.927 86.6676C406.747 86.3031 407.61 86.12 408.534 86.12V82.12ZM404.36 82.9878C403.019 83.534 401.842 84.3346 400.846 85.3807L403.743 88.1393C404.346 87.5054 405.05 87.026 405.869 86.6922L404.36 82.9878ZM400.88 85.3458C399.899 86.327 399.122 87.4736 398.547 88.7677L402.202 90.3923C402.587 89.5264 403.09 88.793 403.709 88.1742L400.88 85.3458ZM398.522 88.8254C397.979 90.1599 397.714 91.5779 397.714 93.06H401.714C401.714 92.0621 401.89 91.1601 402.227 90.3346L398.522 88.8254ZM397.714 93.06C397.714 94.5421 397.979 95.9601 398.522 97.2946L402.227 95.7854C401.89 94.9599 401.714 94.0579 401.714 93.06H397.714ZM398.547 97.3523C399.122 98.6464 399.899 99.793 400.88 100.774L403.709 97.9458C403.09 97.327 402.587 96.5936 402.202 95.7277L398.547 97.3523ZM400.88 100.774C401.861 101.755 403.008 102.532 404.302 103.108L405.927 99.4524C405.061 99.0676 404.327 98.5645 403.709 97.9458L400.88 100.774ZM404.36 103.132C405.686 103.673 407.083 103.94 408.534 103.94V99.94C407.585 99.94 406.702 99.7673 405.869 99.4278L404.36 103.132ZM483.861 114H481.861V116H483.861V114ZM483.861 94.08H485.861V87.7708L482.226 92.9278L483.861 94.08ZM469.821 114V116H470.858L471.455 115.152L469.821 114ZM455.841 114H453.841V116H455.841V114ZM455.841 72V70H453.841V72H455.841ZM469.821 72H471.821V70H469.821V72ZM469.821 91.92H467.821V98.2292L471.455 93.0722L469.821 91.92ZM483.861 72V70H482.823L482.226 70.8478L483.861 72ZM497.841 72H499.841V70H497.841V72ZM497.841 114V116H499.841V114H497.841ZM485.861 114V94.08H481.861V114H485.861ZM482.226 92.9278L468.186 112.848L471.455 115.152L485.495 95.2322L482.226 92.9278ZM469.821 112H455.841V116H469.821V112ZM457.841 114V72H453.841V114H457.841ZM455.841 74H469.821V70H455.841V74ZM467.821 72V91.92H471.821V72H467.821ZM471.455 93.0722L485.495 73.1522L482.226 70.8478L468.186 90.7678L471.455 93.0722ZM483.861 74H497.841V70H483.861V74ZM495.841 72V114H499.841V72H495.841ZM497.841 112H483.861V116H497.841V112ZM505.029 72V70H503.029V72H505.029ZM534.789 73.02L534.007 74.8607L534.015 74.8641L534.023 74.8675L534.789 73.02ZM541.509 79.62L539.655 80.3714V80.3714L541.509 79.62ZM541.149 89.46L539.421 88.4523L539.417 88.46L539.412 88.4677L541.149 89.46ZM538.329 92.94L537.032 91.4175L535.245 92.94L537.032 94.4625L538.329 92.94ZM541.149 96.48L539.401 97.4513L539.411 97.4696L539.421 97.4877L541.149 96.48ZM541.509 106.38L543.362 107.131L543.366 107.123L543.369 107.114L541.509 106.38ZM534.789 112.98L534.023 111.133L534.015 111.136L534.007 111.139L534.789 112.98ZM505.029 114H503.029V116H505.029V114ZM505.029 103.5V101.5H503.029V103.5H505.029ZM527.649 102.72L529.063 104.134V104.134L527.649 102.72ZM527.649 99L526.235 100.414L526.263 100.442L526.292 100.47L527.649 99ZM508.509 98.22H506.509V100.22H508.509V98.22ZM508.509 87.72V85.72H506.509V87.72H508.509ZM527.649 87L529.005 88.4696L529.035 88.4425L529.063 88.4142L527.649 87ZM527.649 83.28L526.235 84.6942L526.263 84.7225L526.292 84.7496L527.649 83.28ZM505.029 82.5H503.029V84.5H505.029V82.5ZM505.029 74H529.329V70H505.029V74ZM529.329 74C531.146 74 532.693 74.3024 534.007 74.8607L535.571 71.1793C533.685 70.3776 531.592 70 529.329 70V74ZM534.023 74.8675C535.45 75.4591 536.601 76.2209 537.515 77.1342L540.343 74.3058C539.016 72.9791 537.408 71.9409 535.555 71.1725L534.023 74.8675ZM537.515 77.1342C538.444 78.0633 539.155 79.1374 539.655 80.3714L543.362 78.8686C542.663 77.1426 541.654 75.6167 540.343 74.3058L537.515 77.1342ZM539.655 80.3714C540.158 81.6123 540.409 82.8971 540.409 84.24H544.409C544.409 82.3829 544.059 80.5877 543.362 78.8686L539.655 80.3714ZM540.409 84.24C540.409 86.0048 540.047 87.3797 539.421 88.4523L542.876 90.4677C543.931 88.6603 544.409 86.5552 544.409 84.24H540.409ZM539.412 88.4677C538.712 89.694 537.914 90.6665 537.032 91.4175L539.626 94.4625C540.904 93.3735 541.986 92.026 542.885 90.4523L539.412 88.4677ZM537.032 94.4625C537.903 95.2044 538.698 96.1874 539.401 97.4513L542.897 95.5087C541.999 93.8926 540.915 92.5156 539.626 91.4175L537.032 94.4625ZM539.421 97.4877C540.047 98.5603 540.409 99.9352 540.409 101.7H544.409C544.409 99.3848 543.931 97.2797 542.876 95.4723L539.421 97.4877ZM540.409 101.7C540.409 103.043 540.158 104.354 539.649 105.646L543.369 107.114C544.06 105.366 544.409 103.557 544.409 101.7H540.409ZM539.655 105.629C539.155 106.863 538.444 107.937 537.515 108.866L540.343 111.694C541.654 110.383 542.663 108.857 543.362 107.131L539.655 105.629ZM537.515 108.866C536.601 109.779 535.45 110.541 534.023 111.133L535.555 114.827C537.408 114.059 539.016 113.021 540.343 111.694L537.515 108.866ZM534.007 111.139C532.693 111.698 531.146 112 529.329 112V116C531.592 116 533.685 115.622 535.571 114.821L534.007 111.139ZM529.329 112H505.029V116H529.329V112ZM507.029 114V103.5H503.029V114H507.029ZM505.029 105.5H525.789V101.5H505.029V105.5ZM525.789 105.5C527.052 105.5 528.177 105.02 529.063 104.134L526.235 101.306C526.081 101.46 525.966 101.5 525.789 101.5V105.5ZM529.063 104.134C529.972 103.225 530.429 102.071 530.429 100.8H526.429C526.429 101.049 526.366 101.175 526.235 101.306L529.063 104.134ZM530.429 100.8C530.429 99.5329 529.944 98.3964 529.005 97.5304L526.292 100.47C526.394 100.564 526.429 100.627 526.429 100.8H530.429ZM529.063 97.5858C528.177 96.6997 527.052 96.22 525.789 96.22V100.22C525.966 100.22 526.081 100.26 526.235 100.414L529.063 97.5858ZM525.789 96.22H508.509V100.22H525.789V96.22ZM510.509 98.22V87.72H506.509V98.22H510.509ZM508.509 89.72H525.789V85.72H508.509V89.72ZM525.789 89.72C527.002 89.72 528.109 89.2972 529.005 88.4696L526.292 85.5304C526.149 85.6628 526.016 85.72 525.789 85.72V89.72ZM529.063 88.4142C529.972 87.5053 530.429 86.3506 530.429 85.08H526.429C526.429 85.3294 526.366 85.4547 526.235 85.5858L529.063 88.4142ZM530.429 85.08C530.429 83.8129 529.944 82.6764 529.005 81.8104L526.292 84.7496C526.394 84.8436 526.429 84.9071 526.429 85.08H530.429ZM529.063 81.8658C528.177 80.9797 527.052 80.5 525.789 80.5V84.5C525.966 84.5 526.081 84.5403 526.235 84.6942L529.063 81.8658ZM525.789 80.5H505.029V84.5H525.789V80.5ZM507.029 82.5V72H503.029V82.5H507.029Z" mask="url(#gpath-3-outside-2_79_971)"/></symbol><symbol viewBox="0 0 30 30" id="phone" xmlns="http://www.w3.org/2000/svg"><path d="M17.5 1.5H12.5C12.224 1.5 12 1.724 12 1.99998C12 2.27596 12.224 2.49996 12.5 2.49996H17.5C17.7759 2.49996 17.9999 2.27596 17.9999 1.99998C17.9999 1.724 17.7759 1.5 17.5 1.5Z"/><path d="M21 1.5H20.5C20.224 1.5 20 1.724 20 1.99998C20 2.27596 20.224 2.49996 20.5 2.49996H21C21.2759 2.49996 21.4999 2.27596 21.4999 1.99998C21.4999 1.724 21.2759 1.5 21 1.5Z"/><path d="M15.621 25.5H14.3795C13.619 25.5 13 26.119 13 26.8795V27.121C13 27.8815 13.619 28.5 14.379 28.5H15.6205C16.381 28.5 17 27.8815 17 27.121V26.8795C17 26.119 16.381 25.5 15.621 25.5ZM16 27.121C16 27.33 15.83 27.5 15.621 27.5H14.3795C14.17 27.5 14 27.33 14 27.121V26.8795C14 26.67 14.1699 26.5 14.3795 26.5H15.6205C15.83 26.5 16 26.6699 16 26.8795V27.121Z"/><path d="M21.693 0H8.3075C7.311 0 6.5 0.810996 6.5 1.8075V28.1925C6.5 29.189 7.311 30 8.3075 30H21.6925C22.689 30 23.5 29.189 23.5 28.193V1.8075C23.5 0.810996 22.689 0 21.693 0ZM22.5 28.1925C22.5 28.6375 22.138 29 21.693 29H8.3075C7.86201 29 7.50002 28.6375 7.50002 28.193V1.8075C7.50002 1.36248 7.86201 1.00002 8.3075 1.00002H21.6925C22.138 1.00002 22.5 1.36254 22.5 1.8075V28.1925H22.5Z"/><path d="M22.9999 3H6.99998C6.724 3 6.5 3.224 6.5 3.49998V24.5C6.5 24.776 6.724 25 6.99998 25H23C23.276 25 23.5 24.776 23.5 24.5V3.49998C23.5 3.224 23.276 3 22.9999 3ZM22.5 24H7.49996V4.00002H22.5V24Z"/></symbol><symbol viewBox="0 0 30 30" id="telegram" xmlns="http://www.w3.org/2000/svg"><g clip-path="url(#iclip0_1969_1479)"><path d="M29.4125 2.45794C28.9299 2.01574 28.244 1.86837 27.6222 2.07328L1.24402 10.7686C0.52513 11.0056 0.0376305 11.6473 0.00206411 12.4034C-0.0334437 13.1594 0.391654 13.8441 1.08505 14.1476L7.60859 17.0018C7.6404 17.1494 9.51312 25.8351 9.57681 26.1304C9.65855 26.5096 9.85103 26.8474 10.2588 26.9513C10.6712 27.0564 10.9626 26.8309 11.2703 26.6006C11.4416 26.4724 16.1114 22.9757 16.1114 22.9757L21.7709 27.6068C22.1005 27.8767 22.5034 28.0175 22.9142 28.0175C23.1098 28.0174 23.3073 27.9855 23.4993 27.9204C24.095 27.7184 24.5366 27.2323 24.6805 26.62L29.952 4.20779C30.1018 3.57058 29.8952 2.90015 29.4125 2.45794ZM11.692 18.6373C11.6888 18.6449 11.6857 18.6535 11.6827 18.6639L10.5914 22.4764L9.37361 16.8283L17.7476 12.1757L11.8929 18.2974C11.8007 18.3939 11.7328 18.5105 11.692 18.6373ZM12.0384 23.8243L12.534 22.0926L13.0081 20.4362L14.7068 21.8263L12.0384 23.8243ZM28.2368 3.80431L22.9654 26.2165C22.9628 26.2277 22.9593 26.243 22.9335 26.2517C22.9079 26.2604 22.8955 26.2505 22.8867 26.2433L16.6939 21.1756C16.6937 21.1755 16.6936 21.1753 16.6934 21.1752L13.8242 18.8272L23.0423 9.18867C23.3433 8.87384 23.3691 8.38628 23.1029 8.04146C22.8366 7.69658 22.3584 7.59808 21.9777 7.80972L8.32823 15.3934L1.79134 12.5333C1.77142 12.5246 1.76046 12.5198 1.76204 12.4861C1.76363 12.4525 1.77499 12.4487 1.79562 12.4419L28.1738 3.7466C28.1866 3.74244 28.201 3.73763 28.2222 3.75697C28.2434 3.77642 28.2399 3.79119 28.2368 3.80431Z"/></g><defs><clipPath id="iclip0_1969_1479"><rect width="30" height="30"/></clipPath></defs></symbol><symbol viewBox="0 0 30 30" id="vk" xmlns="http://www.w3.org/2000/svg"><g clip-path="url(#jclip0_1969_1483)"><path d="M15.1813 24.375C19.5213 24.375 17.9738 21.6275 18.3088 20.8375C18.3038 20.2475 18.2987 19.68 18.3187 19.335C18.5937 19.4125 19.2425 19.7412 20.5825 21.0437C22.6512 23.1312 23.18 24.375 24.8513 24.375H27.9275C28.9025 24.375 29.41 23.9713 29.6638 23.6325C29.9088 23.305 30.1488 22.73 29.8863 21.835C29.2 19.68 25.1975 15.9588 24.9487 15.5663C24.9862 15.4938 25.0463 15.3975 25.0775 15.3475H25.075C25.865 14.3037 28.88 9.78625 29.3237 7.97875C29.325 7.97625 29.3263 7.9725 29.3263 7.96875C29.5663 7.14375 29.3463 6.60875 29.1188 6.30625C28.7763 5.85375 28.2313 5.625 27.495 5.625H24.4187C23.3887 5.625 22.6075 6.14375 22.2125 7.09C21.5513 8.77125 19.6937 12.2288 18.3012 13.4525C18.2587 11.7188 18.2875 10.395 18.31 9.41125C18.355 7.4925 18.5 5.625 16.5087 5.625H11.6737C10.4262 5.625 9.2325 6.9875 10.525 8.605C11.655 10.0225 10.9312 10.8125 11.175 14.745C10.225 13.7262 8.535 10.975 7.34 7.45875C7.005 6.5075 6.4975 5.62625 5.06875 5.62625H1.9925C0.745 5.62625 0 6.30625 0 7.445C0 10.0025 5.66125 24.375 15.1813 24.375ZM5.06875 7.50125C5.34 7.50125 5.3675 7.50125 5.56875 8.0725C6.7925 11.6763 9.5375 17.0088 11.5425 17.0088C13.0488 17.0088 13.0488 15.465 13.0488 14.8837L13.0475 10.2562C12.965 8.725 12.4075 7.9625 12.0413 7.5L16.4262 7.505C16.4287 7.52625 16.4013 12.6237 16.4388 13.8587C16.4388 15.6125 17.8312 16.6175 20.005 14.4175C22.2987 11.8288 23.885 7.95875 23.9488 7.80125C24.0425 7.57625 24.1237 7.5 24.4187 7.5H27.495H27.5075C27.5063 7.50375 27.5062 7.5075 27.505 7.51125C27.2237 8.82375 24.4475 13.0063 23.5188 14.305C23.5038 14.325 23.49 14.3463 23.4763 14.3675C23.0675 15.035 22.735 15.7725 23.5325 16.81C23.605 16.8975 23.795 17.1025 24.07 17.3875C24.925 18.27 27.8575 21.2875 28.1175 22.4875C27.945 22.515 27.7575 22.495 24.8513 22.5012C24.2325 22.5012 23.7487 21.5762 21.9025 19.7137C20.2425 18.0987 19.165 17.4388 18.1837 17.4388C16.2787 17.4388 16.4175 18.985 16.435 20.855C16.4412 22.8825 16.4288 22.2413 16.4425 22.3688C16.3313 22.4125 16.0125 22.5 15.1813 22.5C7.25 22.5 2.085 9.91125 1.88625 7.505C1.955 7.49875 2.90125 7.5025 5.06875 7.50125Z"/></g><defs><clipPath id="jclip0_1969_1483"><rect width="30" height="30"/></clipPath></defs></symbol><symbol viewBox="0 0 30 30" id="whatsapp" xmlns="http://www.w3.org/2000/svg"><g clip-path="url(#kclip0_1969_1476)"><path d="M25.7389 4.26109C22.991 1.51314 19.3382 0 15.4518 0C15.4516 0 15.4507 0 15.4504 0C13.5283 0.000228882 11.6551 0.372391 9.88335 1.10641C8.11135 1.84044 6.52382 2.90176 5.16449 4.26109C2.41677 7.00882 0.903629 10.6622 0.903629 14.5482C0.903629 16.8656 1.46279 19.1686 2.52228 21.2206L0.0769077 28.2065C-0.0954403 28.6993 0.0265537 29.2348 0.395969 29.604C0.654377 29.8627 0.994495 30 1.34423 30C1.49414 30 1.64566 29.9748 1.79352 29.9231L8.77945 27.478C10.8314 28.5374 13.1344 29.0966 15.4518 29.0966C19.3378 29.0966 22.991 27.5832 25.7389 24.8355C28.4866 22.0878 30 18.4344 30 14.5484C30 10.6622 28.4869 7.00882 25.7389 4.26109ZM24.4947 23.5913C22.0793 26.0069 18.8677 27.337 15.4518 27.337C13.3621 27.337 11.2862 26.8201 9.44825 25.8419C9.11499 25.6647 8.72109 25.6343 8.36747 25.7581L2.02057 27.9794L4.2421 21.6325C4.36592 21.2785 4.33525 20.8846 4.1581 20.5515C3.18009 18.7141 2.66304 16.6381 2.66304 14.5482C2.66304 11.1324 3.99331 7.92068 6.4087 5.50529C8.82386 3.09013 12.0351 1.75987 15.4507 1.75941H15.4518C18.8679 1.75941 22.0793 3.08968 24.4947 5.50529C26.9103 7.92068 28.2406 11.1321 28.2406 14.5482C28.2406 17.9642 26.9103 21.1759 24.4947 23.5913Z"/><path d="M20.8586 15.8486C20.1894 15.1794 19.1003 15.1794 18.4311 15.8486L17.6991 16.5806C15.8816 15.5902 14.4108 14.1194 13.4202 12.3019L14.1521 11.5699C14.8216 10.9007 14.8216 9.81166 14.1521 9.14241L12.1796 7.16991C11.5104 6.50066 10.4214 6.50066 9.75211 7.16991L8.1742 8.74782C7.27035 9.65167 7.22526 11.2056 8.04717 13.1234C8.76083 14.7885 10.0668 16.6186 11.7246 18.2764C13.3824 19.9342 15.2125 21.2402 16.8777 21.9538C17.7888 22.3443 18.6176 22.5391 19.3338 22.5391C20.125 22.5391 20.7787 22.3013 21.2532 21.8268L22.8311 20.2487V20.2489C23.1554 19.9246 23.334 19.4936 23.334 19.0351C23.334 18.5765 23.1554 18.1455 22.8311 17.8214L20.8586 15.8486ZM20.009 20.5826C19.751 20.8406 18.9577 20.931 17.5709 20.3368C16.1066 19.7092 14.4721 18.5355 12.9688 17.0322C11.4655 15.5289 10.292 13.8947 9.66445 12.4303C9.07004 11.0435 9.16045 10.25 9.4184 9.99202L10.9661 8.44432L12.8777 10.3562L11.9615 11.2726C11.5472 11.6869 11.4472 12.3152 11.7129 12.8361C12.9175 15.1982 14.8028 17.0835 17.1649 18.2881C17.6861 18.5538 18.3144 18.454 18.7286 18.0395L19.6448 17.1233L21.5567 19.0351L20.009 20.5826Z"/></g><defs><clipPath id="kclip0_1969_1476"><rect width="30" height="30"/></clipPath></defs></symbol><symbol viewBox="0 0 30 30" id="youtube" xmlns="http://www.w3.org/2000/svg"><g clip-path="url(#lclip0_1969_1473)"><path d="M19.6174 13.6525L12.9897 10.0261C12.6087 9.81755 12.1582 9.82534 11.7847 10.0467C11.4109 10.2682 11.188 10.6596 11.188 11.094V18.2845C11.188 18.7169 11.4095 19.1076 11.7808 19.3294C11.9747 19.4452 12.1896 19.5033 12.4049 19.5033C12.6022 19.5033 12.8 19.4546 12.982 19.3566L19.6099 15.7927C20.0033 15.581 20.2489 15.172 20.2508 14.725C20.2524 14.278 20.0097 13.8671 19.6174 13.6525ZM12.946 17.38V12.0059L17.8995 14.7163L12.946 17.38Z"/><path d="M29.7792 8.99572L29.7779 8.98199C29.7525 8.74052 29.4995 6.5927 28.4554 5.50025C27.2485 4.21531 25.8803 4.05922 25.2222 3.98437C25.1677 3.97819 25.1178 3.97247 25.0732 3.96652L25.0208 3.96103C21.0548 3.67264 15.0652 3.63327 15.0052 3.63304L14.9999 3.63281L14.9947 3.63304C14.9347 3.63327 8.94512 3.67264 4.94337 3.96103L4.8905 3.96652C4.84793 3.97224 4.80101 3.97751 4.74997 3.98346C4.09949 4.05853 2.74588 4.21486 1.53556 5.54626C0.541074 6.62703 0.2536 8.72885 0.224074 8.96505L0.220641 8.99572C0.211715 9.0962 0 11.4882 0 13.8897V16.1345C0 18.5359 0.211715 20.928 0.220641 21.0287L0.222243 21.0438C0.247649 21.2814 0.500334 23.3898 1.53968 24.4827C2.67447 25.7246 4.10933 25.889 4.88111 25.9773C5.00311 25.9913 5.10816 26.0032 5.1798 26.0158L5.24916 26.0254C7.53911 26.2433 14.7189 26.3506 15.0233 26.355L15.0324 26.3552L15.0416 26.355C15.1016 26.3547 21.0909 26.3154 25.057 26.027L25.1094 26.0215C25.1595 26.0148 25.2158 26.0089 25.2776 26.0025C25.9244 25.9338 27.2707 25.7912 28.4643 24.4779C29.4588 23.3969 29.7465 21.2951 29.7758 21.0591L29.7792 21.0284C29.7882 20.9277 30.0001 18.5359 30.0001 16.1345V13.8897C29.9999 11.4882 29.7882 9.09643 29.7792 8.99572ZM28.2418 16.1345C28.2418 18.3572 28.0478 20.6462 28.0294 20.8563C27.9548 21.4352 27.6516 22.765 27.167 23.2916C26.42 24.1135 25.6525 24.195 25.0922 24.2543C25.0245 24.2614 24.9618 24.2683 24.905 24.2754C21.0689 24.5528 15.3055 24.5953 15.04 24.5969C14.7422 24.5926 7.66751 24.4843 5.44737 24.2781C5.33361 24.2596 5.2107 24.2454 5.08116 24.2307C4.42404 24.1554 3.52454 24.0524 2.83286 23.2916L2.81661 23.2742C2.34054 22.7782 2.04597 21.5347 1.97112 20.8632C1.95716 20.7044 1.75803 18.3883 1.75803 16.1345V13.8897C1.75803 11.6695 1.95167 9.38299 1.97044 9.16853C2.05947 8.48669 2.36846 7.23746 2.83286 6.73255C3.60281 5.88569 4.41466 5.79185 4.95161 5.72982C5.00288 5.72387 5.05072 5.71838 5.09489 5.71265C8.98678 5.43388 14.7917 5.39245 14.9999 5.39085C15.2082 5.39222 21.011 5.43388 24.8684 5.71265C24.9157 5.7186 24.9675 5.72455 25.0231 5.73096C25.5754 5.79391 26.4101 5.88912 27.1762 6.70623L27.1833 6.71378C27.6593 7.20976 27.9539 8.47502 28.0288 9.16006C28.042 9.30997 28.2418 11.6311 28.2418 13.8897V16.1345Z"/></g><defs><clipPath id="lclip0_1969_1473"><rect width="30" height="29.9999"/></clipPath></defs></symbol></svg>