<?xml version="1.0" encoding="utf-8"?><svg viewBox="0 0 623 296" xmlns="http://www.w3.org/2000/svg" xmlns:xlink="http://www.w3.org/1999/xlink"><style>:root>svg{display:none}:root>svg:target{display:block}</style><svg fill="none" viewBox="0 0 30 30" id="adress" xmlns="http://www.w3.org/2000/svg"><g clip-path="url(#aa)" fill="#fff"><path d="M21.342 11.93a3.978 3.978 0 0 1 0-7.953 3.978 3.978 0 0 1 0 7.953Zm0-6.628a2.66 2.66 0 0 0-2.651 2.651 2.66 2.66 0 0 0 2.651 2.652 2.66 2.66 0 0 0 2.651-2.652 2.66 2.66 0 0 0-2.651-2.65Z"/><path d="m21.342 18.442-5.418-4.664a8 8 0 0 1-2.535-5.824C13.389 3.57 16.959 0 21.342 0c4.383 0 7.954 3.57 7.954 7.954 0 2.187-.912 4.3-2.51 5.799l-5.444 4.69Zm0-17.116a6.637 6.637 0 0 0-6.628 6.628 6.55 6.55 0 0 0 2.096 4.83l4.532 3.902 4.557-3.919a6.57 6.57 0 0 0 2.071-4.813 6.637 6.637 0 0 0-6.628-6.628ZM4.209 30l-.936-.936 1.375-1.375a2.682 2.682 0 0 0 .787-1.906c0-.655-.24-1.284-.663-1.773L2.56 21.483a7.072 7.072 0 0 1-1.765-4.68 7.075 7.075 0 0 1 3.298-6l4.772-3.032.713 1.119-4.773 3.032a5.732 5.732 0 0 0-2.684 4.88c0 1.4.506 2.76 1.433 3.811l2.212 2.527c.639.73.995 1.674.995 2.643 0 1.077-.414 2.08-1.177 2.842L4.21 30Z"/><path d="M25.32 29.827h-1.326v-.506a7.962 7.962 0 0 0-5.344-7.514l-7.084-2.46a4.193 4.193 0 0 1-1.59-6.927l1.333-1.334.937.936-1.335 1.334a2.874 2.874 0 0 0 1.094 4.739l7.084 2.47a9.276 9.276 0 0 1 6.23 8.765v.497Z"/></g><defs><clipPath id="aa"><path fill="#fff" d="M0 0h30v30H0z"/></clipPath></defs></svg><svg fill="none" viewBox="0 0 28 26" id="arrow-select" xmlns="http://www.w3.org/2000/svg"><path fill-rule="evenodd" clip-rule="evenodd" d="M6.176 8.64a1.268 1.268 0 0 1 1.65 0L14 14.153l6.175-5.513a1.268 1.268 0 0 1 1.65 0 .965.965 0 0 1 0 1.473l-6.794 6.066c-.57.509-1.493.509-2.063 0l-6.793-6.066a.965.965 0 0 1 0-1.473Z" fill="#fff" fill-opacity=".9"/></svg><svg fill="none" viewBox="0 0 51 40" id="burger" xmlns="http://www.w3.org/2000/svg"><path fill="#D9D9D9" d="M0 35h51v5H0zM0 0h51v5H0zM0 17h51v5H0z"/></svg><svg fill="none" viewBox="0 0 24 24" id="close" xmlns="http://www.w3.org/2000/svg"><path fill-rule="evenodd" clip-rule="evenodd" d="M4.26 4.26a.889.889 0 0 1 1.257 0L12 10.743l6.483-6.483a.889.889 0 0 1 1.257 1.257L13.257 12l6.483 6.483a.889.889 0 0 1-1.257 1.257L12 13.257 5.517 19.74a.889.889 0 0 1-1.257-1.257L10.743 12 4.26 5.517a.889.889 0 0 1 0-1.257Z" fill="#fff"/></svg><svg fill="none" viewBox="0 0 30 30" id="instagram" xmlns="http://www.w3.org/2000/svg"><g clip-path="url(#ea)" fill="#fff"><path d="M21.88 0H8.12C3.644 0 0 3.643 0 8.12v13.76C0 26.357 3.643 30 8.12 30h13.76c4.477 0 8.12-3.643 8.12-8.12V8.12C30 3.644 26.357 0 21.88 0Zm6.361 21.88a6.369 6.369 0 0 1-6.362 6.361H8.121a6.369 6.369 0 0 1-6.362-6.361V8.12A6.37 6.37 0 0 1 8.12 1.76h13.758a6.369 6.369 0 0 1 6.362 6.362v13.758Z"/><path d="M15 6.797c-4.523 0-8.203 3.68-8.203 8.203s3.68 8.203 8.203 8.203 8.203-3.68 8.203-8.203S19.523 6.797 15 6.797Zm0 14.647A6.452 6.452 0 0 1 8.556 15 6.452 6.452 0 0 1 15 8.556 6.452 6.452 0 0 1 21.444 15 6.451 6.451 0 0 1 15 21.444ZM23.399 3.885a2.427 2.427 0 0 0-2.424 2.424A2.427 2.427 0 0 0 23.4 8.733a2.427 2.427 0 0 0 2.424-2.424 2.427 2.427 0 0 0-2.424-2.424Zm0 3.089a.666.666 0 1 1 .002-1.332.666.666 0 0 1-.002 1.332Z"/></g><defs><clipPath id="ea"><path fill="#fff" d="M0 0h30v30H0z"/></clipPath></defs></svg><svg fill="none" viewBox="0 0 30 30" id="mail" xmlns="http://www.w3.org/2000/svg"><path d="M23.75 12.532V6.25c0-1.379-1.121-2.5-2.5-2.5H2.5A2.502 2.502 0 0 0 0 6.25v12.5c0 1.379 1.121 2.5 2.5 2.5h14.017c.818 2.881 3.468 5 6.608 5a6.871 6.871 0 0 0 3.438-.92.625.625 0 1 0-.626-1.082 5.624 5.624 0 0 1-2.812.752 5.631 5.631 0 0 1-5.625-5.625 5.631 5.631 0 0 1 5.625-5.625 5.631 5.631 0 0 1 5.625 5.625V20c0 .69-.561 1.25-1.25 1.25-.69 0-1.25-.56-1.25-1.25v-2.5a.625.625 0 0 0-1.056-.45 3.1 3.1 0 0 0-2.069-.8A3.129 3.129 0 0 0 20 19.375a3.129 3.129 0 0 0 3.125 3.125c.931 0 1.76-.418 2.333-1.067A2.495 2.495 0 0 0 30 20v-.625c0-3.58-2.751-6.526-6.25-6.843ZM2.5 5h18.75c.026 0 .048.013.073.015l-8.934 7.334c-.318.2-.779.158-.986.031L2.427 5.015C2.453 5.013 2.474 5 2.5 5Zm20 7.532c-3.499.317-6.25 3.263-6.25 6.843 0 .211.013.419.032.625H2.5c-.689 0-1.25-.56-1.25-1.25V6.25c0-.177.04-.344.106-.497l9.31 7.634c.363.238.781.363 1.21.363a2.21 2.21 0 0 0 1.267-.403l9.251-7.594c.067.153.106.32.106.497v6.282Zm.625 8.718a1.877 1.877 0 0 1-1.875-1.875c0-1.034.841-1.875 1.875-1.875S25 18.341 25 19.375a1.877 1.877 0 0 1-1.875 1.875Z" fill="#fff"/></svg><svg fill="none" viewBox="0 0 623 296" id="main-title" xmlns="http://www.w3.org/2000/svg"><mask id="ga" maskUnits="userSpaceOnUse" x="167" y="129" width="419" height="126" fill="#000"><path fill="#fff" d="M167 129h419v126H167z"/><path d="M230.04 252.8c-8.32 0-16.213-1.6-23.68-4.8-7.36-3.2-13.813-7.52-19.36-12.96-5.44-5.547-9.76-12-12.96-19.36-3.2-7.36-4.8-15.253-4.8-23.68 0-8.32 1.6-16.16 4.8-23.52 3.2-7.36 7.52-13.76 12.96-19.2 5.547-5.547 12-9.92 19.36-13.12 7.467-3.2 15.36-4.8 23.68-4.8 6.613 0 12.96 1.013 19.04 3.04 6.08 2.027 11.627 4.907 16.64 8.64 5.12 3.627 9.547 8 13.28 13.12 3.84 5.12 6.773 10.827 8.8 17.12l-38.56 5.12c-2.24-3.093-5.067-5.547-8.48-7.36-3.413-1.813-6.987-2.72-10.72-2.72-3.2 0-6.24.64-9.12 1.92a22.974 22.974 0 0 0-7.36 4.96c-2.133 2.133-3.84 4.64-5.12 7.52-1.173 2.88-1.76 5.973-1.76 9.28 0 3.2.587 6.293 1.76 9.28 1.28 2.88 2.987 5.387 5.12 7.52a25.342 25.342 0 0 0 7.36 5.12c2.88 1.28 5.92 1.92 9.12 1.92 3.733 0 7.307-.907 10.72-2.72 3.413-1.813 6.24-4.267 8.48-7.36l38.56 5.12A60.595 60.595 0 0 1 279 228a60.307 60.307 0 0 1-13.28 13.28c-5.013 3.627-10.56 6.453-16.64 8.48s-12.427 3.04-19.04 3.04ZM336.561 136v74.72h18.72V136h37.28v74.72h18.72V136h37.28v112h-149.28V136h37.28Zm209.024 0 37.28 112h-39.2l-3.04-9.28h-41.92l-3.04 9.28h-39.2l37.28-112h51.84Zm-37.44 74.72h23.2l-11.68-34.88-11.52 34.88Z"/></mask><path d="m206.36 248-.797 1.834.009.004.788-1.838ZM187 235.04l-1.428 1.4.014.014.014.014 1.4-1.428Zm-12.96-19.36-1.834.797 1.834-.797Zm0-47.2 1.834.797-1.834-.797Zm12.96-19.2-1.414-1.414L187 149.28Zm19.36-13.12-.788-1.838-.009.004.797 1.834Zm42.72-1.76.632-1.897-.632 1.897Zm16.64 8.64-1.195 1.604.02.014.019.014 1.156-1.632ZM279 156.16l-1.616 1.178.008.011.008.011 1.6-1.2Zm8.8 17.12.263 1.983 2.375-.316-.734-2.28-1.904.613Zm-38.56 5.12-1.62 1.173.7.967 1.183-.157-.263-1.983Zm-8.48-7.36.938-1.766-.938 1.766Zm-19.84-.8.779 1.842.017-.007.016-.007-.812-1.828Zm-7.36 4.96 1.414 1.414-1.414-1.414Zm-5.12 7.52-1.828-.812-.012.028-.012.029 1.852.755Zm0 18.56-1.862.731.017.041.017.04 1.828-.812Zm5.12 7.52-1.414 1.414 1.414-1.414Zm7.36 5.12-.838 1.816.013.006.013.006.812-1.828Zm19.84-.8.938 1.766-.938-1.766Zm8.48-7.36.263-1.983-1.183-.157-.7.967 1.62 1.173Zm38.56 5.12 1.901.623.749-2.289-2.387-.317-.263 1.983ZM279 228l-1.612-1.184-.004.006L279 228Zm-13.28 13.28 1.172 1.62.006-.004-1.178-1.616Zm-16.64 8.48.632 1.897-.632-1.897Zm-19.04 1.04c-8.056 0-15.681-1.548-22.892-4.638l-1.576 3.676c7.722 3.31 15.884 4.962 24.468 4.962v-4Zm-22.883-4.634c-7.143-3.106-13.39-7.291-18.757-12.554l-2.8 2.856c5.726 5.617 12.386 10.072 19.963 13.366l1.594-3.668Zm-18.729-12.526c-5.263-5.367-9.448-11.614-12.554-18.757l-3.668 1.594c3.294 7.577 7.749 14.237 13.366 19.963l2.856-2.8Zm-12.554-18.757c-3.085-7.096-4.634-14.717-4.634-22.883h-4c0 8.687 1.651 16.853 4.966 24.477l3.668-1.594ZM171.24 192c0-8.056 1.548-15.623 4.634-22.723l-3.668-1.594c-3.314 7.62-4.966 15.733-4.966 24.317h4Zm4.634-22.723c3.104-7.14 7.285-13.328 12.54-18.583l-2.828-2.828c-5.625 5.625-10.084 12.237-13.38 19.817l3.668 1.594Zm12.54-18.583c5.365-5.365 11.608-9.598 18.743-12.7l-1.594-3.668c-7.585 3.298-14.249 7.812-19.977 13.54l2.828 2.828Zm18.734-12.696c7.211-3.09 14.836-4.638 22.892-4.638v-4c-8.584 0-16.746 1.652-24.468 4.962l1.576 3.676Zm22.892-4.638c6.405 0 12.538.981 18.408 2.937l1.264-3.794c-6.29-2.097-12.851-3.143-19.672-3.143v4Zm18.408 2.937c5.883 1.961 11.239 4.744 16.077 8.347l2.39-3.208c-5.189-3.864-10.926-6.841-17.203-8.933l-1.264 3.794Zm16.116 8.375a55.429 55.429 0 0 1 12.82 12.666l3.232-2.356a59.395 59.395 0 0 0-13.74-13.574l-2.312 3.264ZM277.4 157.36c3.703 4.937 6.535 10.444 8.496 16.533l3.808-1.226c-2.093-6.497-5.127-12.404-9.104-17.707l-3.2 2.4Zm10.137 13.937-38.56 5.12.526 3.966 38.56-5.12-.526-3.966Zm-36.677 5.93c-2.421-3.344-5.482-5.999-9.162-7.953l-1.876 3.532c3.147 1.672 5.739 3.924 7.798 6.767l3.24-2.346Zm-9.162-7.953c-3.691-1.961-7.586-2.954-11.658-2.954v4c3.394 0 6.647.821 9.782 2.486l1.876-3.532Zm-11.658-2.954a24.21 24.21 0 0 0-9.932 2.092l1.624 3.656a20.203 20.203 0 0 1 8.308-1.748v-4Zm-9.899 2.078a24.978 24.978 0 0 0-7.995 5.388l2.828 2.828a20.998 20.998 0 0 1 6.725-4.532l-1.558-3.684Zm-7.995 5.388c-2.315 2.314-4.158 5.028-5.534 8.122l3.656 1.624c1.184-2.666 2.754-4.966 4.706-6.918l-2.828-2.828Zm-5.558 8.179c-1.277 3.135-1.908 6.486-1.908 10.035h4c0-3.065.543-5.9 1.612-8.525l-3.704-1.51ZM204.68 192c0 3.451.634 6.792 1.898 10.011l3.724-1.462A23.147 23.147 0 0 1 208.68 192h-4Zm1.932 10.092c1.376 3.094 3.219 5.808 5.534 8.122l2.828-2.828c-1.952-1.952-3.522-4.252-4.706-6.918l-3.656 1.624Zm5.534 8.122a27.343 27.343 0 0 0 7.936 5.522l1.676-3.632a23.341 23.341 0 0 1-6.784-4.718l-2.828 2.828Zm7.962 5.534a24.21 24.21 0 0 0 9.932 2.092v-4c-2.925 0-5.687-.583-8.308-1.748l-1.624 3.656Zm9.932 2.092c4.072 0 7.967-.993 11.658-2.954l-1.876-3.532c-3.135 1.665-6.388 2.486-9.782 2.486v4Zm11.658-2.954c3.68-1.954 6.741-4.609 9.162-7.953l-3.24-2.346c-2.059 2.843-4.651 5.095-7.798 6.767l1.876 3.532Zm7.279-7.143 38.56 5.12.526-3.966-38.56-5.12-.526 3.966Zm36.922 2.514a58.577 58.577 0 0 1-8.511 16.559l3.224 2.368a62.6 62.6 0 0 0 9.089-17.681l-3.802-1.246Zm-8.515 16.565a58.33 58.33 0 0 1-12.842 12.842l2.356 3.232a62.328 62.328 0 0 0 13.718-13.718l-3.232-2.356Zm-12.836 12.838c-4.843 3.503-10.206 6.238-16.1 8.203l1.264 3.794c6.266-2.088 11.996-5.006 17.18-8.757l-2.344-3.24Zm-16.1 8.203c-5.87 1.956-12.003 2.937-18.408 2.937v4c6.821 0 13.382-1.046 19.672-3.143l-1.264-3.794ZM336.561 136h2v-2h-2v2Zm0 74.72h-2v2h2v-2Zm18.72 0v2h2v-2h-2Zm0-74.72v-2h-2v2h2Zm37.28 0h2v-2h-2v2Zm0 74.72h-2v2h2v-2Zm18.72 0v2h2v-2h-2Zm0-74.72v-2h-2v2h2Zm37.28 0h2v-2h-2v2Zm0 112v2h2v-2h-2Zm-149.28 0h-2v2h2v-2Zm0-112v-2h-2v2h2Zm35.28 0v74.72h4V136h-4Zm2 76.72h18.72v-4h-18.72v4Zm20.72-2V136h-4v74.72h4Zm-2-72.72h37.28v-4h-37.28v4Zm35.28-2v74.72h4V136h-4Zm2 76.72h18.72v-4h-18.72v4Zm20.72-2V136h-4v74.72h4Zm-2-72.72h37.28v-4h-37.28v4Zm35.28-2v112h4V136h-4Zm2 110h-149.28v4h149.28v-4Zm-147.28 2V136h-4v112h4Zm-2-110h37.28v-4h-37.28v4Zm246.304-2 1.898-.632-.456-1.368h-1.442v2Zm37.28 112v2h2.774l-.876-2.632-1.898.632Zm-39.2 0-1.901.623.452 1.377h1.449v-2Zm-3.04-9.28 1.901-.623-.452-1.377h-1.449v2Zm-41.92 0v-2h-1.449l-.452 1.377 1.901.623Zm-3.04 9.28v2h1.449l.452-1.377-1.901-.623Zm-39.2 0-1.898-.632-.876 2.632h2.774v-2Zm37.28-112v-2h-1.442l-.456 1.368 1.898.632Zm14.4 74.72-1.899-.627-.868 2.627h2.767v-2Zm23.2 0v2h2.779l-.883-2.635-1.896.635Zm-11.68-34.88 1.896-.635-1.909-5.703-1.886 5.711 1.899.627Zm24.022-39.208 37.28 112 3.796-1.264-37.28-112-3.796 1.264ZM582.865 246h-39.2v4h39.2v-4Zm-37.299 1.377-3.04-9.28-3.802 1.246 3.04 9.28 3.802-1.246Zm-4.941-10.657h-41.92v4h41.92v-4Zm-43.821 1.377-3.04 9.28 3.802 1.246 3.04-9.28-3.802-1.246ZM495.665 246h-39.2v4h39.2v-4Zm-37.302 2.632 37.28-112-3.796-1.264-37.28 112 3.796 1.264ZM493.745 138h51.84v-4h-51.84v4Zm14.4 74.72h23.2v-4h-23.2v4Zm25.096-2.635-11.68-34.88-3.792 1.27 11.68 34.88 3.792-1.27Zm-15.475-34.872-11.52 34.88 3.798 1.254 11.52-34.88-3.798-1.254Z" fill="#22ADAA" mask="url(#ga)"/><mask id="gb" maskUnits="userSpaceOnUse" x="0" y="2" width="545" height="116" fill="#000"><path fill="#fff" d="M0 2h545v116H0z"/><path d="m36.36 6 13.98 42h-14.7l-1.14-3.48H18.78L17.64 48H2.94L16.92 6h19.44ZM22.32 34.02h8.7l-4.38-13.08-4.32 13.08ZM55.717 48V6h28.86c2.04 0 3.88.34 5.52 1.02 1.64.68 3.02 1.58 4.14 2.7 1.16 1.12 2.04 2.42 2.64 3.9.6 1.48.9 3.04.9 4.68 0 1.8-.34 3.46-1.02 4.98-.68 1.48-1.54 2.7-2.58 3.66 1.04.96 1.86 2.2 2.46 3.72.64 1.52.96 3.16.96 4.92 0 1.64-.3 3.22-.9 4.74-.56 1.48-1.4 2.8-2.52 3.96-1.12 1.12-2.5 2.02-4.14 2.7-1.6.68-3.42 1.02-5.46 1.02h-28.86Zm14.1-26.28h11.22c.72 0 1.34-.24 1.86-.72.52-.52.78-1.16.78-1.92 0-.72-.26-1.32-.78-1.8-.52-.52-1.14-.78-1.86-.78h-11.22v5.22Zm0 15.78h11.22c.72 0 1.34-.26 1.86-.78s.78-1.16.78-1.92c0-.72-.26-1.32-.78-1.8-.52-.52-1.14-.78-1.86-.78h-11.22v5.28ZM145.747 6v13.98h-13.98V48h-14.04V19.98h-13.98V6h42Zm27 43.8c-3.12 0-6.08-.6-8.88-1.8-2.76-1.2-5.18-2.82-7.26-4.86-2.04-2.08-3.66-4.5-4.86-7.26-1.2-2.76-1.8-5.7-1.8-8.82s.6-6.06 1.8-8.82c1.2-2.8 2.82-5.22 4.86-7.26 2.08-2.08 4.5-3.72 7.26-4.92 2.8-1.2 5.76-1.8 8.88-1.8 3.12 0 6.06.6 8.82 1.8 2.76 1.2 5.16 2.84 7.2 4.92 2.08 2.04 3.72 4.46 4.92 7.26 1.2 2.76 1.8 5.7 1.8 8.82s-.6 6.06-1.8 8.82c-1.2 2.76-2.84 5.18-4.92 7.26-2.04 2.04-4.44 3.66-7.2 4.86-2.76 1.2-5.7 1.8-8.82 1.8Zm0-13.86c1.2 0 2.32-.22 3.36-.66a9.27 9.27 0 0 0 2.82-1.92c.8-.8 1.42-1.74 1.86-2.82.48-1.08.72-2.24.72-3.48 0-1.24-.24-2.4-.72-3.48a8.451 8.451 0 0 0-1.86-2.82c-.8-.84-1.74-1.48-2.82-1.92a7.92 7.92 0 0 0-3.36-.72c-1.2 0-2.34.24-3.42.72a8.038 8.038 0 0 0-2.82 1.92c-.8.8-1.44 1.74-1.92 2.82a9.134 9.134 0 0 0-.66 3.48c0 1.24.22 2.4.66 3.48a9.27 9.27 0 0 0 1.92 2.82c.8.8 1.74 1.44 2.82 1.92 1.08.44 2.22.66 3.42.66ZM216.659 6l16.32 16.56L249.299 6h13.98v42h-13.98V25.32l-16.32 15.66-16.32-15.66V48h-13.98V6h13.98Zm75.469 43.8c-3.12 0-6.08-.6-8.88-1.8-2.76-1.2-5.18-2.82-7.26-4.86-2.04-2.08-3.66-4.5-4.86-7.26-1.2-2.76-1.8-5.7-1.8-8.82s.6-6.06 1.8-8.82c1.2-2.8 2.82-5.22 4.86-7.26 2.08-2.08 4.5-3.72 7.26-4.92 2.8-1.2 5.76-1.8 8.88-1.8 3.12 0 6.06.6 8.82 1.8 2.76 1.2 5.16 2.84 7.2 4.92 2.08 2.04 3.72 4.46 4.92 7.26 1.2 2.76 1.8 5.7 1.8 8.82s-.6 6.06-1.8 8.82c-1.2 2.76-2.84 5.18-4.92 7.26-2.04 2.04-4.44 3.66-7.2 4.86-2.76 1.2-5.7 1.8-8.82 1.8Zm0-13.86c1.2 0 2.32-.22 3.36-.66a9.27 9.27 0 0 0 2.82-1.92c.8-.8 1.42-1.74 1.86-2.82.48-1.08.72-2.24.72-3.48 0-1.24-.24-2.4-.72-3.48a8.451 8.451 0 0 0-1.86-2.82c-.8-.84-1.74-1.48-2.82-1.92a7.92 7.92 0 0 0-3.36-.72c-1.2 0-2.34.24-3.42.72a8.038 8.038 0 0 0-2.82 1.92c-.8.8-1.44 1.74-1.92 2.82a9.134 9.134 0 0 0-.66 3.48c0 1.24.22 2.4.66 3.48a9.27 9.27 0 0 0 1.92 2.82c.8.8 1.74 1.44 2.82 1.92 1.08.44 2.22.66 3.42.66ZM320.948 6h38.52v10.5h-24.54v5.22h14.88c1.8 0 3.5.36 5.1 1.08 1.6.68 3 1.62 4.2 2.82 1.2 1.16 2.14 2.54 2.82 4.14.68 1.6 1.02 3.3 1.02 5.1 0 1.8-.34 3.5-1.02 5.1-.68 1.6-1.62 3-2.82 4.2-1.2 1.2-2.6 2.14-4.2 2.82-1.6.68-3.3 1.02-5.1 1.02h-28.86V6Zm13.98 26.22v5.28h11.4c.72 0 1.34-.26 1.86-.78s.78-1.14.78-1.86c0-.72-.26-1.34-.78-1.86s-1.14-.78-1.86-.78h-11.4ZM397.585 48V28.08L383.545 48h-13.98V6h13.98v19.92L397.585 6h13.98v42h-13.98Zm52.32-42 13.98 42h-14.76l-9-27.06-9 27.06h-14.76l13.98-42h19.56Zm47.374 42V28.08L483.239 48h-13.98V6h13.98v19.92L497.279 6h13.98v42h-13.98ZM16.92 72v13.98h14.04V72h13.98v42H30.96v-13.98H16.92V114H2.94V72h13.98Zm66.24 0 13.98 42h-14.7l-1.14-3.48H65.58L64.44 114h-14.7l13.98-42h19.44Zm-14.04 28.02h8.7l-4.38-13.08-4.32 13.08ZM144.577 72v42h-13.98V85.98h-14.04V114h-13.98V72h42Zm7.728 42V72h24.48c2.4 0 4.66.46 6.78 1.38 2.16.92 4.02 2.18 5.58 3.78 1.6 1.56 2.86 3.42 3.78 5.58.92 2.12 1.38 4.38 1.38 6.78 0 2.4-.46 4.66-1.38 6.78-.92 2.12-2.18 3.98-3.78 5.58-1.56 1.56-3.42 2.8-5.58 3.72-2.12.92-4.38 1.38-6.78 1.38h-10.5V114h-13.98Zm13.98-21h10.5c1 0 1.84-.34 2.52-1.02.68-.68 1.02-1.5 1.02-2.46 0-1-.34-1.84-1.02-2.52-.68-.68-1.52-1.02-2.52-1.02h-10.5V93Zm50.972-21h24.48v42h-13.98v-7.02h-4.2l-4.92 7.02h-15.42l6.18-8.82a17.78 17.78 0 0 1-3.96-2.7c-1.16-1.08-2.16-2.3-3-3.66-.84-1.36-1.5-2.82-1.98-4.38s-.72-3.2-.72-4.92c0-2.4.46-4.66 1.38-6.78.92-2.16 2.16-4.02 3.72-5.58 1.6-1.6 3.46-2.86 5.58-3.78 2.16-.92 4.44-1.38 6.84-1.38Zm0 13.98c-1 0-1.84.34-2.52 1.02-.68.68-1.02 1.52-1.02 2.52 0 .96.34 1.78 1.02 2.46.68.68 1.52 1.02 2.52 1.02h10.5v-7.02h-10.5ZM263.459 72l16.32 16.56L296.099 72h13.98v42h-13.98V91.32l-16.32 15.66-16.32-15.66V114h-13.98V72h13.98Zm66.739 0 7.02 21h4.02l6.96-21h14.7l-13.98 42h-14.7l2.34-7.02h-9.42L315.498 72h14.7Zm38.136 0h13.98v16.02h4.02c.56-2.52 1.52-4.86 2.88-7.02 1.4-2.2 3.06-4.08 4.98-5.64 1.96-1.6 4.16-2.84 6.6-3.72 2.44-.92 5.02-1.38 7.74-1.38 3.12 0 6.06.6 8.82 1.8 2.76 1.2 5.16 2.84 7.2 4.92 2.08 2.04 3.72 4.46 4.92 7.26 1.2 2.76 1.8 5.7 1.8 8.82s-.6 6.06-1.8 8.82c-1.2 2.76-2.84 5.18-4.92 7.26-2.04 2.04-4.44 3.66-7.2 4.86-2.76 1.2-5.7 1.8-8.82 1.8-2.72 0-5.3-.46-7.74-1.38-2.44-.88-4.64-2.12-6.6-3.72s-3.64-3.48-5.04-5.64a22.004 22.004 0 0 1-2.88-7.08h-3.96V114h-13.98V72Zm40.2 29.94c1.2 0 2.32-.22 3.36-.66a9.27 9.27 0 0 0 2.82-1.92c.8-.8 1.42-1.74 1.86-2.82.48-1.08.72-2.24.72-3.48 0-1.24-.24-2.4-.72-3.48a8.451 8.451 0 0 0-1.86-2.82c-.8-.84-1.74-1.48-2.82-1.92a7.92 7.92 0 0 0-3.36-.72c-1.2 0-2.34.24-3.42.72a8.038 8.038 0 0 0-2.82 1.92c-.8.8-1.44 1.74-1.92 2.82a9.134 9.134 0 0 0-.66 3.48c0 1.24.22 2.4.66 3.48a9.27 9.27 0 0 0 1.92 2.82c.8.8 1.74 1.44 2.82 1.92 1.08.44 2.22.66 3.42.66ZM483.861 114V94.08L469.821 114h-13.98V72h13.98v19.92L483.861 72h13.98v42h-13.98Zm21.168-42h24.3c2.04 0 3.86.34 5.46 1.02 1.64.68 3.02 1.58 4.14 2.7 1.12 1.12 1.98 2.42 2.58 3.9.6 1.48.9 3.02.9 4.62 0 2.04-.42 3.78-1.26 5.22-.8 1.4-1.74 2.56-2.82 3.48 1.08.92 2.02 2.1 2.82 3.54.84 1.44 1.26 3.18 1.26 5.22 0 1.6-.3 3.16-.9 4.68-.6 1.48-1.46 2.78-2.58 3.9s-2.5 2.02-4.14 2.7c-1.6.68-3.42 1.02-5.46 1.02h-24.3v-10.5h20.76c.72 0 1.34-.26 1.86-.78s.78-1.16.78-1.92c0-.72-.26-1.32-.78-1.8-.52-.52-1.14-.78-1.86-.78h-17.28v-10.5h17.28c.72 0 1.34-.24 1.86-.72.52-.52.78-1.16.78-1.92 0-.72-.26-1.32-.78-1.8-.52-.52-1.14-.78-1.86-.78h-20.76V72Z"/></mask><path d="m216.659 6 16.32 16.56L249.299 6h13.98v42h-13.98V25.32l-16.32 15.66-16.32-15.66V48h-13.98V6h13.98Zm75.469 43.8c-3.12 0-6.08-.6-8.88-1.8-2.76-1.2-5.18-2.82-7.26-4.86-2.04-2.08-3.66-4.5-4.86-7.26-1.2-2.76-1.8-5.7-1.8-8.82s.6-6.06 1.8-8.82c1.2-2.8 2.82-5.22 4.86-7.26 2.08-2.08 4.5-3.72 7.26-4.92 2.8-1.2 5.76-1.8 8.88-1.8 3.12 0 6.06.6 8.82 1.8 2.76 1.2 5.16 2.84 7.2 4.92 2.08 2.04 3.72 4.46 4.92 7.26 1.2 2.76 1.8 5.7 1.8 8.82s-.6 6.06-1.8 8.82c-1.2 2.76-2.84 5.18-4.92 7.26-2.04 2.04-4.44 3.66-7.2 4.86-2.76 1.2-5.7 1.8-8.82 1.8Zm0-13.86c1.2 0 2.32-.22 3.36-.66a9.27 9.27 0 0 0 2.82-1.92c.8-.8 1.42-1.74 1.86-2.82.48-1.08.72-2.24.72-3.48 0-1.24-.24-2.4-.72-3.48a8.451 8.451 0 0 0-1.86-2.82c-.8-.84-1.74-1.48-2.82-1.92a7.92 7.92 0 0 0-3.36-.72c-1.2 0-2.34.24-3.42.72a8.038 8.038 0 0 0-2.82 1.92c-.8.8-1.44 1.74-1.92 2.82a9.134 9.134 0 0 0-.66 3.48c0 1.24.22 2.4.66 3.48a9.27 9.27 0 0 0 1.92 2.82c.8.8 1.74 1.44 2.82 1.92 1.08.44 2.22.66 3.42.66ZM320.948 6h38.52v10.5h-24.54v5.22h14.88c1.8 0 3.5.36 5.1 1.08 1.6.68 3 1.62 4.2 2.82 1.2 1.16 2.14 2.54 2.82 4.14.68 1.6 1.02 3.3 1.02 5.1 0 1.8-.34 3.5-1.02 5.1-.68 1.6-1.62 3-2.82 4.2-1.2 1.2-2.6 2.14-4.2 2.82-1.6.68-3.3 1.02-5.1 1.02h-28.86V6Zm13.98 26.22v5.28h11.4c.72 0 1.34-.26 1.86-.78s.78-1.14.78-1.86c0-.72-.26-1.34-.78-1.86s-1.14-.78-1.86-.78h-11.4ZM397.585 48V28.08L383.545 48h-13.98V6h13.98v19.92L397.585 6h13.98v42h-13.98Zm52.32-42 13.98 42h-14.76l-9-27.06-9 27.06h-14.76l13.98-42h19.56Zm47.374 42V28.08L483.239 48h-13.98V6h13.98v19.92L497.279 6h13.98v42h-13.98ZM16.92 72v13.98h14.04V72h13.98v42H30.96v-13.98H16.92V114H2.94V72h13.98Zm66.24 0 13.98 42h-14.7l-1.14-3.48H65.58L64.44 114h-14.7l13.98-42h19.44Zm-14.04 28.02h8.7l-4.38-13.08-4.32 13.08ZM144.577 72v42h-13.98V85.98h-14.04V114h-13.98V72h42Zm7.728 42V72h24.48c2.4 0 4.66.46 6.78 1.38 2.16.92 4.02 2.18 5.58 3.78 1.6 1.56 2.86 3.42 3.78 5.58.92 2.12 1.38 4.38 1.38 6.78 0 2.4-.46 4.66-1.38 6.78-.92 2.12-2.18 3.98-3.78 5.58-1.56 1.56-3.42 2.8-5.58 3.72-2.12.92-4.38 1.38-6.78 1.38h-10.5V114h-13.98Zm13.98-21h10.5c1 0 1.84-.34 2.52-1.02.68-.68 1.02-1.5 1.02-2.46 0-1-.34-1.84-1.02-2.52-.68-.68-1.52-1.02-2.52-1.02h-10.5V93Zm50.972-21h24.48v42h-13.98v-7.02h-4.2l-4.92 7.02h-15.42l6.18-8.82a17.78 17.78 0 0 1-3.96-2.7c-1.16-1.08-2.16-2.3-3-3.66-.84-1.36-1.5-2.82-1.98-4.38s-.72-3.2-.72-4.92c0-2.4.46-4.66 1.38-6.78.92-2.16 2.16-4.02 3.72-5.58 1.6-1.6 3.46-2.86 5.58-3.78 2.16-.92 4.44-1.38 6.84-1.38Zm0 13.98c-1 0-1.84.34-2.52 1.02-.68.68-1.02 1.52-1.02 2.52 0 .96.34 1.78 1.02 2.46.68.68 1.52 1.02 2.52 1.02h10.5v-7.02h-10.5ZM263.459 72l16.32 16.56L296.099 72h13.98v42h-13.98V91.32l-16.32 15.66-16.32-15.66V114h-13.98V72h13.98Zm66.739 0 7.02 21h4.02l6.96-21h14.7l-13.98 42h-14.7l2.34-7.02h-9.42L315.498 72h14.7Zm38.136 0h13.98v16.02h4.02c.56-2.52 1.52-4.86 2.88-7.02 1.4-2.2 3.06-4.08 4.98-5.64 1.96-1.6 4.16-2.84 6.6-3.72 2.44-.92 5.02-1.38 7.74-1.38 3.12 0 6.06.6 8.82 1.8 2.76 1.2 5.16 2.84 7.2 4.92 2.08 2.04 3.72 4.46 4.92 7.26 1.2 2.76 1.8 5.7 1.8 8.82s-.6 6.06-1.8 8.82c-1.2 2.76-2.84 5.18-4.92 7.26-2.04 2.04-4.44 3.66-7.2 4.86-2.76 1.2-5.7 1.8-8.82 1.8-2.72 0-5.3-.46-7.74-1.38-2.44-.88-4.64-2.12-6.6-3.72s-3.64-3.48-5.04-5.64a22.004 22.004 0 0 1-2.88-7.08h-3.96V114h-13.98V72Zm40.2 29.94c1.2 0 2.32-.22 3.36-.66a9.27 9.27 0 0 0 2.82-1.92c.8-.8 1.42-1.74 1.86-2.82.48-1.08.72-2.24.72-3.48 0-1.24-.24-2.4-.72-3.48a8.451 8.451 0 0 0-1.86-2.82c-.8-.84-1.74-1.48-2.82-1.92a7.92 7.92 0 0 0-3.36-.72c-1.2 0-2.34.24-3.42.72a8.038 8.038 0 0 0-2.82 1.92c-.8.8-1.44 1.74-1.92 2.82a9.134 9.134 0 0 0-.66 3.48c0 1.24.22 2.4.66 3.48a9.27 9.27 0 0 0 1.92 2.82c.8.8 1.74 1.44 2.82 1.92 1.08.44 2.22.66 3.42.66ZM483.861 114V94.08L469.821 114h-13.98V72h13.98v19.92L483.861 72h13.98v42h-13.98Zm21.168-42h24.3c2.04 0 3.86.34 5.46 1.02 1.64.68 3.02 1.58 4.14 2.7 1.12 1.12 1.98 2.42 2.58 3.9.6 1.48.9 3.02.9 4.62 0 2.04-.42 3.78-1.26 5.22-.8 1.4-1.74 2.56-2.82 3.48 1.08.92 2.02 2.1 2.82 3.54.84 1.44 1.26 3.18 1.26 5.22 0 1.6-.3 3.16-.9 4.68-.6 1.48-1.46 2.78-2.58 3.9s-2.5 2.02-4.14 2.7c-1.6.68-3.42 1.02-5.46 1.02h-24.3v-10.5h20.76c.72 0 1.34-.26 1.86-.78s.78-1.16.78-1.92c0-.72-.26-1.32-.78-1.8-.52-.52-1.14-.78-1.86-.78h-17.28v-10.5h17.28c.72 0 1.34-.24 1.86-.72.52-.52.78-1.16.78-1.92 0-.72-.26-1.32-.78-1.8-.52-.52-1.14-.78-1.86-.78h-20.76V72Z" fill="#22ADAA"/><path d="m36.36 6 1.898-.632L37.802 4H36.36v2Zm13.98 42v2h2.774l-.876-2.632L50.34 48Zm-14.7 0-1.9.623.45 1.377h1.45v-2Zm-1.14-3.48 1.9-.623-.45-1.377H34.5v2Zm-15.72 0v-2h-1.45l-.45 1.377 1.9.623ZM17.64 48v2h1.45l.45-1.377-1.9-.623Zm-14.7 0-1.898-.632L.166 50H2.94v-2ZM16.92 6V4h-1.442l-.456 1.368L16.92 6Zm5.4 28.02-1.9-.627-.867 2.627h2.767v-2Zm8.7 0v2h2.779l-.883-2.635-1.896.635Zm-4.38-13.08 1.896-.635-1.91-5.703-1.885 5.71 1.899.628Zm7.822-14.308 13.98 42 3.796-1.264-13.98-42-3.796 1.264ZM50.34 46h-14.7v4h14.7v-4Zm-12.8 1.377-1.14-3.48-3.8 1.246 1.14 3.48 3.8-1.246ZM34.5 42.52H18.78v4H34.5v-4Zm-17.62 1.377-1.14 3.48 3.8 1.246 1.14-3.48-3.8-1.246ZM17.64 46H2.94v4h14.7v-4ZM4.838 48.632l13.98-42-3.796-1.264-13.98 42 3.796 1.264ZM16.92 8h19.44V4H16.92v4Zm5.4 28.02h8.7v-4h-8.7v4Zm10.596-2.635-4.38-13.08-3.793 1.27 4.38 13.08 3.793-1.27Zm-8.175-13.072-4.32 13.08 3.798 1.254 4.32-13.08-3.798-1.254ZM55.717 48h-2v2h2v-2Zm0-42V4h-2v2h2Zm38.52 3.72-1.415 1.414.013.013.012.012 1.39-1.439Zm2.64 3.9-1.854.751 1.854-.751Zm-.12 9.66 1.817.835.004-.01.004-.008-1.825-.817Zm-2.58 3.66-1.357-1.47-1.592 1.47 1.592 1.47 1.357-1.47Zm2.46 3.72-1.86.734.007.021.01.021 1.843-.776Zm.06 9.66-1.86-.734-.006.013-.005.013 1.87.708Zm-2.52 3.96 1.414 1.414.012-.012.012-.013-1.438-1.389Zm-4.14 2.7-.767-1.847-.008.003-.008.003.783 1.841Zm-20.22-25.26h-2v2h2v-2Zm13.08-.72 1.356 1.47.03-.027.028-.029L82.897 21Zm0-3.72-1.415 1.414.029.029.029.027 1.357-1.47Zm-13.08-.78v-2h-2v2h2Zm0 21h-2v2h2v-2Zm13.08-.78 1.414 1.414-1.414-1.414Zm0-3.72-1.415 1.414.029.029.029.027L82.897 33Zm-13.08-.78v-2h-2v2h2ZM57.717 48V6h-4v42h4Zm-2-40h28.86V4h-28.86v4Zm28.86 0c1.816 0 3.39.302 4.754.867l1.532-3.694C88.946 4.378 86.84 4 84.577 4v4Zm4.754.867c1.426.592 2.578 1.354 3.491 2.267l2.829-2.828c-1.327-1.327-2.935-2.365-4.788-3.133L89.33 8.867Zm3.516 2.292a9.233 9.233 0 0 1 2.176 3.212l3.707-1.502a13.233 13.233 0 0 0-3.104-4.588l-2.779 2.878Zm2.176 3.212c.5 1.235.754 2.54.754 3.929h4c0-1.89-.348-3.706-1.047-5.431l-3.707 1.502Zm.754 3.929c0 1.542-.29 2.92-.846 4.163l3.651 1.634c.804-1.798 1.195-3.739 1.195-5.797h-4Zm-.838 4.145c-.586 1.276-1.3 2.27-2.119 3.025l2.713 2.94c1.261-1.164 2.267-2.611 3.04-4.295l-3.634-1.67ZM92.82 28.41c.787.726 1.45 1.701 1.956 2.984l3.72-1.468c-.692-1.757-1.67-3.262-2.963-4.456l-2.713 2.94Zm1.973 3.026c.53 1.258.804 2.632.804 4.144h4c0-2.008-.367-3.914-1.117-5.696l-3.687 1.552Zm.804 4.144c0 1.39-.253 2.72-.76 4.006l3.72 1.468a14.797 14.797 0 0 0 1.04-5.474h-4Zm-.771 4.032a9.52 9.52 0 0 1-2.088 3.279l2.877 2.778a13.52 13.52 0 0 0 2.952-4.641l-3.741-1.416Zm-2.064 3.254c-.913.913-2.065 1.675-3.492 2.267l1.533 3.694c1.853-.768 3.461-1.806 4.788-3.133l-2.829-2.828Zm-3.508 2.273c-1.313.559-2.86.861-4.677.861v4c2.262 0 4.355-.378 6.242-1.18l-1.565-3.68ZM84.577 46h-28.86v4h28.86v-4Zm-14.76-22.28h11.22v-4h-11.22v4Zm11.22 0c1.213 0 2.32-.423 3.216-1.25l-2.713-2.94a.657.657 0 0 1-.503.19v4Zm3.274-1.306c.909-.909 1.366-2.063 1.366-3.334h-4c0 .25-.064.375-.195.506l2.829 2.828Zm1.366-3.334c0-1.267-.486-2.404-1.424-3.27l-2.713 2.94c.102.094.137.157.137.33h4Zm-1.366-3.214c-.886-.886-2.011-1.366-3.274-1.366v4c.177 0 .291.04.445.194l2.829-2.828ZM81.037 14.5h-11.22v4h11.22v-4Zm-13.22 2v5.22h4V16.5h-4Zm2 23h11.22v-4h-11.22v4Zm11.22 0c1.263 0 2.388-.48 3.274-1.366l-2.829-2.828c-.154.154-.268.194-.445.194v4Zm3.274-1.366c.909-.909 1.366-2.063 1.366-3.334h-4c0 .25-.064.375-.195.506l2.829 2.828Zm1.366-3.334c0-1.267-.486-2.404-1.424-3.27l-2.713 2.94c.102.094.137.157.137.33h4Zm-1.366-3.214c-.886-.886-2.011-1.366-3.274-1.366v4c.177 0 .291.04.445.194l2.829-2.828Zm-3.274-1.366h-11.22v4h11.22v-4Zm-13.22 2v5.28h4v-5.28h-4ZM145.747 6h2V4h-2v2Zm0 13.98v2h2v-2h-2Zm-13.98 0v-2h-2v2h2Zm0 28.02v2h2v-2h-2Zm-14.04 0h-2v2h2v-2Zm0-28.02h2v-2h-2v2Zm-13.98 0h-2v2h2v-2Zm0-13.98V4h-2v2h2Zm40 0v13.98h4V6h-4Zm2 11.98h-13.98v4h13.98v-4Zm-15.98 2V48h4V19.98h-4Zm2 26.02h-14.04v4h14.04v-4Zm-12.04 2V19.98h-4V48h4Zm-2-30.02h-13.98v4h13.98v-4Zm-11.98 2V6h-4v13.98h4Zm-2-11.98h42V4h-42v4Zm60.12 40-.797 1.834.009.004.788-1.838Zm-7.26-4.86-1.428 1.4.014.014.014.014 1.4-1.428Zm-4.86-7.26-1.834.797 1.834-.797Zm0-17.64 1.834.798.004-.01-1.838-.788Zm4.86-7.26-1.414-1.414 1.414 1.414Zm7.26-4.92-.788-1.838-.009.004.797 1.834Zm17.7 0 .797-1.834-.797 1.834Zm7.2 4.92-1.428 1.4.014.014.014.014 1.4-1.428Zm4.92 7.26-1.838.788.004.01 1.834-.798Zm0 17.64-1.834-.797 1.834.797Zm-4.92 7.26 1.414 1.414-1.414-1.414Zm-7.2 4.86.797 1.834-.797-1.834Zm-5.46-12.72.779 1.842.017-.007.016-.007-.812-1.828Zm2.82-1.92-1.414-1.414 1.414 1.414Zm1.86-2.82-1.828-.812-.012.028-.012.03 1.852.754Zm0-6.96-1.852.755.012.029.012.028 1.828-.812Zm-1.86-2.82-1.448 1.38.017.017.017.017 1.414-1.414Zm-2.82-1.92-.838 1.816.041.019.042.017.755-1.852Zm-6.78 0 .755 1.852.029-.012.028-.012-.812-1.828Zm-2.82 1.92 1.414 1.414.017-.017.017-.018-1.448-1.379Zm-1.92 2.82-1.828-.812-.012.028-.012.03 1.852.754Zm0 6.96-1.852.755.012.029.012.028 1.828-.812Zm1.92 2.82 1.414-1.414-1.414 1.414Zm2.82 1.92-.812 1.828.028.012.029.012.755-1.852Zm3.42 12.52c-2.856 0-5.547-.548-8.092-1.638l-1.576 3.676c3.055 1.31 6.284 1.962 9.668 1.962v-4Zm-8.083-1.634c-2.543-1.106-4.757-2.59-6.657-4.454l-2.8 2.856c2.26 2.217 4.886 3.972 7.863 5.266l1.594-3.668Zm-6.629-4.426c-1.863-1.9-3.348-4.114-4.454-6.657l-3.668 1.595c1.294 2.976 3.049 5.602 5.266 7.862l2.856-2.8Zm-4.454-6.657c-1.086-2.5-1.634-5.167-1.634-8.023h-4c0 3.384.652 6.597 1.966 9.618l3.668-1.595Zm-1.634-8.023c0-2.856.548-5.523 1.634-8.022l-3.668-1.596c-1.314 3.021-1.966 6.234-1.966 9.618h4Zm1.638-8.032c1.106-2.58 2.586-4.784 4.436-6.634l-2.828-2.828c-2.23 2.23-3.99 4.865-5.284 7.886l3.676 1.576Zm4.436-6.634a21.316 21.316 0 0 1 6.643-4.5l-1.594-3.668c-2.985 1.298-5.616 3.078-7.877 5.34l2.828 2.828Zm6.634-4.496c2.545-1.09 5.236-1.638 8.092-1.638v-4c-3.384 0-6.613.652-9.668 1.962l1.576 3.676Zm8.092-1.638c2.856 0 5.523.548 8.023 1.634l1.594-3.668c-3.02-1.314-6.233-1.966-9.617-1.966v4Zm8.023 1.634c2.531 1.1 4.715 2.596 6.569 4.486l2.856-2.8c-2.226-2.27-4.842-4.055-7.831-5.354l-1.594 3.668Zm6.597 4.514c1.885 1.849 3.38 4.049 4.482 6.62l3.676-1.576c-1.298-3.029-3.083-5.669-5.358-7.9l-2.8 2.856Zm4.486 6.63c1.086 2.499 1.634 5.166 1.634 8.022h4c0-3.384-.652-6.597-1.966-9.617l-3.668 1.595Zm1.634 8.022c0 2.856-.548 5.523-1.634 8.023l3.668 1.595c1.314-3.021 1.966-6.234 1.966-9.618h-4Zm-1.634 8.023a21.307 21.307 0 0 1-4.5 6.643l2.828 2.828c2.262-2.261 4.042-4.892 5.34-7.877l-3.668-1.594Zm-4.5 6.643c-1.855 1.855-4.043 3.336-6.583 4.44l1.594 3.668c2.98-1.296 5.592-3.055 7.817-5.28l-2.828-2.828Zm-6.583 4.44c-2.5 1.086-5.167 1.634-8.023 1.634v4c3.384 0 6.597-.652 9.617-1.966l-1.594-3.668Zm-8.023-8.226c1.451 0 2.838-.267 4.139-.818l-1.558-3.684a6.538 6.538 0 0 1-2.581.502v4Zm4.172-.832a11.267 11.267 0 0 0 3.422-2.334l-2.828-2.828a7.272 7.272 0 0 1-2.218 1.506l1.624 3.656Zm3.422-2.334a10.434 10.434 0 0 0 2.298-3.48l-3.704-1.509a6.468 6.468 0 0 1-1.422 2.16l2.828 2.83Zm2.274-3.422c.599-1.348.892-2.786.892-4.292h-4c0 .974-.187 1.856-.548 2.668l3.656 1.624Zm.892-4.292c0-1.506-.293-2.944-.892-4.292l-3.656 1.624c.361.812.548 1.694.548 2.668h4Zm-.868-4.235a10.434 10.434 0 0 0-2.298-3.48l-2.828 2.83a6.468 6.468 0 0 1 1.422 2.16l3.704-1.51Zm-2.264-3.444a10.038 10.038 0 0 0-3.513-2.393l-1.51 3.704c.82.334 1.523.813 2.127 1.447l2.896-2.758Zm-3.43-2.357a9.918 9.918 0 0 0-4.198-.904v4c.925 0 1.757.183 2.522.536l1.676-3.632Zm-4.198-.904c-1.475 0-2.893.297-4.232.892l1.624 3.656a6.331 6.331 0 0 1 2.608-.548v-4Zm-4.175.868a10.038 10.038 0 0 0-3.513 2.393l2.896 2.758a6.038 6.038 0 0 1 2.127-1.447l-1.51-3.704Zm-3.479 2.358a11.29 11.29 0 0 0-2.334 3.422l3.656 1.624c.384-.866.888-1.6 1.506-2.218l-2.828-2.828Zm-2.358 3.48a11.127 11.127 0 0 0-.808 4.234h4c0-.998.176-1.9.512-2.725l-3.704-1.51Zm-.808 4.234c0 1.482.264 2.9.808 4.235l3.704-1.51a7.142 7.142 0 0 1-.512-2.725h-4Zm.832 4.292a11.29 11.29 0 0 0 2.334 3.422l2.828-2.828a7.268 7.268 0 0 1-1.506-2.218l-3.656 1.624Zm2.334 3.422a11.267 11.267 0 0 0 3.422 2.334l1.624-3.656a7.272 7.272 0 0 1-2.218-1.506l-2.828 2.828Zm3.479 2.358c1.327.54 2.724.808 4.175.808v-4a6.975 6.975 0 0 1-2.665-.512l-1.51 3.704ZM216.659 6l1.425-1.404-.588-.596h-.837v2Zm16.32 16.56-1.424 1.404 1.424 1.445 1.425-1.445-1.425-1.404ZM249.299 6V4h-.837l-.587.596L249.299 6Zm13.98 0h2V4h-2v2Zm0 42v2h2v-2h-2Zm-13.98 0h-2v2h2v-2Zm0-22.68h2v-4.69l-3.385 3.247 1.385 1.443Zm-16.32 15.66-1.385 1.443 1.385 1.329 1.385-1.329-1.385-1.443Zm-16.32-15.66 1.385-1.443-3.385-3.248v4.691h2Zm0 22.68v2h2v-2h-2Zm-13.98 0h-2v2h2v-2Zm0-42V4h-2v2h2Zm12.556 1.404 16.32 16.56 2.849-2.808-16.32-16.56-2.849 2.808Zm19.169 16.56 16.32-16.56-2.849-2.808-16.32 16.56 2.849 2.808ZM249.299 8h13.98V4h-13.98v4Zm11.98-2v42h4V6h-4Zm2 40h-13.98v4h13.98v-4Zm-11.98 2V25.32h-4V48h4Zm-3.385-24.123-16.32 15.66 2.77 2.886 16.32-15.66-2.77-2.886Zm-13.55 15.66-16.32-15.66-2.77 2.886 16.32 15.66 2.77-2.886ZM214.659 25.32V48h4V25.32h-4Zm2 20.68h-13.98v4h13.98v-4Zm-11.98 2V6h-4v42h4Zm-2-40h13.98V4h-13.98v4Zm80.569 40-.797 1.834.009.004.788-1.838Zm-7.26-4.86-1.428 1.4.014.014.014.014 1.4-1.428Zm-4.86-7.26-1.834.797 1.834-.797Zm0-17.64 1.834.798.005-.01-1.839-.788Zm4.86-7.26-1.414-1.414 1.414 1.414Zm7.26-4.92-.788-1.838-.009.004.797 1.834Zm17.7 0 .798-1.834-.798 1.834Zm7.2 4.92-1.428 1.4.014.014.014.014 1.4-1.428Zm4.92 7.26-1.838.788.004.01 1.834-.798Zm0 17.64-1.834-.797 1.834.797Zm-4.92 7.26 1.414 1.414-1.414-1.414Zm-7.2 4.86.798 1.834-.798-1.834Zm-5.46-12.72.78 1.842.016-.007.017-.007-.813-1.828Zm2.82-1.92-1.414-1.414 1.414 1.414Zm1.86-2.82-1.827-.812-.013.028-.012.03 1.852.754Zm0-6.96-1.852.755.012.029.013.028 1.827-.812Zm-1.86-2.82-1.448 1.38.017.017.017.017 1.414-1.414Zm-2.82-1.92-.838 1.816.042.019.042.017.754-1.852Zm-6.78 0 .755 1.852.029-.012.029-.012-.813-1.828Zm-2.82 1.92 1.414 1.414.018-.017.017-.018-1.449-1.379Zm-1.92 2.82-1.827-.812-.013.028-.012.03 1.852.754Zm0 6.96-1.852.755.012.029.013.028 1.827-.812Zm1.92 2.82 1.414-1.414-1.414 1.414Zm2.82 1.92-.812 1.828.029.012.029.012.754-1.852Zm3.42 12.52c-2.856 0-5.547-.548-8.092-1.638l-1.576 3.676c3.056 1.31 6.284 1.962 9.668 1.962v-4Zm-8.082-1.634c-2.544-1.106-4.758-2.59-6.657-4.454l-2.801 2.856c2.26 2.217 4.886 3.972 7.863 5.266l1.595-3.668Zm-6.63-4.426c-1.863-1.9-3.348-4.114-4.454-6.657l-3.668 1.595c1.294 2.976 3.05 5.602 5.266 7.862l2.856-2.8Zm-4.454-6.657c-1.086-2.5-1.634-5.167-1.634-8.023h-4c0 3.384.653 6.597 1.966 9.618l3.668-1.595Zm-1.634-8.023c0-2.856.548-5.523 1.634-8.022l-3.668-1.596c-1.313 3.021-1.966 6.234-1.966 9.618h4Zm1.639-8.032c1.105-2.58 2.585-4.784 4.435-6.634l-2.828-2.828c-2.23 2.23-3.989 4.865-5.284 7.886l3.677 1.576Zm4.435-6.634a21.308 21.308 0 0 1 6.644-4.5l-1.595-3.668a25.308 25.308 0 0 0-7.877 5.34l2.828 2.828Zm6.634-4.496c2.545-1.09 5.236-1.638 8.092-1.638v-4c-3.384 0-6.612.652-9.668 1.962l1.576 3.676Zm8.092-1.638c2.856 0 5.524.548 8.023 1.634l1.595-3.668c-3.021-1.314-6.234-1.966-9.618-1.966v4Zm8.023 1.634c2.532 1.1 4.716 2.596 6.569 4.486l2.856-2.8c-2.226-2.27-4.842-4.055-7.83-5.354l-1.595 3.668Zm6.597 4.514c1.885 1.849 3.38 4.049 4.482 6.62l3.677-1.576c-1.298-3.029-3.084-5.669-5.358-7.9l-2.801 2.856Zm4.486 6.63c1.087 2.499 1.634 5.166 1.634 8.022h4c0-3.384-.652-6.597-1.966-9.617l-3.668 1.595Zm1.634 8.022c0 2.856-.547 5.523-1.634 8.023l3.668 1.595c1.314-3.021 1.966-6.234 1.966-9.618h-4Zm-1.634 8.023c-1.102 2.535-2.601 4.744-4.5 6.643l2.828 2.828a25.287 25.287 0 0 0 5.34-7.877l-3.668-1.594Zm-4.5 6.643c-1.855 1.855-4.043 3.336-6.583 4.44l1.595 3.668c2.98-1.296 5.591-3.055 7.816-5.28l-2.828-2.828Zm-6.583 4.44c-2.499 1.086-5.167 1.634-8.023 1.634v4c3.384 0 6.597-.652 9.618-1.966l-1.595-3.668Zm-8.023-8.226c1.451 0 2.838-.267 4.14-.818l-1.559-3.684a6.535 6.535 0 0 1-2.581.502v4Zm4.173-.832a11.28 11.28 0 0 0 3.422-2.334l-2.829-2.828a7.272 7.272 0 0 1-2.218 1.506l1.625 3.656Zm3.422-2.334c.994-.994 1.76-2.16 2.297-3.48l-3.704-1.509a6.438 6.438 0 0 1-1.422 2.16l2.829 2.83Zm2.273-3.422c.599-1.348.892-2.786.892-4.292h-4c0 .974-.187 1.856-.547 2.668l3.655 1.624Zm.892-4.292c0-1.506-.293-2.944-.892-4.292l-3.655 1.624c.36.812.547 1.694.547 2.668h4Zm-.868-4.235a10.446 10.446 0 0 0-2.297-3.48l-2.829 2.83a6.438 6.438 0 0 1 1.422 2.16l3.704-1.51Zm-2.263-3.444a10.051 10.051 0 0 0-3.514-2.393l-1.509 3.704a6.043 6.043 0 0 1 2.126 1.447l2.897-2.758Zm-3.431-2.357a9.915 9.915 0 0 0-4.198-.904v4c.925 0 1.757.183 2.522.536l1.676-3.632Zm-4.198-.904c-1.475 0-2.892.297-4.232.892l1.625 3.656a6.327 6.327 0 0 1 2.607-.548v-4Zm-4.174.868a10.033 10.033 0 0 0-3.514 2.393l2.897 2.758a6.034 6.034 0 0 1 2.126-1.447l-1.509-3.704Zm-3.48 2.358a11.269 11.269 0 0 0-2.333 3.422l3.655 1.624c.385-.866.888-1.6 1.506-2.218l-2.828-2.828Zm-2.358 3.48a11.127 11.127 0 0 0-.808 4.234h4c0-.998.176-1.9.512-2.725l-3.704-1.51Zm-.808 4.234c0 1.482.264 2.9.808 4.235l3.704-1.51a7.142 7.142 0 0 1-.512-2.725h-4Zm.833 4.292a11.27 11.27 0 0 0 2.333 3.422l2.828-2.828a7.285 7.285 0 0 1-1.506-2.218l-3.655 1.624Zm2.333 3.422a11.267 11.267 0 0 0 3.422 2.334l1.625-3.656a7.276 7.276 0 0 1-2.219-1.506l-2.828 2.828Zm3.48 2.358c1.326.54 2.723.808 4.174.808v-4a6.975 6.975 0 0 1-2.665-.512l-1.509 3.704ZM320.948 6V4h-2v2h2Zm38.52 0h2V4h-2v2Zm0 10.5v2h2v-2h-2Zm-24.54 0v-2h-2v2h2Zm0 5.22h-2v2h2v-2Zm19.98 1.08-.82 1.824.019.009.019.008.782-1.841Zm4.2 2.82-1.414 1.414.012.012.012.012 1.39-1.438Zm2.82 4.14 1.841-.782-1.841.782Zm0 10.2 1.841.782-1.841-.782Zm-2.82 4.2 1.415 1.414-1.415-1.414Zm-4.2 2.82.783 1.84-.783-1.84ZM320.948 48h-2v2h2v-2Zm13.98-15.78v-2h-2v2h2Zm0 5.28h-2v2h2v-2Zm13.26-.78-1.414-1.414 1.414 1.414Zm0-3.72-1.414 1.414L348.188 33Zm-27.24-25h38.52V4h-38.52v4Zm36.52-2v10.5h4V6h-4Zm2 8.5h-24.54v4h24.54v-4Zm-26.54 2v5.22h4V16.5h-4Zm2 7.22h14.88v-4h-14.88v4Zm14.88 0c1.525 0 2.945.303 4.28.904l1.641-3.648a14.285 14.285 0 0 0-5.921-1.256v4Zm4.318.92c1.37.583 2.554 1.38 3.568 2.394l2.829-2.828a15.158 15.158 0 0 0-4.832-3.247l-1.565 3.682Zm3.592 2.418c1 .966 1.79 2.12 2.37 3.484l3.681-1.564a14.463 14.463 0 0 0-3.271-4.796l-2.78 2.876Zm2.37 3.484c.571 1.344.86 2.777.86 4.318h4a14.9 14.9 0 0 0-1.179-5.882l-3.681 1.564Zm.86 4.318c0 1.54-.289 2.974-.86 4.318l3.681 1.564a14.9 14.9 0 0 0 1.179-5.882h-4Zm-.86 4.318a11.154 11.154 0 0 1-2.394 3.568l2.829 2.828a15.168 15.168 0 0 0 3.246-4.832l-3.681-1.564Zm-2.394 3.568a11.147 11.147 0 0 1-3.568 2.393l1.565 3.682a15.156 15.156 0 0 0 4.832-3.247l-2.829-2.828Zm-3.568 2.393c-1.344.572-2.777.861-4.318.861v4c2.06 0 4.027-.39 5.883-1.18l-1.565-3.68Zm-4.318.861h-28.86v4h28.86v-4Zm-26.86 2V6h-4v42h4Zm9.98-15.78v5.28h4v-5.28h-4Zm2 7.28h11.4v-4h-11.4v4Zm11.4 0a4.54 4.54 0 0 0 3.275-1.366l-2.829-2.828c-.154.154-.269.194-.446.194v4Zm3.275-1.366a4.537 4.537 0 0 0 1.365-3.274h-4c0 .177-.04.292-.194.446l2.829 2.828Zm1.365-3.274a4.537 4.537 0 0 0-1.365-3.274l-2.829 2.828c.154.154.194.269.194.446h4Zm-1.365-3.274a4.54 4.54 0 0 0-3.275-1.366v4c.177 0 .292.04.446.194l2.829-2.828Zm-3.275-1.366h-11.4v4h11.4v-4ZM397.585 48h-2v2h2v-2Zm0-19.92h2v-6.31l-3.635 5.158 1.635 1.152ZM383.545 48v2h1.037l.598-.848L383.545 48Zm-13.98 0h-2v2h2v-2Zm0-42V4h-2v2h2Zm13.98 0h2V4h-2v2Zm0 19.92h-2v6.31l3.635-5.158-1.635-1.152ZM397.585 6V4h-1.037l-.598.848L397.585 6Zm13.98 0h2V4h-2v2Zm0 42v2h2v-2h-2Zm-11.98 0V28.08h-4V48h4Zm-3.635-21.072-14.04 19.92 3.27 2.304 14.04-19.92-3.27-2.304ZM383.545 46h-13.98v4h13.98v-4Zm-11.98 2V6h-4v42h4Zm-2-40h13.98V4h-13.98v4Zm11.98-2v19.92h4V6h-4Zm3.635 21.072 14.04-19.92-3.27-2.304-14.04 19.92 3.27 2.304ZM397.585 8h13.98V4h-13.98v4Zm11.98-2v42h4V6h-4Zm2 40h-13.98v4h13.98v-4Zm38.34-40 1.897-.632L451.347 4h-1.442v2Zm13.98 42v2h2.773l-.876-2.632-1.897.632Zm-14.76 0-1.898.631.455 1.369h1.443v-2Zm-9-27.06 1.898-.631-1.898-5.706-1.898 5.706 1.898.631Zm-9 27.06v2h1.442l.456-1.369-1.898-.631Zm-14.76 0-1.898-.632-.876 2.632h2.774v-2Zm13.98-42V4h-1.442l-.456 1.368 1.898.632Zm17.662.632 13.98 42 3.795-1.264-13.98-42-3.795 1.264ZM463.885 46h-14.76v4h14.76v-4Zm-12.862 1.369-9-27.06-3.796 1.262 9 27.06 3.796-1.262Zm-12.796-27.06-9 27.06 3.796 1.262 9-27.06-3.796-1.262ZM431.125 46h-14.76v4h14.76v-4Zm-12.863 2.632 13.98-42-3.795-1.264-13.98 42 3.795 1.264ZM430.345 8h19.56V4h-19.56v4Zm66.934 40h-2v2h2v-2Zm0-19.92h2v-6.31l-3.635 5.158 1.635 1.152ZM483.239 48v2h1.037l.597-.848L483.239 48Zm-13.98 0h-2v2h2v-2Zm0-42V4h-2v2h2Zm13.98 0h2V4h-2v2Zm0 19.92h-2v6.31l3.634-5.158-1.634-1.152ZM497.279 6V4h-1.038l-.597.848L497.279 6Zm13.98 0h2V4h-2v2Zm0 42v2h2v-2h-2Zm-11.98 0V28.08h-4V48h4Zm-3.635-21.072-14.04 19.92 3.269 2.304 14.04-19.92-3.269-2.304ZM483.239 46h-13.98v4h13.98v-4Zm-11.98 2V6h-4v42h4Zm-2-40h13.98V4h-13.98v4Zm11.98-2v19.92h4V6h-4Zm3.634 21.072 14.04-19.92-3.269-2.304-14.04 19.92 3.269 2.304ZM497.279 8h13.98V4h-13.98v4Zm11.98-2v42h4V6h-4Zm2 40h-13.98v4h13.98v-4ZM16.92 72h2v-2h-2v2Zm0 13.98h-2v2h2v-2Zm14.04 0v2h2v-2h-2Zm0-13.98v-2h-2v2h2Zm13.98 0h2v-2h-2v2Zm0 42v2h2v-2h-2Zm-13.98 0h-2v2h2v-2Zm0-13.98h2v-2h-2v2Zm-14.04 0v-2h-2v2h2Zm0 13.98v2h2v-2h-2Zm-13.98 0h-2v2h2v-2Zm0-42v-2h-2v2h2Zm11.98 0v13.98h4V72h-4Zm2 15.98h14.04v-4H16.92v4Zm16.04-2V72h-4v13.98h4Zm-2-11.98h13.98v-4H30.96v4Zm11.98-2v42h4V72h-4Zm2 40H30.96v4h13.98v-4Zm-11.98 2v-13.98h-4V114h4Zm-2-15.98H16.92v4h14.04v-4Zm-16.04 2V114h4v-13.98h-4Zm2 11.98H2.94v4h13.98v-4Zm-11.98 2V72h-4v42h4Zm-2-40h13.98v-4H2.94v4Zm80.22-2 1.898-.632L84.602 70H83.16v2Zm13.98 42v2h2.774l-.876-2.632-1.898.632Zm-14.7 0-1.9.623.45 1.377h1.45v-2Zm-1.14-3.48 1.9-.623-.45-1.377H81.3v2Zm-15.72 0v-2h-1.45l-.45 1.377 1.9.623ZM64.44 114v2h1.45l.45-1.377-1.9-.623Zm-14.7 0-1.898-.632-.876 2.632h2.774v-2Zm13.98-42v-2h-1.442l-.456 1.368L63.72 72Zm5.4 28.02-1.9-.627-.867 2.627h2.767v-2Zm8.7 0v2h2.779l-.883-2.635-1.896.635Zm-4.38-13.08 1.897-.635-1.91-5.703-1.886 5.71 1.899.628Zm7.822-14.308 13.98 42 3.796-1.264-13.98-42-3.796 1.264ZM97.14 112h-14.7v4h14.7v-4Zm-12.8 1.377-1.14-3.48-3.8 1.246 1.14 3.48 3.8-1.246Zm-3.04-4.857H65.58v4H81.3v-4Zm-17.62 1.377-1.14 3.48 3.8 1.246 1.14-3.48-3.8-1.246Zm.76 2.103h-14.7v4h14.7v-4Zm-12.802 2.632 13.98-42-3.796-1.264-13.98 42 3.796 1.264ZM63.72 74h19.44v-4H63.72v4Zm5.4 28.02h8.7v-4h-8.7v4Zm10.596-2.635-4.38-13.08-3.793 1.27 4.38 13.08 3.793-1.27Zm-8.175-13.072-4.32 13.08 3.798 1.254 4.32-13.08-3.798-1.254ZM144.577 72h2v-2h-2v2Zm0 42v2h2v-2h-2Zm-13.98 0h-2v2h2v-2Zm0-28.02h2v-2h-2v2Zm-14.04 0v-2h-2v2h2Zm0 28.02v2h2v-2h-2Zm-13.98 0h-2v2h2v-2Zm0-42v-2h-2v2h2Zm40 0v42h4V72h-4Zm2 40h-13.98v4h13.98v-4Zm-11.98 2V85.98h-4V114h4Zm-2-30.02h-14.04v4h14.04v-4Zm-16.04 2V114h4V85.98h-4Zm2 26.02h-13.98v4h13.98v-4Zm-11.98 2V72h-4v42h4Zm-2-40h42v-4h-42v4Zm49.728 40h-2v2h2v-2Zm0-42v-2h-2v2h2Zm31.26 1.38-.796 1.835.012.005.784-1.84Zm5.58 3.78-1.432 1.396.018.018.018.018 1.396-1.432Zm3.78 5.58-1.84.784.005.012 1.835-.796Zm-3.78 19.14 1.414 1.414-1.414-1.414Zm-5.58 3.72-.784-1.84-.012.005.796 1.835Zm-17.28 1.38v-2h-2v2h2Zm0 7.02v2h2v-2h-2Zm0-21h-2v2h2v-2Zm13.02-1.02-1.414-1.414 1.414 1.414Zm0-4.98-1.414 1.414L179.305 87Zm-13.02-1.02v-2h-2v2h2ZM154.305 114V72h-4v42h4Zm-2-40h24.48v-4h-24.48v4Zm24.48 0c2.137 0 4.125.408 5.984 1.215l1.592-3.67C181.98 70.512 179.448 70 176.785 70v4Zm5.996 1.22c1.929.822 3.566 1.935 4.932 3.336l2.864-2.792c-1.754-1.8-3.838-3.206-6.228-4.224l-1.568 3.68Zm4.968 3.372c1.401 1.366 2.514 3.002 3.336 4.932l3.68-1.568c-1.018-2.39-2.425-4.474-4.224-6.228l-2.792 2.864Zm3.341 4.944c.807 1.86 1.215 3.847 1.215 5.984h4c0-2.663-.512-5.195-1.545-7.576l-3.67 1.592Zm1.215 5.984c0 2.137-.408 4.125-1.215 5.984l3.67 1.592c1.033-2.38 1.545-4.913 1.545-7.576h-4Zm-1.215 5.984a15.884 15.884 0 0 1-3.359 4.962l2.828 2.828a19.865 19.865 0 0 0 4.201-6.198l-3.67-1.592Zm-3.359 4.962c-1.368 1.367-3.01 2.468-4.95 3.294l1.568 3.68c2.38-1.014 4.458-2.393 6.21-4.146l-2.828-2.828Zm-4.962 3.299c-1.859.807-3.847 1.215-5.984 1.215v4c2.663 0 5.195-.512 7.576-1.545l-1.592-3.67Zm-5.984 1.215h-10.5v4h10.5v-4Zm-12.5 2V114h4v-7.02h-4Zm2 5.02h-13.98v4h13.98v-4Zm0-17h10.5v-4h-10.5v4Zm10.5 0c1.507 0 2.863-.534 3.934-1.606l-2.828-2.828c-.289.288-.613.434-1.106.434v4Zm3.934-1.606a5.352 5.352 0 0 0 1.606-3.874h-4c0 .428-.129.74-.434 1.046l2.828 2.828Zm1.606-3.874c0-1.507-.535-2.863-1.606-3.934l-2.828 2.828c.288.289.434.613.434 1.106h4Zm-1.606-3.934c-1.071-1.072-2.427-1.606-3.934-1.606v4c.493 0 .817.146 1.106.434l2.828-2.828Zm-3.934-1.606h-10.5v4h10.5v-4Zm-12.5 2V93h4v-7.02h-4ZM241.737 72h2v-2h-2v2Zm0 42v2h2v-2h-2Zm-13.98 0h-2v2h2v-2Zm0-7.02h2v-2h-2v2Zm-4.2 0v-2h-1.041l-.597.852 1.638 1.148Zm-4.92 7.02v2h1.04l.598-.852-1.638-1.148Zm-15.42 0-1.638-1.148-2.206 3.148h3.844v-2Zm6.18-8.82 1.638 1.148 1.33-1.9-2.074-1.037-.894 1.789Zm-3.96-2.7-1.363 1.464.012.011.013.012 1.338-1.487Zm-3-3.66 1.701-1.051-1.701 1.051Zm-1.98-4.38-1.912.588 1.912-.588Zm.66-11.7 1.834.796.006-.012-1.84-.784Zm3.72-5.58 1.414 1.414-1.414-1.414Zm5.58-3.78-.784-1.84-.012.005.796 1.835Zm4.32 13.62 1.414 1.414L214.737 87Zm0 4.98 1.414-1.414-1.414 1.414Zm13.02 1.02v2h2v-2h-2Zm0-7.02h2v-2h-2v2ZM217.257 74h24.48v-4h-24.48v4Zm22.48-2v42h4V72h-4Zm2 40h-13.98v4h13.98v-4Zm-11.98 2v-7.02h-4V114h4Zm-2-9.02h-4.2v4h4.2v-4Zm-5.838.852-4.92 7.02 3.276 2.296 4.92-7.02-3.276-2.296ZM218.637 112h-15.42v4h15.42v-4Zm-13.782 3.148 6.18-8.82-3.276-2.296-6.18 8.82 3.276 2.296Zm5.436-11.757a15.712 15.712 0 0 1-3.516-2.398l-2.676 2.974a19.819 19.819 0 0 0 4.403 3.002l1.789-3.578Zm-3.491-2.375a15.65 15.65 0 0 1-2.662-3.247l-3.403 2.102a19.64 19.64 0 0 0 3.339 4.073l2.726-2.928Zm-2.662-3.247a16.87 16.87 0 0 1-1.77-3.917l-3.823 1.176a20.855 20.855 0 0 0 2.19 4.843l3.403-2.102Zm-1.77-3.917c-.418-1.36-.631-2.8-.631-4.332h-4c0 1.909.266 3.748.808 5.508l3.823-1.176Zm-.631-4.332c0-2.137.408-4.125 1.214-5.984l-3.669-1.592c-1.033 2.38-1.545 4.913-1.545 7.576h4Zm1.22-5.996c.826-1.94 1.926-3.582 3.294-4.95l-2.828-2.828c-1.753 1.752-3.133 3.83-4.146 6.21l3.68 1.568Zm3.294-4.95a15.866 15.866 0 0 1 4.962-3.36l-1.592-3.669a19.865 19.865 0 0 0-6.198 4.2l2.828 2.83Zm4.949-3.354a15.28 15.28 0 0 1 6.057-1.22v-4c-2.663 0-5.211.512-7.624 1.54l1.567 3.68Zm6.057 8.76c-1.507 0-2.863.534-3.934 1.606l2.828 2.828c.288-.288.613-.434 1.106-.434v-4Zm-3.934 1.606c-1.072 1.071-1.606 2.427-1.606 3.934h4c0-.493.145-.817.434-1.106l-2.828-2.828Zm-1.606 3.934c0 1.492.551 2.82 1.606 3.874l2.828-2.828a1.358 1.358 0 0 1-.434-1.046h-4Zm1.606 3.874c1.071 1.072 2.427 1.606 3.934 1.606v-4c-.493 0-.818-.146-1.106-.434l-2.828 2.828ZM217.257 95h10.5v-4h-10.5v4Zm12.5-2v-7.02h-4V93h4Zm-2-9.02h-10.5v4h10.5v-4ZM263.459 72l1.425-1.404-.588-.596h-.837v2Zm16.32 16.56-1.424 1.404 1.424 1.445 1.425-1.445-1.425-1.404ZM296.099 72v-2h-.837l-.587.596L296.099 72Zm13.98 0h2v-2h-2v2Zm0 42v2h2v-2h-2Zm-13.98 0h-2v2h2v-2Zm0-22.68h2v-4.69l-3.385 3.247 1.385 1.443Zm-16.32 15.66-1.385 1.443 1.385 1.329 1.385-1.329-1.385-1.443Zm-16.32-15.66 1.385-1.443-3.385-3.248v4.691h2Zm0 22.68v2h2v-2h-2Zm-13.98 0h-2v2h2v-2Zm0-42v-2h-2v2h2Zm12.556 1.404 16.32 16.56 2.849-2.808-16.32-16.56-2.849 2.808Zm19.169 16.56 16.32-16.56-2.849-2.808-16.32 16.56 2.849 2.808ZM296.099 74h13.98v-4h-13.98v4Zm11.98-2v42h4V72h-4Zm2 40h-13.98v4h13.98v-4Zm-11.98 2V91.32h-4V114h4Zm-3.385-24.123-16.32 15.66 2.77 2.886 16.32-15.66-2.77-2.886Zm-13.55 15.66-16.32-15.66-2.77 2.886 16.32 15.66 2.77-2.886ZM261.459 91.32V114h4V91.32h-4Zm2 20.68h-13.98v4h13.98v-4Zm-11.98 2V72h-4v42h4Zm-2-40h13.98v-4h-13.98v4Zm80.719-2 1.897-.634-.457-1.366h-1.44v2Zm7.02 21-1.897.634.457 1.366h1.44v-2Zm4.02 0v2h1.444l.454-1.37-1.898-.63Zm6.96-21v-2h-1.444l-.455 1.37 1.899.63Zm14.7 0 1.897.632.876-2.632h-2.773v2Zm-13.98 42v2h1.442l.455-1.368-1.897-.632Zm-14.7 0-1.898-.632-.877 2.632h2.775v-2Zm2.34-7.02 1.897.632.878-2.632h-2.775v2Zm-9.42 0-1.898.631.455 1.369h1.443v-2ZM315.498 72v-2h-2.774l.876 2.632 1.898-.632Zm12.803.634 7.02 21 3.794-1.268-7.02-21-3.794 1.268ZM337.218 95h4.02v-4h-4.02v4Zm5.918-1.37 6.96-21-3.797-1.26-6.96 21 3.797 1.26ZM348.198 74h14.7v-4h-14.7v4ZM361 71.368l-13.98 42 3.795 1.264 13.98-42L361 71.368ZM348.918 112h-14.7v4h14.7v-4Zm-12.803 2.632 2.34-7.02-3.795-1.264-2.34 7.02 3.795 1.264Zm.443-9.652h-9.42v4h9.42v-4Zm-7.523 1.369-11.64-34.98-3.795 1.263 11.64 34.979 3.795-1.262ZM315.498 74h14.7v-4h-14.7v4Zm52.836-2v-2h-2v2h2Zm13.98 0h2v-2h-2v2Zm0 16.02h-2v2h2v-2Zm4.02 0v2h1.605l.348-1.566-1.953-.434Zm2.88-7.02-1.687-1.074-.005.008L389.214 81Zm4.98-5.64 1.262 1.552.003-.003-1.265-1.549Zm6.6-3.72.679 1.881.013-.005.014-.005-.706-1.871Zm16.56.42.798-1.834-.798 1.834Zm7.2 4.92-1.428 1.4.014.014.014.014 1.4-1.428Zm4.92 7.26-1.838.788.004.01 1.834-.798Zm0 17.64-1.834-.797 1.834.797Zm-4.92 7.26 1.415 1.414-1.415-1.414Zm-23.76 5.28.706-1.871-.014-.005-.013-.005-.679 1.881Zm-6.6-3.72 1.265-1.549-1.265 1.549Zm-5.04-5.64-1.692 1.066.007.011.007.011 1.678-1.088Zm-2.88-7.08 1.954-.427-.344-1.573h-1.61v2Zm-3.96 0v-2h-2v2h2Zm0 16.02v2h2v-2h-2Zm-13.98 0h-2v2h2v-2Zm43.56-12.72.78 1.842.016-.007.017-.007-.813-1.828Zm2.82-1.92-1.414-1.414 1.414 1.414Zm1.86-2.82-1.827-.812-.013.028-.012.03 1.852.754Zm0-6.96-1.852.755.012.029.013.028 1.827-.812Zm-1.86-2.82-1.448 1.38.017.017.017.017 1.414-1.414Zm-2.82-1.92-.838 1.816.042.019.042.017.754-1.852Zm-6.78 0 .755 1.852.029-.012.029-.012-.813-1.828Zm-2.82 1.92 1.415 1.414.017-.017.017-.018-1.449-1.379Zm-1.92 2.82-1.827-.812-.013.028-.012.03 1.852.754Zm0 6.96-1.852.755.012.029.013.028 1.827-.812Zm1.92 2.82 1.415-1.414-1.415 1.414Zm2.82 1.92-.812 1.828.029.012.029.012.754-1.852ZM368.334 74h13.98v-4h-13.98v4Zm11.98-2v16.02h4V72h-4Zm2 18.02h4.02v-4h-4.02v4Zm5.973-1.566a20.043 20.043 0 0 1 2.62-6.388l-3.385-2.132a24.04 24.04 0 0 0-3.14 7.652l3.905.868Zm2.615-6.38c1.291-2.029 2.809-3.745 4.554-5.162l-2.523-3.104c-2.095 1.702-3.897 3.747-5.406 6.118l3.375 2.148Zm4.557-5.165a20.339 20.339 0 0 1 6.014-3.388l-1.357-3.762a24.327 24.327 0 0 0-7.186 4.052l2.529 3.098Zm6.041-3.398c2.205-.83 4.545-1.251 7.034-1.251v-4c-2.95 0-5.77.5-8.445 1.509l1.411 3.742Zm7.034-1.251c2.856 0 5.524.548 8.023 1.634l1.595-3.668c-3.021-1.314-6.234-1.966-9.618-1.966v4Zm8.023 1.634c2.532 1.1 4.716 2.596 6.569 4.486l2.856-2.8c-2.226-2.27-4.842-4.055-7.83-5.354l-1.595 3.668Zm6.597 4.514c1.885 1.849 3.38 4.049 4.482 6.62l3.677-1.576c-1.298-3.029-3.083-5.669-5.358-7.9l-2.801 2.856Zm4.486 6.63c1.087 2.499 1.634 5.166 1.634 8.022h4c0-3.384-.652-6.597-1.965-9.618l-3.669 1.596Zm1.634 8.022c0 2.856-.547 5.523-1.634 8.023l3.669 1.594c1.313-3.02 1.965-6.233 1.965-9.617h-4Zm-1.634 8.023c-1.102 2.535-2.601 4.744-4.5 6.643l2.829 2.828c2.261-2.261 4.042-4.892 5.34-7.877l-3.669-1.594Zm-4.5 6.643c-1.855 1.855-4.043 3.336-6.583 4.44l1.595 3.668c2.98-1.296 5.592-3.055 7.817-5.28l-2.829-2.828Zm-6.583 4.44c-2.499 1.086-5.167 1.634-8.023 1.634v4c3.384 0 6.597-.652 9.618-1.966l-1.595-3.668Zm-8.023 1.634c-2.489 0-4.829-.42-7.034-1.251l-1.411 3.742c2.675 1.009 5.495 1.509 8.445 1.509v-4Zm-7.061-1.261a20.364 20.364 0 0 1-6.014-3.388l-2.529 3.098a24.303 24.303 0 0 0 7.186 4.052l1.357-3.762Zm-6.014-3.388a22.28 22.28 0 0 1-4.626-5.179l-3.357 2.176a26.252 26.252 0 0 0 5.454 6.101l2.529-3.098Zm-4.612-5.157a20.005 20.005 0 0 1-2.619-6.441l-3.907.854a23.997 23.997 0 0 0 3.141 7.719l3.385-2.132Zm-4.573-8.014h-3.96v4h3.96v-4Zm-5.96 2V114h4V97.98h-4Zm2 14.02h-13.98v4h13.98v-4Zm-11.98 2V72h-4v42h4Zm38.2-10.06c1.451 0 2.838-.267 4.14-.818l-1.559-3.684a6.535 6.535 0 0 1-2.581.502v4Zm4.173-.832a11.301 11.301 0 0 0 3.422-2.334l-2.829-2.828a7.272 7.272 0 0 1-2.218 1.506l1.625 3.656Zm3.422-2.334c.994-.994 1.76-2.16 2.298-3.48l-3.705-1.509a6.438 6.438 0 0 1-1.422 2.16l2.829 2.829Zm2.273-3.422c.599-1.348.892-2.786.892-4.292h-4c0 .974-.186 1.856-.547 2.668l3.655 1.624Zm.892-4.292c0-1.506-.293-2.944-.892-4.292l-3.655 1.624c.361.812.547 1.694.547 2.668h4Zm-.867-4.235a10.464 10.464 0 0 0-2.298-3.48l-2.829 2.83a6.438 6.438 0 0 1 1.422 2.16l3.705-1.51Zm-2.264-3.444a10.042 10.042 0 0 0-3.514-2.393l-1.509 3.704a6.043 6.043 0 0 1 2.126 1.447l2.897-2.758Zm-3.43-2.357a9.923 9.923 0 0 0-4.199-.904v4a5.92 5.92 0 0 1 2.522.536l1.677-3.632Zm-4.199-.904c-1.475 0-2.892.297-4.232.892l1.625 3.656a6.327 6.327 0 0 1 2.607-.548v-4Zm-4.174.868a10.033 10.033 0 0 0-3.514 2.393l2.897 2.758a6.034 6.034 0 0 1 2.126-1.447l-1.509-3.704Zm-3.48 2.358a11.269 11.269 0 0 0-2.333 3.422l3.655 1.624a7.27 7.27 0 0 1 1.507-2.218l-2.829-2.828Zm-2.358 3.48a11.146 11.146 0 0 0-.808 4.234h4c0-.998.176-1.9.513-2.725l-3.705-1.51Zm-.808 4.234c0 1.482.265 2.9.808 4.235l3.705-1.51a7.123 7.123 0 0 1-.513-2.725h-4Zm.833 4.292a11.265 11.265 0 0 0 2.333 3.422l2.829-2.828a7.27 7.27 0 0 1-1.507-2.218l-3.655 1.624Zm2.333 3.422a11.289 11.289 0 0 0 3.422 2.334l1.625-3.656a7.26 7.26 0 0 1-2.218-1.506l-2.829 2.828Zm3.48 2.358c1.326.541 2.723.808 4.174.808v-4a6.975 6.975 0 0 1-2.665-.512l-1.509 3.704ZM483.861 114h-2v2h2v-2Zm0-19.92h2v-6.31l-3.635 5.158 1.635 1.152ZM469.821 114v2h1.037l.597-.848-1.634-1.152Zm-13.98 0h-2v2h2v-2Zm0-42v-2h-2v2h2Zm13.98 0h2v-2h-2v2Zm0 19.92h-2v6.31l3.634-5.158-1.634-1.152ZM483.861 72v-2h-1.038l-.597.848L483.861 72Zm13.98 0h2v-2h-2v2Zm0 42v2h2v-2h-2Zm-11.98 0V94.08h-4V114h4Zm-3.635-21.072-14.04 19.92 3.269 2.304 14.04-19.92-3.269-2.304ZM469.821 112h-13.98v4h13.98v-4Zm-11.98 2V72h-4v42h4Zm-2-40h13.98v-4h-13.98v4Zm11.98-2v19.92h4V72h-4Zm3.634 21.072 14.04-19.92-3.269-2.304-14.04 19.92 3.269 2.304ZM483.861 74h13.98v-4h-13.98v4Zm11.98-2v42h4V72h-4Zm2 40h-13.98v4h13.98v-4Zm7.188-40v-2h-2v2h2Zm29.76 1.02-.782 1.84.008.004.008.004.766-1.848Zm6.72 6.6-1.854.751 1.854-.751Zm-.36 9.84-1.728-1.008-.004.008-.005.008 1.737.992Zm-2.82 3.48-1.297-1.522-1.787 1.522 1.787 1.523 1.297-1.523Zm2.82 3.54-1.748.971.01.019.01.018 1.728-1.008Zm.36 9.9 1.853.751.004-.008.003-.009-1.86-.734Zm-6.72 6.6-.766-1.847-.008.003-.008.003.782 1.841Zm-29.76 1.02h-2v2h2v-2Zm0-10.5v-2h-2v2h2Zm22.62-.78 1.414 1.414-1.414-1.414Zm0-3.72-1.414 1.414.028.028.029.028 1.357-1.47Zm-19.14-.78h-2v2h2v-2Zm0-10.5v-2h-2v2h2Zm19.14-.72 1.356 1.47.03-.028.028-.028L527.649 87Zm0-3.72-1.414 1.414.028.028.029.028 1.357-1.47Zm-22.62-.78h-2v2h2v-2Zm0-8.5h24.3v-4h-24.3v4Zm24.3 0c1.817 0 3.364.302 4.678.86l1.564-3.68c-1.886-.802-3.979-1.18-6.242-1.18v4Zm4.694.868c1.427.591 2.578 1.353 3.492 2.266l2.828-2.828c-1.327-1.327-2.935-2.365-4.788-3.133l-1.532 3.695Zm3.492 2.266a9.641 9.641 0 0 1 2.14 3.237l3.707-1.502a13.632 13.632 0 0 0-3.019-4.563l-2.828 2.828Zm2.14 3.237c.503 1.241.754 2.526.754 3.869h4c0-1.857-.35-3.652-1.047-5.371l-3.707 1.502Zm.754 3.869c0 1.765-.362 3.14-.988 4.212l3.455 2.016c1.055-1.808 1.533-3.913 1.533-6.228h-4Zm-.997 4.228c-.7 1.226-1.498 2.198-2.38 2.95l2.594 3.044c1.278-1.088 2.36-2.436 3.259-4.01l-3.473-1.984Zm-2.38 5.995c.871.741 1.666 1.724 2.369 2.988l3.496-1.942c-.898-1.616-1.982-2.993-3.271-4.091l-2.594 3.044Zm2.389 3.025c.626 1.072.988 2.447.988 4.212h4c0-2.315-.478-4.42-1.533-6.228l-3.455 2.016Zm.988 4.212a10.66 10.66 0 0 1-.76 3.946l3.72 1.468a14.621 14.621 0 0 0 1.04-5.414h-4Zm-.754 3.929a9.64 9.64 0 0 1-2.14 3.237l2.828 2.828a13.634 13.634 0 0 0 3.019-4.563l-3.707-1.502Zm-2.14 3.237c-.914.913-2.065 1.675-3.492 2.267l1.532 3.694c1.853-.768 3.461-1.806 4.788-3.133l-2.828-2.828Zm-3.508 2.273c-1.314.559-2.861.861-4.678.861v4c2.263 0 4.356-.378 6.242-1.179l-1.564-3.682Zm-4.678.861h-24.3v4h24.3v-4Zm-22.3 2v-10.5h-4V114h4Zm-2-8.5h20.76v-4h-20.76v4Zm20.76 0c1.263 0 2.388-.48 3.274-1.366l-2.828-2.828c-.154.154-.269.194-.446.194v4Zm3.274-1.366c.909-.909 1.366-2.063 1.366-3.334h-4c0 .249-.063.375-.194.506l2.828 2.828Zm1.366-3.334c0-1.267-.485-2.404-1.424-3.27l-2.713 2.94c.102.094.137.157.137.33h4Zm-1.366-3.214c-.886-.886-2.011-1.366-3.274-1.366v4c.177 0 .292.04.446.194l2.828-2.828Zm-3.274-1.366h-17.28v4h17.28v-4Zm-15.28 2v-10.5h-4v10.5h4Zm-2-8.5h17.28v-4h-17.28v4Zm17.28 0c1.213 0 2.32-.423 3.216-1.25l-2.713-2.94a.655.655 0 0 1-.503.19v4Zm3.274-1.306c.909-.909 1.366-2.063 1.366-3.334h-4c0 .25-.063.375-.194.506l2.828 2.828Zm1.366-3.334c0-1.267-.485-2.404-1.424-3.27l-2.713 2.94c.102.094.137.157.137.33h4Zm-1.366-3.214c-.886-.886-2.011-1.366-3.274-1.366v4c.177 0 .292.04.446.194l2.828-2.828Zm-3.274-1.366h-20.76v4h20.76v-4Zm-18.76 2V72h-4v10.5h4Z" fill="#22ADAA" mask="url(#gb)"/></svg><svg fill="none" viewBox="0 0 30 30" id="phone" xmlns="http://www.w3.org/2000/svg"><path d="M17.5 1.5h-5a.5.5 0 0 0 0 1h5a.5.5 0 0 0 0-1ZM21 1.5h-.5a.5.5 0 0 0 0 1h.5a.5.5 0 0 0 0-1ZM15.621 25.5h-1.242c-.76 0-1.379.619-1.379 1.38v.241c0 .76.619 1.379 1.379 1.379h1.242c.76 0 1.379-.619 1.379-1.379v-.241c0-.761-.619-1.38-1.379-1.38ZM16 27.121a.38.38 0 0 1-.379.379h-1.242a.38.38 0 0 1-.379-.379v-.241c0-.21.17-.38.38-.38h1.24c.21 0 .38.17.38.38v.241Z" fill="#fff"/><path d="M21.693 0H8.307A1.81 1.81 0 0 0 6.5 1.808v26.384A1.81 1.81 0 0 0 8.307 30h13.385a1.81 1.81 0 0 0 1.808-1.807V1.807A1.81 1.81 0 0 0 21.693 0Zm.807 28.192a.808.808 0 0 1-.807.808H8.307a.808.808 0 0 1-.807-.807V1.807c0-.445.362-.807.807-.807h13.385c.446 0 .808.363.808.808v26.384Z" fill="#fff"/><path d="M23 3H7a.5.5 0 0 0-.5.5v21a.5.5 0 0 0 .5.5h16a.5.5 0 0 0 .5-.5v-21A.5.5 0 0 0 23 3Zm-.5 21h-15V4h15v20Z" fill="#fff"/></svg><svg fill="none" viewBox="0 0 30 30" id="telegram" xmlns="http://www.w3.org/2000/svg"><g clip-path="url(#ia)"><path d="M29.413 2.458a1.813 1.813 0 0 0-1.79-.385L1.243 10.77a1.798 1.798 0 0 0-1.242 1.634c-.035.756.39 1.441 1.083 1.745l6.524 2.854 1.968 9.128c.082.38.274.717.682.821.412.105.704-.12 1.011-.35l4.841-3.625 5.66 4.63a1.8 1.8 0 0 0 1.728.314 1.8 1.8 0 0 0 1.181-1.3l5.272-22.412a1.813 1.813 0 0 0-.54-1.75Zm-17.721 16.18a.237.237 0 0 0-.01.026l-1.09 3.812-1.218-5.648 8.374-4.652-5.855 6.121a.882.882 0 0 0-.201.34Zm.346 5.186.496-1.731.474-1.657 1.699 1.39-2.669 1.998Zm16.199-20.02-5.272 22.413c-.002.01-.006.026-.032.035-.025.008-.038-.002-.046-.009l-6.193-5.067-2.87-2.349 9.218-9.638a.881.881 0 0 0-1.064-1.38l-13.65 7.584-6.537-2.86c-.02-.008-.03-.013-.029-.047.002-.034.013-.037.034-.044l26.378-8.695c.013-.005.027-.01.048.01s.018.034.015.047Z" fill="#fff"/></g><defs><clipPath id="ia"><path fill="#fff" d="M0 0h30v30H0z"/></clipPath></defs></svg><svg fill="none" viewBox="0 0 30 30" id="vk" xmlns="http://www.w3.org/2000/svg"><g clip-path="url(#ja)"><path d="M15.181 24.375c4.34 0 2.793-2.747 3.128-3.538-.005-.59-.01-1.157.01-1.502.275.078.924.406 2.264 1.709 2.068 2.087 2.597 3.331 4.268 3.331h3.076c.976 0 1.483-.404 1.737-.742.245-.328.485-.903.222-1.798-.686-2.155-4.688-5.876-4.937-6.269.037-.072.097-.168.128-.219h-.002c.79-1.043 3.805-5.56 4.249-7.368a.023.023 0 0 0 .002-.01c.24-.825.02-1.36-.207-1.663-.343-.452-.888-.681-1.624-.681h-3.076c-1.03 0-1.811.519-2.207 1.465-.66 1.681-2.518 5.139-3.91 6.363a80.131 80.131 0 0 1 .008-4.042c.045-1.918.19-3.786-1.801-3.786h-4.835c-1.248 0-2.441 1.362-1.149 2.98 1.13 1.418.406 2.207.65 6.14-.95-1.019-2.64-3.77-3.835-7.286-.335-.951-.843-1.833-2.271-1.833H1.992C.745 5.626 0 6.306 0 7.445c0 2.557 5.661 16.93 15.181 16.93ZM5.07 7.501c.271 0 .298 0 .5.571 1.224 3.604 3.968 8.937 5.974 8.937 1.506 0 1.506-1.544 1.506-2.125l-.002-4.628c-.082-1.531-.64-2.293-1.006-2.756l4.385.005c.003.021-.025 5.119.013 6.354 0 1.754 1.392 2.758 3.566.559 2.294-2.59 3.88-6.46 3.944-6.617.093-.225.175-.301.47-.301h3.088c0 .004 0 .008-.002.011-.281 1.313-3.057 5.495-3.986 6.794-.015.02-.029.041-.043.063-.409.667-.741 1.405.056 2.442.073.088.263.293.538.578.855.882 3.788 3.9 4.047 5.1-.172.027-.36.007-3.266.013-.618 0-1.102-.925-2.948-2.787-1.66-1.615-2.738-2.275-3.72-2.275-1.904 0-1.765 1.546-1.748 3.416.006 2.027-.006 1.386.008 1.514-.112.044-.43.131-1.262.131C7.25 22.5 2.085 9.911 1.886 7.505c.069-.006 1.015-.002 3.183-.004Z" fill="#fff"/></g><defs><clipPath id="ja"><path fill="#fff" d="M0 0h30v30H0z"/></clipPath></defs></svg><svg fill="none" viewBox="0 0 30 30" id="whatsapp" xmlns="http://www.w3.org/2000/svg"><g clip-path="url(#ka)" fill="#fff"><path d="M25.739 4.261A14.452 14.452 0 0 0 15.452 0h-.002c-1.922 0-3.795.372-5.567 1.106a14.476 14.476 0 0 0-4.719 3.155 14.453 14.453 0 0 0-4.26 10.287c0 2.318.559 4.62 1.618 6.673L.077 28.206a1.337 1.337 0 0 0 .319 1.398 1.336 1.336 0 0 0 1.398.32l6.985-2.446a14.593 14.593 0 0 0 6.673 1.619c3.886 0 7.539-1.514 10.287-4.262A14.453 14.453 0 0 0 30 14.548c0-3.886-1.513-7.54-4.261-10.287Zm-1.244 19.33a12.704 12.704 0 0 1-9.043 3.746c-2.09 0-4.166-.517-6.004-1.495a1.355 1.355 0 0 0-1.08-.084L2.02 27.98l2.221-6.346a1.356 1.356 0 0 0-.084-1.081 12.82 12.82 0 0 1-1.495-6.004c0-3.416 1.33-6.627 3.746-9.043A12.706 12.706 0 0 1 15.45 1.76c3.417 0 6.628 1.33 9.044 3.746a12.704 12.704 0 0 1 3.746 9.043c0 3.416-1.33 6.628-3.746 9.043Z"/><path d="M20.859 15.849a1.719 1.719 0 0 0-2.428 0l-.732.732a10.655 10.655 0 0 1-4.279-4.28l.732-.731c.67-.67.67-1.758 0-2.428L12.18 7.17a1.718 1.718 0 0 0-2.428 0L8.174 8.748c-.904.904-.949 2.458-.127 4.375.714 1.666 2.02 3.496 3.678 5.153 1.657 1.658 3.488 2.964 5.153 3.678.91.39 1.74.585 2.456.585.791 0 1.445-.238 1.92-.712l1.577-1.578c.324-.324.503-.755.503-1.214 0-.459-.179-.89-.503-1.214L20.86 15.85Zm-.85 4.734c-.258.258-1.051.348-2.438-.246-1.464-.628-3.099-1.802-4.602-3.305-1.503-1.503-2.677-3.137-3.305-4.602-.594-1.386-.504-2.18-.246-2.438l1.548-1.548 1.912 1.912-.917.917a1.343 1.343 0 0 0-.248 1.563 12.412 12.412 0 0 0 5.452 5.452c.521.266 1.15.166 1.564-.248l.916-.917 1.912 1.912-1.548 1.548Z"/></g><defs><clipPath id="ka"><path fill="#fff" d="M0 0h30v30H0z"/></clipPath></defs></svg><svg fill="none" viewBox="0 0 30 30" id="youtube" xmlns="http://www.w3.org/2000/svg"><g clip-path="url(#la)" fill="#fff"><path d="m19.617 13.652-6.627-3.626a1.207 1.207 0 0 0-1.205.02 1.206 1.206 0 0 0-.597 1.048v7.19c0 .433.221.824.593 1.045a1.215 1.215 0 0 0 1.201.028l6.628-3.564a1.217 1.217 0 0 0 .007-2.14Zm-6.671 3.728v-5.374l4.954 2.71-4.954 2.664Z"/><path d="m29.78 8.996-.002-.014c-.025-.241-.278-2.39-1.323-3.482-1.206-1.285-2.575-1.44-3.233-1.516a7.89 7.89 0 0 1-.149-.017l-.052-.006c-3.966-.288-9.956-.328-10.016-.328h-.01c-.06 0-6.05.04-10.052.328l-.052.006-.141.016c-.65.076-2.004.232-3.214 1.563C.54 6.627.254 8.73.224 8.965l-.003.03C.21 9.097 0 11.489 0 13.89v2.244c0 2.402.212 4.794.22 4.895l.002.015c.026.237.278 2.346 1.318 3.439 1.134 1.242 2.57 1.406 3.341 1.494.122.014.227.026.299.039l.07.01c2.29.217 9.469.325 9.773.329h.019c.06 0 6.049-.04 10.015-.328l.052-.006.169-.018c.646-.07 1.993-.212 3.186-1.525.995-1.081 1.283-3.183 1.312-3.419l.003-.03c.01-.101.221-2.493.221-4.895V13.89c0-2.402-.212-4.794-.22-4.894Zm-1.538 7.138c0 2.223-.194 4.512-.213 4.722-.074.58-.377 1.909-.862 2.436-.747.821-1.515.903-2.075.962l-.187.021c-3.836.278-9.6.32-9.865.322-.298-.004-7.372-.113-9.593-.319a7.838 7.838 0 0 0-.366-.047c-.657-.076-1.556-.179-2.248-.94l-.016-.017c-.476-.496-.771-1.74-.846-2.41a61.433 61.433 0 0 1-.213-4.73V13.89c0-2.22.194-4.507.212-4.721.09-.682.398-1.932.863-2.436.77-.847 1.582-.941 2.119-1.003l.143-.017c3.892-.28 9.697-.32 9.905-.322.208.001 6.011.043 9.868.322l.155.018c.552.063 1.387.158 2.153.975l.007.008c.476.496.77 1.761.846 2.446.013.15.213 2.471.213 4.73v2.244Z"/></g><defs><clipPath id="la"><path fill="#fff" d="M0 0h30v30H0z"/></clipPath></defs></svg></svg>