<svg width="504" height="181" viewBox="0 0 504 181" fill="none" xmlns="http://www.w3.org/2000/svg">
<path d="M2.49951 80H1.49951V81H2.49951V80ZM2.49951 2.99999V1.99999H1.49951V2.99999H2.49951ZM73.1195 9.82L72.4124 10.5271L72.4186 10.5333L72.4249 10.5394L73.1195 9.82ZM77.9595 16.97L78.8863 16.5943V16.5943L77.9595 16.97ZM77.7395 34.68L78.6482 35.0975L78.6523 35.0884L77.7395 34.68ZM73.0095 41.39L72.3312 40.6552L71.5352 41.39L72.3312 42.1248L73.0095 41.39ZM77.5195 48.21L76.5894 48.5772L76.5935 48.5877L76.5979 48.5981L77.5195 48.21ZM77.6295 65.92L76.6994 65.5528L76.6967 65.5595L76.6942 65.5661L77.6295 65.92ZM73.0095 73.18L73.7166 73.8871L73.7228 73.8809L73.7289 73.8746L73.0095 73.18ZM65.4195 78.13L65.0365 77.2062L65.0284 77.2097L65.4195 78.13ZM28.3495 31.82H27.3495V32.82H28.3495V31.82ZM52.3295 30.5L53.0078 31.2348L53.0225 31.2212L53.0366 31.2071L52.3295 30.5ZM52.3295 23.68L51.6224 24.3871L51.6365 24.4012L51.6512 24.4148L52.3295 23.68ZM28.3495 22.25V21.25H27.3495V22.25H28.3495ZM28.3495 60.75H27.3495V61.75H28.3495V60.75ZM52.3295 59.32L53.0366 60.0271L52.3295 59.32ZM52.3295 52.5L51.6224 53.2071L51.6365 53.2212L51.6512 53.2348L52.3295 52.5ZM28.3495 51.07V50.07H27.3495V51.07H28.3495ZM3.49951 80V2.99999H1.49951V80H3.49951ZM2.49951 3.99999H55.4095V1.99999H2.49951V3.99999ZM55.4095 3.99999C59.0375 3.99999 62.278 4.60436 65.1465 5.79374L65.9125 3.94625C62.7677 2.6423 59.2615 1.99999 55.4095 1.99999V3.99999ZM65.1465 5.79374C68.0466 6.99622 70.4624 8.57712 72.4124 10.5271L73.8266 9.11289C71.6699 6.95621 69.0258 5.23711 65.9125 3.94625L65.1465 5.79374ZM72.4249 10.5394C74.452 12.4966 75.9858 14.7632 77.0328 17.3457L78.8863 16.5943C77.7332 13.7501 76.0403 11.25 73.8141 9.1006L72.4249 10.5394ZM77.0328 17.3457C78.0831 19.9364 78.6095 22.6686 78.6095 25.55H80.6095C80.6095 22.4181 80.036 19.4302 78.8863 16.5943L77.0328 17.3457ZM78.6095 25.55C78.6095 28.7208 78.0114 31.6236 76.8267 34.2716L78.6523 35.0884C79.961 32.1631 80.6095 28.9792 80.6095 25.55H78.6095ZM76.8308 34.2625C75.631 36.8738 74.1274 38.9972 72.3312 40.6552L73.6878 42.1248C75.705 40.2628 77.3547 37.9128 78.6482 35.0975L76.8308 34.2625ZM72.3312 42.1248C74.1115 43.7681 75.5361 45.9088 76.5894 48.5772L78.4497 47.8428C77.303 44.9378 75.7209 42.5319 73.6878 40.6552L72.3312 42.1248ZM76.5979 48.5981C77.7161 51.2538 78.2795 54.1275 78.2795 57.23H80.2795C80.2795 53.8791 79.6696 50.7395 78.4412 47.8219L76.5979 48.5981ZM78.2795 57.23C78.2795 60.1114 77.753 62.8835 76.6994 65.5528L78.5597 66.2872C79.706 63.3832 80.2795 60.3619 80.2795 57.23H78.2795ZM76.6942 65.5661C75.7166 68.1499 74.2509 70.4546 72.2901 72.4854L73.7289 73.8746C75.8748 71.6521 77.4891 69.1167 78.5648 66.2739L76.6942 65.5661ZM72.3024 72.4729C70.3524 74.4229 67.9366 76.0038 65.0365 77.2063L65.8025 79.0537C68.9158 77.7629 71.5599 76.0438 73.7166 73.8871L72.3024 72.4729ZM65.0284 77.2097C62.2383 78.3955 59.0381 79 55.4095 79V81C59.2609 81 62.7341 80.3579 65.8107 79.0503L65.0284 77.2097ZM55.4095 79H2.49951V81H55.4095V79ZM28.3495 32.82H48.9195V30.82H28.3495V32.82ZM48.9195 32.82C50.486 32.82 51.8662 32.2886 53.0078 31.2348L51.6512 29.7652C50.8862 30.4714 49.993 30.82 48.9195 30.82V32.82ZM53.0366 31.2071C54.1844 30.0593 54.7595 28.6286 54.7595 26.98H52.7595C52.7595 28.118 52.3813 29.034 51.6224 29.7929L53.0366 31.2071ZM54.7595 26.98C54.7595 25.3864 54.1702 24.0182 53.0078 22.9452L51.6512 24.4148C52.3955 25.1018 52.7595 25.9336 52.7595 26.98H54.7595ZM53.0366 22.9729C51.9002 21.8365 50.511 21.25 48.9195 21.25V23.25C49.968 23.25 50.8521 23.6168 51.6224 24.3871L53.0366 22.9729ZM48.9195 21.25H28.3495V23.25H48.9195V21.25ZM27.3495 22.25V31.82H29.3495V22.25H27.3495ZM28.3495 61.75H48.9195V59.75H28.3495V61.75ZM48.9195 61.75C50.511 61.75 51.9002 61.1635 53.0366 60.0271L51.6224 58.6129C50.8521 59.3832 49.968 59.75 48.9195 59.75V61.75ZM53.0366 60.0271C54.1844 58.8793 54.7595 57.4486 54.7595 55.8H52.7595C52.7595 56.938 52.3813 57.854 51.6224 58.6129L53.0366 60.0271ZM54.7595 55.8C54.7595 54.2064 54.1702 52.8382 53.0078 51.7652L51.6512 53.2348C52.3955 53.9218 52.7595 54.7536 52.7595 55.8H54.7595ZM53.0366 51.7929C51.9002 50.6565 50.511 50.07 48.9195 50.07V52.07C49.968 52.07 50.8521 52.4368 51.6224 53.2071L53.0366 51.7929ZM48.9195 50.07H28.3495V52.07H48.9195V50.07ZM27.3495 51.07V60.75H29.3495V51.07H27.3495ZM146.047 2.99999L146.996 2.68417L146.768 1.99999H146.047V2.99999ZM171.677 80V81H173.064L172.626 79.6842L171.677 80ZM144.727 80L143.777 80.3113L144.002 81H144.727V80ZM142.637 73.62L143.587 73.3087L143.362 72.62H142.637V73.62ZM113.817 73.62V72.62H113.092L112.867 73.3087L113.817 73.62ZM111.727 80V81H112.452L112.677 80.3113L111.727 80ZM84.7769 80L83.828 79.6842L83.3901 81H84.7769V80ZM110.407 2.99999V1.99999H109.686L109.458 2.68417L110.407 2.99999ZM120.307 54.37L119.357 54.0564L118.923 55.37H120.307V54.37ZM136.257 54.37V55.37H137.646L137.205 54.0525L136.257 54.37ZM128.227 30.39L129.175 30.0725L128.22 27.2212L127.277 30.0764L128.227 30.39ZM145.098 3.31582L170.728 80.3158L172.626 79.6842L146.996 2.68417L145.098 3.31582ZM171.677 79H144.727V81H171.677V79ZM145.677 79.6887L143.587 73.3087L141.687 73.9313L143.777 80.3113L145.677 79.6887ZM142.637 72.62H113.817V74.62H142.637V72.62ZM112.867 73.3087L110.777 79.6887L112.677 80.3113L114.767 73.9313L112.867 73.3087ZM111.727 79H84.7769V81H111.727V79ZM85.7257 80.3158L111.356 3.31582L109.458 2.68417L83.828 79.6842L85.7257 80.3158ZM110.407 3.99999H146.047V1.99999H110.407V3.99999ZM120.307 55.37H136.257V53.37H120.307V55.37ZM137.205 54.0525L129.175 30.0725L127.279 30.7075L135.309 54.6875L137.205 54.0525ZM127.277 30.0764L119.357 54.0564L121.256 54.6836L129.176 30.7036L127.277 30.0764ZM225.171 28.63H224.171V29.63H225.171V28.63ZM223.191 24.34L222.584 25.1344L222.609 25.1541L222.636 25.172L223.191 24.34ZM201.521 24.34L200.814 23.6329L200.8 23.647L200.786 23.6617L201.521 24.34ZM201.521 30.94L200.814 31.6471L200.828 31.6612L200.843 31.6748L201.521 30.94ZM236.061 34.24L235.659 35.1556L235.669 35.1598L235.678 35.1637L236.061 34.24ZM243.871 39.52L243.153 40.2154L243.164 40.2272L243.176 40.2386L243.871 39.52ZM249.151 47.33L248.227 47.713L248.231 47.7225L248.236 47.732L249.151 47.33ZM249.151 66.47L248.236 66.068L248.231 66.0775L248.227 66.087L249.151 66.47ZM243.871 74.39L243.164 73.6829L243.158 73.6887L243.153 73.6946L243.871 74.39ZM236.061 79.78L236.444 80.7037L236.454 80.6998L236.463 80.6956L236.061 79.78ZM190.851 79.78L190.449 80.6956L190.459 80.6998L190.468 80.7037L190.851 79.78ZM182.931 74.39L182.213 75.0854L182.218 75.0913L182.224 75.0971L182.931 74.39ZM177.651 66.47L176.727 66.853L176.731 66.8625L176.736 66.872L177.651 66.47ZM175.781 54.37V53.37H174.781V54.37H175.781ZM200.531 54.37H201.531V53.37H200.531V54.37ZM202.401 58.77L201.794 59.5644L201.819 59.5841L201.846 59.6021L202.401 58.77ZM224.071 58.66L223.364 57.9529L223.35 57.967L223.336 57.9817L224.071 58.66ZM224.071 52.06L223.364 52.7671L223.378 52.7812L223.393 52.7948L224.071 52.06ZM189.641 48.87L189.239 49.7856L189.249 49.7898L189.258 49.7937L189.641 48.87ZM181.721 43.59L181.003 44.2854L181.014 44.2972L181.026 44.3086L181.721 43.59ZM176.441 35.67L175.517 36.053L175.521 36.0625L175.526 36.072L176.441 35.67ZM176.441 16.53L175.525 16.128L175.521 16.1389L176.441 16.53ZM181.721 8.60999L181.014 7.90289L181.008 7.90868L181.003 7.91457L181.721 8.60999ZM189.641 3.33L190.024 4.25374L190.034 4.24979L190.043 4.24564L189.641 3.33ZM234.851 3.33L234.449 4.24564L234.459 4.24979L234.468 4.25374L234.851 3.33ZM242.661 8.60999L241.943 9.30542L241.948 9.31131L241.954 9.3171L242.661 8.60999ZM247.941 16.53L247.017 16.913L247.023 16.9268L247.029 16.9404L247.941 16.53ZM249.921 28.63V29.63H250.921V28.63H249.921ZM226.171 28.63V27.64H224.171V28.63H226.171ZM226.171 27.64C226.171 25.9149 225.28 24.5304 223.746 23.5079L222.636 25.172C223.743 25.9096 224.171 26.7251 224.171 27.64H226.171ZM223.799 23.5456C222.423 22.494 220.969 21.91 219.451 21.91V23.91C220.427 23.91 221.466 24.2793 222.584 25.1344L223.799 23.5456ZM219.451 21.91H204.931V23.91H219.451V21.91ZM204.931 21.91C203.34 21.91 201.95 22.4965 200.814 23.6329L202.228 25.0471C202.999 24.2768 203.883 23.91 204.931 23.91V21.91ZM200.786 23.6617C199.733 24.8033 199.201 26.1835 199.201 27.75H201.201C201.201 26.6765 201.55 25.7833 202.256 25.0183L200.786 23.6617ZM199.201 27.75C199.201 29.2614 199.746 30.5792 200.814 31.6471L202.228 30.2329C201.536 29.5408 201.201 28.732 201.201 27.75H199.201ZM200.843 31.6748C201.984 32.7286 203.365 33.26 204.931 33.26V31.26C203.858 31.26 202.965 30.9114 202.199 30.2052L200.843 31.6748ZM204.931 33.26H226.381V31.26H204.931V33.26ZM226.381 33.26C229.696 33.26 232.785 33.894 235.659 35.1556L236.463 33.3244C233.324 31.946 229.959 31.26 226.381 31.26V33.26ZM235.678 35.1637C238.562 36.3596 241.05 38.0432 243.153 40.2154L244.59 38.8246C242.292 36.4501 239.573 34.6137 236.444 33.3163L235.678 35.1637ZM243.176 40.2386C245.348 42.3407 247.032 44.8289 248.227 47.713L250.075 46.947C248.777 43.8178 246.941 41.0992 244.567 38.8014L243.176 40.2386ZM248.236 47.732C249.498 50.6084 250.131 53.6612 250.131 56.9H252.131C252.131 53.3922 251.444 50.0649 250.067 46.928L248.236 47.732ZM250.131 56.9C250.131 60.1388 249.498 63.1916 248.236 66.068L250.067 66.872C251.444 63.7351 252.131 60.4078 252.131 56.9H250.131ZM248.227 66.087C247.03 68.974 245.343 71.5035 243.164 73.6829L244.578 75.0971C246.946 72.7298 248.779 69.9793 250.075 66.853L248.227 66.087ZM243.153 73.6946C241.046 75.8711 238.552 77.5945 235.659 78.8644L236.463 80.6956C239.584 79.3255 242.296 77.4556 244.59 75.0854L243.153 73.6946ZM235.678 78.8563C232.8 80.0497 229.704 80.65 226.381 80.65V82.65C229.951 82.65 233.309 82.0037 236.444 80.7037L235.678 78.8563ZM226.381 80.65H200.531V82.65H226.381V80.65ZM200.531 80.65C197.208 80.65 194.112 80.0497 191.234 78.8563L190.468 80.7037C193.603 82.0037 196.961 82.65 200.531 82.65V80.65ZM191.253 78.8644C188.358 77.5932 185.822 75.8665 183.638 73.6829L182.224 75.0971C184.587 77.4602 187.331 79.3268 190.449 80.6956L191.253 78.8644ZM183.65 73.6946C181.535 71.5098 179.841 68.9701 178.567 66.068L176.736 66.872C178.101 69.9832 179.927 72.7235 182.213 75.0854L183.65 73.6946ZM178.575 66.087C177.38 63.2062 176.781 60.1468 176.781 56.9H174.781C174.781 60.3999 175.429 63.7205 176.727 66.853L178.575 66.087ZM176.781 56.9V54.37H174.781V56.9H176.781ZM175.781 55.37H200.531V53.37H175.781V55.37ZM199.531 54.37V55.36H201.531V54.37H199.531ZM199.531 55.36C199.531 57.0521 200.352 58.462 201.794 59.5644L203.009 57.9756C201.957 57.1713 201.531 56.3079 201.531 55.36H199.531ZM201.846 59.6021C203.286 60.5618 204.76 61.09 206.251 61.09V59.09C205.249 59.09 204.156 58.7382 202.956 57.938L201.846 59.6021ZM206.251 61.09H220.771V59.09H206.251V61.09ZM220.771 61.09C222.365 61.09 223.733 60.5007 224.806 59.3383L223.336 57.9817C222.649 58.7259 221.818 59.09 220.771 59.09V61.09ZM224.778 59.3671C225.915 58.2307 226.501 56.8415 226.501 55.25H224.501C224.501 56.2985 224.134 57.1826 223.364 57.9529L224.778 59.3671ZM226.501 55.25C226.501 53.7117 225.898 52.3858 224.749 51.3252L223.393 52.7948C224.151 53.4942 224.501 54.295 224.501 55.25H226.501ZM224.778 51.3529C223.698 50.2731 222.339 49.74 220.771 49.74V51.74C221.844 51.74 222.684 52.0869 223.364 52.7671L224.778 51.3529ZM220.771 49.74H199.321V51.74H220.771V49.74ZM199.321 49.74C195.998 49.74 192.902 49.1397 190.024 47.9463L189.258 49.7937C192.393 51.0937 195.751 51.74 199.321 51.74V49.74ZM190.043 47.9544C187.141 46.6803 184.601 44.9857 182.417 42.8714L181.026 44.3086C183.388 46.5943 186.128 48.4197 189.239 49.7856L190.043 47.9544ZM182.44 42.8946C180.325 40.7098 178.631 38.1701 177.357 35.268L175.526 36.072C176.891 39.1832 178.717 41.9235 181.003 44.2854L182.44 42.8946ZM177.365 35.287C176.17 32.4062 175.571 29.3468 175.571 26.1H173.571C173.571 29.5999 174.219 32.9205 175.517 36.053L177.365 35.287ZM175.571 26.1C175.571 22.7767 176.172 19.721 177.361 16.9211L175.521 16.1389C174.217 19.2057 173.571 22.53 173.571 26.1H175.571ZM177.357 16.932C178.631 14.0299 180.325 11.4902 182.44 9.30542L181.003 7.91457C178.717 10.2765 176.891 13.0168 175.526 16.128L177.357 16.932ZM182.428 9.3171C184.608 7.13772 187.137 5.4508 190.024 4.25374L189.258 2.40626C186.132 3.70254 183.381 5.53561 181.014 7.90289L182.428 9.3171ZM190.043 4.24564C192.917 2.98402 196.006 2.35 199.321 2.35V0.349996C195.743 0.349996 192.379 1.03597 189.239 2.41435L190.043 4.24564ZM199.321 2.35H225.171V0.349996H199.321V2.35ZM225.171 2.35C228.486 2.35 231.575 2.98402 234.449 4.24564L235.253 2.41435C232.113 1.03597 228.749 0.349996 225.171 0.349996V2.35ZM234.468 4.25374C237.352 5.44959 239.84 7.1332 241.943 9.30542L243.38 7.91457C241.082 5.54013 238.363 3.70374 235.234 2.40626L234.468 4.25374ZM241.954 9.3171C244.133 11.4965 245.82 14.026 247.017 16.913L248.865 16.147C247.569 13.0207 245.736 10.2702 243.368 7.90289L241.954 9.3171ZM247.029 16.9404C248.287 19.7356 248.921 22.7845 248.921 26.1H250.921C250.921 22.5221 250.235 19.191 248.853 16.1196L247.029 16.9404ZM248.921 26.1V28.63H250.921V26.1H248.921ZM249.921 27.63H225.171V29.63H249.921V27.63ZM336.751 2.99999H337.751V1.99999H336.751V2.99999ZM336.751 28.63V29.63H337.751V28.63H336.751ZM311.121 28.63V27.63H310.121V28.63H311.121ZM311.121 80V81H312.121V80H311.121ZM285.381 80H284.381V81H285.381V80ZM285.381 28.63H286.381V27.63H285.381V28.63ZM259.751 28.63H258.751V29.63H259.751V28.63ZM259.751 2.99999V1.99999H258.751V2.99999H259.751ZM335.751 2.99999V28.63H337.751V2.99999H335.751ZM336.751 27.63H311.121V29.63H336.751V27.63ZM310.121 28.63V80H312.121V28.63H310.121ZM311.121 79H285.381V81H311.121V79ZM286.381 80V28.63H284.381V80H286.381ZM285.381 27.63H259.751V29.63H285.381V27.63ZM260.751 28.63V2.99999H258.751V28.63H260.751ZM259.751 3.99999H336.751V1.99999H259.751V3.99999ZM349.656 80H348.656V81H349.656V80ZM349.656 2.99999V1.99999H348.656V2.99999H349.656ZM413.786 2.99999H414.786V1.99999H413.786V2.99999ZM413.786 22.25V23.25H414.786V22.25H413.786ZM375.286 22.25V21.25H374.286V22.25H375.286ZM375.286 31.82H374.286V32.82H375.286V31.82ZM407.406 31.82H408.406V30.82H407.406V31.82ZM407.406 51.07V52.07H408.406V51.07H407.406ZM375.286 51.07V50.07H374.286V51.07H375.286ZM375.286 60.75H374.286V61.75H375.286V60.75ZM413.786 60.75H414.786V59.75H413.786V60.75ZM413.786 80V81H414.786V80H413.786ZM350.656 80V2.99999H348.656V80H350.656ZM349.656 3.99999H413.786V1.99999H349.656V3.99999ZM412.786 2.99999V22.25H414.786V2.99999H412.786ZM413.786 21.25H375.286V23.25H413.786V21.25ZM374.286 22.25V31.82H376.286V22.25H374.286ZM375.286 32.82H407.406V30.82H375.286V32.82ZM406.406 31.82V51.07H408.406V31.82H406.406ZM407.406 50.07H375.286V52.07H407.406V50.07ZM374.286 51.07V60.75H376.286V51.07H374.286ZM375.286 61.75H413.786V59.75H375.286V61.75ZM412.786 60.75V80H414.786V60.75H412.786ZM413.786 79H349.656V81H413.786V79ZM502.595 2.99999H503.595V1.99999H502.595V2.99999ZM502.595 28.63V29.63H503.595V28.63H502.595ZM476.965 28.63V27.63H475.965V28.63H476.965ZM476.965 80V81H477.965V80H476.965ZM451.225 80H450.225V81H451.225V80ZM451.225 28.63H452.225V27.63H451.225V28.63ZM425.595 28.63H424.595V29.63H425.595V28.63ZM425.595 2.99999V1.99999H424.595V2.99999H425.595ZM501.595 2.99999V28.63H503.595V2.99999H501.595ZM502.595 27.63H476.965V29.63H502.595V27.63ZM475.965 28.63V80H477.965V28.63H475.965ZM476.965 79H451.225V81H476.965V79ZM452.225 80V28.63H450.225V80H452.225ZM451.225 27.63H425.595V29.63H451.225V27.63ZM426.595 28.63V2.99999H424.595V28.63H426.595ZM425.595 3.99999H502.595V1.99999H425.595V3.99999ZM26.9195 176L26.5208 176.917L26.5256 176.919L26.9195 176ZM13.6095 167.09L12.8956 167.79L12.9024 167.797L12.9093 167.804L13.6095 167.09ZM4.69951 153.78L3.78244 154.179L4.69951 153.78ZM4.69951 121.33L5.61658 121.729L4.69951 121.33ZM13.6095 108.13L12.9024 107.423L13.6095 108.13ZM26.9195 99.11L26.5256 98.1908L26.5208 98.1929L26.9195 99.11ZM56.2895 97.9L56.6057 96.9513L56.2895 97.9ZM67.7295 103.84L67.1322 104.642L67.1418 104.649L67.1515 104.656L67.7295 103.84ZM76.8595 112.86L76.0514 113.449L76.0595 113.46L76.8595 112.86ZM82.9095 124.63L83.0411 125.621L84.2285 125.464L83.8614 124.323L82.9095 124.63ZM56.3995 128.15L55.5896 128.737L55.9396 129.22L56.5311 129.141L56.3995 128.15ZM50.5695 123.09L51.0387 122.207L50.5695 123.09ZM36.9295 122.54L37.3192 123.461L37.3274 123.457L37.3357 123.454L36.9295 122.54ZM28.3495 131.12L27.4357 130.714L27.4293 130.728L27.4234 130.743L28.3495 131.12ZM28.3495 143.88L27.4188 144.246L27.4268 144.266L27.4357 144.286L28.3495 143.88ZM31.8695 149.05L31.1624 149.757H31.1624L31.8695 149.05ZM36.9295 152.57L36.5105 153.478L36.5169 153.481L36.5234 153.484L36.9295 152.57ZM50.5695 152.02L50.1004 151.137L50.5695 152.02ZM56.3995 146.96L56.5311 145.969L55.9396 145.89L55.5896 146.373L56.3995 146.96ZM82.9095 150.48L83.8598 150.791L84.2346 149.647L83.0411 149.489L82.9095 150.48ZM76.8595 162.25L76.0536 161.658L76.0515 161.661L76.8595 162.25ZM67.7295 171.38L68.3156 172.19L68.3187 172.188L67.7295 171.38ZM56.2895 177.21L56.6057 178.159L56.2895 177.21ZM43.1995 178.3C37.6116 178.3 32.3192 177.226 27.3134 175.081L26.5256 176.919C31.7865 179.174 37.3474 180.3 43.1995 180.3V178.3ZM27.3182 175.083C22.3665 172.93 18.0329 170.028 14.3097 166.376L12.9093 167.804C16.8128 171.632 21.3525 174.67 26.5208 176.917L27.3182 175.083ZM14.3235 166.39C10.6718 162.667 7.7695 158.333 5.61658 153.381L3.78244 154.179C6.02953 159.347 9.06719 163.887 12.8956 167.79L14.3235 166.39ZM5.61658 153.381C3.474 148.453 2.39951 143.163 2.39951 137.5H0.399512C0.399512 143.424 1.52502 148.987 3.78244 154.179L5.61658 153.381ZM2.39951 137.5C2.39951 131.912 3.4733 126.658 5.61658 121.729L3.78244 120.931C1.52572 126.122 0.399512 131.648 0.399512 137.5H2.39951ZM5.61658 121.729C7.76875 116.779 10.6691 112.485 14.3166 108.837L12.9024 107.423C9.06988 111.255 6.03027 115.761 3.78244 120.931L5.61658 121.729ZM14.3166 108.837C18.0392 105.115 22.3706 102.178 27.3182 100.027L26.5208 98.1929C21.3484 100.442 16.8065 103.519 12.9024 107.423L14.3166 108.837ZM27.3134 100.029C32.3192 97.8838 37.6116 96.81 43.1995 96.81V94.81C37.3474 94.81 31.7865 95.9362 26.5256 98.1908L27.3134 100.029ZM43.1995 96.81C47.6422 96.81 51.8985 97.4904 55.9733 98.8487L56.6057 96.9513C52.3205 95.5229 47.8502 94.81 43.1995 94.81V96.81ZM55.9733 98.8487C60.055 100.209 63.773 102.14 67.1322 104.642L68.3268 103.038C64.7927 100.406 60.884 98.3774 56.6057 96.9513L55.9733 98.8487ZM67.1515 104.656C70.5822 107.086 73.5481 110.016 76.0515 113.449L77.6675 112.271C75.0376 108.664 71.9169 105.581 68.3075 103.024L67.1515 104.656ZM76.0595 113.46C78.6308 116.888 80.5972 120.712 81.9577 124.937L83.8614 124.323C82.4352 119.895 80.3682 115.872 77.6595 112.26L76.0595 113.46ZM82.7779 123.639L56.2679 127.159L56.5311 129.141L83.0411 125.621L82.7779 123.639ZM57.2095 127.563C55.5789 125.312 53.5184 123.524 51.0387 122.207L50.1004 123.973C52.314 125.149 54.1402 126.735 55.5896 128.737L57.2095 127.563ZM51.0387 122.207C48.5528 120.886 45.9357 120.22 43.1995 120.22V122.22C45.5967 122.22 47.8929 122.8 50.1004 123.973L51.0387 122.207ZM43.1995 120.22C40.8618 120.22 38.6332 120.688 36.5234 121.626L37.3357 123.454C39.1858 122.632 41.1372 122.22 43.1995 122.22V120.22ZM36.5399 121.619C34.5144 122.476 32.72 123.685 31.1624 125.243L32.5766 126.657C33.9524 125.281 35.5313 124.217 37.3192 123.461L36.5399 121.619ZM31.1624 125.243C29.6051 126.8 28.3633 128.627 27.4357 130.714L29.2633 131.526C30.0957 129.653 31.2006 128.033 32.5766 126.657L31.1624 125.243ZM27.4234 130.743C26.5649 132.85 26.1395 135.106 26.1395 137.5H28.1395C28.1395 135.348 28.5208 133.35 29.2756 131.497L27.4234 130.743ZM26.1395 137.5C26.1395 139.826 26.5665 142.076 27.4188 144.246L29.2803 143.514C28.5192 141.577 28.1395 139.574 28.1395 137.5H26.1395ZM27.4357 144.286C28.3633 146.373 29.6051 148.2 31.1624 149.757L32.5766 148.343C31.2006 146.967 30.0957 145.347 29.2633 143.474L27.4357 144.286ZM31.1624 149.757C32.7135 151.308 34.498 152.549 36.5105 153.478L37.3486 151.662C35.5477 150.831 33.9588 149.725 32.5766 148.343L31.1624 149.757ZM36.5234 153.484C38.6332 154.422 40.8618 154.89 43.1995 154.89V152.89C41.1372 152.89 39.1858 152.478 37.3357 151.656L36.5234 153.484ZM43.1995 154.89C45.9357 154.89 48.5528 154.224 51.0387 152.903L50.1004 151.137C47.8929 152.31 45.5967 152.89 43.1995 152.89V154.89ZM51.0387 152.903C53.5184 151.586 55.5789 149.798 57.2095 147.547L55.5896 146.373C54.1402 148.375 52.314 149.961 50.1004 151.137L51.0387 152.903ZM56.2679 147.951L82.7779 151.471L83.0411 149.489L56.5311 145.969L56.2679 147.951ZM81.9592 150.169C80.5987 154.322 78.6307 158.15 76.0536 161.658L77.6654 162.842C80.3683 159.163 82.4336 155.145 83.8598 150.791L81.9592 150.169ZM76.0515 161.661C73.546 165.097 70.5765 168.066 67.1403 170.572L68.3187 172.188C71.9225 169.56 75.0397 166.443 77.6675 162.839L76.0515 161.661ZM67.1434 170.57C63.782 173.001 60.0603 174.899 55.9733 176.261L56.6057 178.159C60.8787 176.734 64.7836 174.745 68.3156 172.19L67.1434 170.57ZM55.9733 176.261C51.8985 177.62 47.6422 178.3 43.1995 178.3V180.3C47.8502 180.3 52.3205 179.587 56.6057 178.159L55.9733 176.261ZM147.229 99L148.177 98.6842L147.95 98H147.229V99ZM172.859 176V177H174.245L173.807 175.684L172.859 176ZM145.908 176L144.958 176.311L145.184 177H145.908V176ZM143.818 169.62L144.769 169.309L144.543 168.62H143.818V169.62ZM114.998 169.62V168.62H114.274L114.048 169.309L114.998 169.62ZM112.909 176V177H113.633L113.859 176.311L112.909 176ZM85.9585 176L85.0097 175.684L84.5717 177H85.9585V176ZM111.589 99V98H110.867L110.64 98.6842L111.589 99ZM121.489 150.37L120.539 150.056L120.105 151.37H121.489V150.37ZM137.438 150.37V151.37H138.828L138.387 150.052L137.438 150.37ZM129.408 126.39L130.357 126.072L129.402 123.221L128.459 126.076L129.408 126.39ZM146.28 99.3158L171.91 176.316L173.807 175.684L148.177 98.6842L146.28 99.3158ZM172.859 175H145.908V177H172.859V175ZM146.859 175.689L144.769 169.309L142.868 169.931L144.958 176.311L146.859 175.689ZM143.818 168.62H114.998V170.62H143.818V168.62ZM114.048 169.309L111.958 175.689L113.859 176.311L115.949 169.931L114.048 169.309ZM112.909 175H85.9585V177H112.909V175ZM86.9073 176.316L112.537 99.3158L110.64 98.6842L85.0097 175.684L86.9073 176.316ZM111.589 100H147.229V98H111.589V100ZM121.489 151.37H137.438V149.37H121.489V151.37ZM138.387 150.052L130.357 126.072L128.46 126.708L136.49 150.688L138.387 150.052ZM128.459 126.076L120.539 150.056L122.438 150.684L130.358 126.704L128.459 126.076ZM239.726 101.53L239.327 102.447L239.334 102.45L239.726 101.53ZM249.956 108.46L249.24 109.158L249.248 109.167L249.257 109.176L249.956 108.46ZM256.886 118.69L255.965 119.082L255.968 119.088L256.886 118.69ZM257.986 140.36L257.032 140.058L257.03 140.065L257.028 140.073L257.986 140.36ZM254.246 148.61L255.085 149.153L255.092 149.142L254.246 148.61ZM240.936 160.16L240.518 159.251L239.382 159.773L240.141 160.767L240.936 160.16ZM253.036 176V177H255.058L253.83 175.393L253.036 176ZM224.766 176L223.95 176.579L224.249 177H224.766V176ZM215.636 163.13L216.451 162.551L216.152 162.13H215.636V163.13ZM208.046 163.13V162.13H207.046V163.13H208.046ZM208.046 176V177H209.046V176H208.046ZM182.416 176H181.416V177H182.416V176ZM182.416 99V98H181.416V99H182.416ZM208.046 124.63V123.63H207.046V124.63H208.046ZM208.046 137.5H207.046V138.5H208.046V137.5ZM231.916 135.63L231.208 134.923L231.916 135.63ZM231.916 126.5L231.208 127.207L231.916 126.5ZM227.296 100C231.564 100 235.571 100.817 239.327 102.447L240.124 100.613C236.106 98.8694 231.827 98 227.296 98V100ZM239.334 102.45C243.178 104.088 246.476 106.324 249.24 109.158L250.672 107.762C247.715 104.729 244.193 102.346 240.117 100.61L239.334 102.45ZM249.257 109.176C252.091 111.939 254.328 115.237 255.966 119.082L257.806 118.298C256.07 114.223 253.686 110.701 250.654 107.744L249.257 109.176ZM255.968 119.088C257.598 122.844 258.416 126.852 258.416 131.12H260.416C260.416 126.588 259.546 122.309 257.803 118.292L255.968 119.088ZM258.416 131.12C258.416 134.171 257.955 137.149 257.032 140.058L258.939 140.662C259.923 137.558 260.416 134.376 260.416 131.12H258.416ZM257.028 140.073C256.173 142.921 254.964 145.588 253.399 148.078L255.092 149.142C256.754 146.498 258.038 143.666 258.943 140.647L257.028 140.073ZM253.406 148.067C251.844 150.48 249.963 152.646 247.759 154.566L249.072 156.074C251.415 154.034 253.42 151.726 255.085 149.153L253.406 148.067ZM247.759 154.566C245.557 156.484 243.144 158.045 240.518 159.251L241.353 161.069C244.154 159.782 246.728 158.116 249.072 156.074L247.759 154.566ZM240.141 160.767L252.241 176.607L253.83 175.393L241.73 159.553L240.141 160.767ZM253.036 175H224.766V177H253.036V175ZM225.581 175.421L216.451 162.551L214.82 163.709L223.95 176.579L225.581 175.421ZM215.636 162.13H208.046V164.13H215.636V162.13ZM207.046 163.13V176H209.046V163.13H207.046ZM208.046 175H182.416V177H208.046V175ZM183.416 176V99H181.416V176H183.416ZM182.416 100H227.296V98H182.416V100ZM227.296 123.63H208.046V125.63H227.296V123.63ZM207.046 124.63V137.5H209.046V124.63H207.046ZM208.046 138.5H227.296V136.5H208.046V138.5ZM227.296 138.5C229.382 138.5 231.18 137.779 232.623 136.337L231.208 134.923C230.157 135.974 228.875 136.5 227.296 136.5V138.5ZM232.623 136.337C234.056 134.903 234.786 133.146 234.786 131.12H232.786C232.786 132.614 232.268 133.863 231.208 134.923L232.623 136.337ZM234.786 131.12C234.786 129.033 234.065 127.235 232.623 125.793L231.208 127.207C232.259 128.258 232.786 129.54 232.786 131.12H234.786ZM232.623 125.793C231.18 124.351 229.382 123.63 227.296 123.63V125.63C228.875 125.63 230.157 126.156 231.208 127.207L232.623 125.793Z" fill="#22ADAA" fill-opacity="0.7"/>
</svg>
